<?xml version="1.0" encoding="UTF-8" standalone="no"?>
<svg
   width="320"
   height="180"
   viewBox="0 0 84.666664 47.625001"
   version="1.1"
   id="svg8"
   sodipodi:docname="default-symbolic.svg"
   inkscape:version="1.1 (c4e8f9ed74, 2021-05-24)"
   xmlns:inkscape="http://www.inkscape.org/namespaces/inkscape"
   xmlns:sodipodi="http://sodipodi.sourceforge.net/DTD/sodipodi-0.dtd"
   xmlns="http://www.w3.org/2000/svg"
   xmlns:svg="http://www.w3.org/2000/svg"
   xmlns:rdf="http://www.w3.org/1999/02/22-rdf-syntax-ns#"
   xmlns:cc="http://creativecommons.org/ns#"
   xmlns:dc="http://purl.org/dc/elements/1.1/">
  <sodipodi:namedview
     id="namedview42"
     pagecolor="#ffffff"
     bordercolor="#666666"
     borderopacity="1.0"
     inkscape:pageshadow="2"
     inkscape:pageopacity="0.0"
     inkscape:pagecheckerboard="0"
     showgrid="false"
     inkscape:zoom="4"
     inkscape:cx="142.125"
     inkscape:cy="71.000001"
     inkscape:window-width="1920"
     inkscape:window-height="1006"
     inkscape:window-x="1366"
     inkscape:window-y="26"
     inkscape:window-maximized="1"
     inkscape:current-layer="svg8"
     width="320px" />
  <defs
     id="defs2" />
  <metadata
     id="metadata5">
    <rdf:RDF>
      <cc:Work
         rdf:about="">
        <dc:format>image/svg+xml</dc:format>
        <dc:type
           rdf:resource="http://purl.org/dc/dcmitype/StillImage" />
      </cc:Work>
    </rdf:RDF>
  </metadata>
  <rect
     style="fill:#ffffff;fill-opacity:1;stroke:none;stroke-width:2.75472;stroke-linejoin:miter;stroke-miterlimit:4;stroke-dasharray:none;stroke-opacity:1"
     id="rect1527"
     width="84.666008"
     height="47.624172"
     x="0.0011975408"
     y="0.00077672349" />
  <path
     id="path967"
     d="M 2.9866863,1.9948733 H 81.675795"
     style="fill:none;stroke:#97bb72;stroke-width:0.622109;stroke-linecap:butt;stroke-linejoin:miter;stroke-miterlimit:4;stroke-dasharray:none;stroke-opacity:1" />
  <path
     style="fill:none;stroke:#97bb72;stroke-width:0.622128;stroke-linecap:butt;stroke-linejoin:miter;stroke-miterlimit:4;stroke-dasharray:none;stroke-opacity:1"
     d="M 2.9866859,45.635772 H 81.680458"
     id="path969" />
  <path
     id="path971"
     d="M 3.2207896,1.6800533 V 45.937373"
     style="fill:none;stroke:#97bb72;stroke-width:0.466555;stroke-linecap:butt;stroke-linejoin:miter;stroke-miterlimit:4;stroke-dasharray:none;stroke-opacity:1" />
  <path
     style="fill:none;stroke:#97bb72;stroke-width:0.466201;stroke-linecap:butt;stroke-linejoin:miter;stroke-miterlimit:4;stroke-dasharray:none;stroke-opacity:1"
     d="M 81.448098,1.6800533 V 45.870399"
     id="path975" />
  <path
     id="path988"
     d="m 4.9845,43.967764 h 7.448501"
     style="opacity:1;fill:none;stroke:#97bb72;stroke-width:0.491834;stroke-linecap:butt;stroke-linejoin:miter;stroke-miterlimit:4;stroke-dasharray:none;stroke-opacity:1" />
  <path
     id="path1726"
     d="M 2.9866859,42.256333 H 81.476406"
     style="fill:none;stroke:#97bb72;stroke-width:0.62132;stroke-linecap:butt;stroke-linejoin:miter;stroke-miterlimit:4;stroke-dasharray:none;stroke-opacity:1" />
  <path
     style="opacity:1;fill:none;stroke:#97bb72;stroke-width:0.491834;stroke-linecap:butt;stroke-linejoin:miter;stroke-miterlimit:4;stroke-dasharray:none;stroke-opacity:1"
     d="M 6.1095471,7.394849 H 9.8063744"
     id="path973" />
  <rect
     y="5.946825"
     x="3.8353965"
     height="16.432278"
     width="7.4400315"
     id="rect1728"
     style="opacity:1;fill:none;fill-opacity:1;stroke:#97bb72;stroke-width:0.33998958;stroke-linecap:square;stroke-linejoin:miter;stroke-miterlimit:4;stroke-dasharray:none;stroke-dashoffset:10.63;stroke-opacity:1;paint-order:fill markers stroke" />
  <path
     id="path1730"
     d="M 6.1095471,9.3621838 H 8.6536396"
     style="opacity:1;fill:none;stroke:#97bb72;stroke-width:0.491834;stroke-linecap:butt;stroke-linejoin:miter;stroke-miterlimit:4;stroke-dasharray:none;stroke-opacity:1" />
  <rect
     y="8.8208323"
     x="4.5939727"
     height="1.0827239"
     width="1.0655378"
     id="rect1732"
     style="opacity:1;fill:#97bb72;fill-opacity:1;stroke:none;stroke-width:0.272213;stroke-linecap:round;stroke-linejoin:bevel;stroke-miterlimit:4;stroke-dasharray:none;stroke-dashoffset:10.63;stroke-opacity:1;paint-order:stroke fill markers" />
  <path
     style="opacity:1;fill:none;stroke:#97bb72;stroke-width:0.491834;stroke-linecap:butt;stroke-linejoin:miter;stroke-miterlimit:4;stroke-dasharray:none;stroke-opacity:1"
     d="M 6.1095471,11.329519 H 9.1225487"
     id="path1736" />
  <rect
     style="opacity:1;fill:#97bb72;fill-opacity:1;stroke:none;stroke-width:0.272213;stroke-linecap:round;stroke-linejoin:bevel;stroke-miterlimit:4;stroke-dasharray:none;stroke-dashoffset:10.63;stroke-opacity:1;paint-order:stroke fill markers"
     id="rect1738"
     width="1.0655378"
     height="1.0827239"
     x="4.5939727"
     y="10.788164" />
  <path
     id="path1742"
     d="M 6.1095471,13.296855 H 8.8685562"
     style="opacity:1;fill:none;stroke:#97bb72;stroke-width:0.491834;stroke-linecap:butt;stroke-linejoin:miter;stroke-miterlimit:4;stroke-dasharray:none;stroke-opacity:1" />
  <rect
     y="12.755498"
     x="4.5939727"
     height="1.0827239"
     width="1.0655378"
     id="rect1744"
     style="opacity:1;fill:#97bb72;fill-opacity:1;stroke:none;stroke-width:0.272213;stroke-linecap:round;stroke-linejoin:bevel;stroke-miterlimit:4;stroke-dasharray:none;stroke-dashoffset:10.63;stroke-opacity:1;paint-order:stroke fill markers" />
  <path
     style="opacity:1;fill:none;stroke:#97bb72;stroke-width:0.491834;stroke-linecap:butt;stroke-linejoin:miter;stroke-miterlimit:4;stroke-dasharray:none;stroke-opacity:1"
     d="m 6.1095471,15.26419 h 2.329175"
     id="path1748" />
  <rect
     style="opacity:1;fill:#97bb72;fill-opacity:1;stroke:none;stroke-width:0.272213;stroke-linecap:round;stroke-linejoin:bevel;stroke-miterlimit:4;stroke-dasharray:none;stroke-dashoffset:10.63;stroke-opacity:1;paint-order:stroke fill markers"
     id="rect1750"
     width="1.0655378"
     height="1.0827239"
     x="4.5939727"
     y="14.722831" />
  <path
     id="path1754"
     d="M 6.1095471,17.231526 H 9.5719198"
     style="opacity:1;fill:none;stroke:#97bb72;stroke-width:0.491834;stroke-linecap:butt;stroke-linejoin:miter;stroke-miterlimit:4;stroke-dasharray:none;stroke-opacity:1" />
  <rect
     y="16.690163"
     x="4.5939727"
     height="1.0827239"
     width="1.0655378"
     id="rect1756"
     style="opacity:1;fill:#97bb72;fill-opacity:1;stroke:none;stroke-width:0.272213;stroke-linecap:round;stroke-linejoin:bevel;stroke-miterlimit:4;stroke-dasharray:none;stroke-dashoffset:10.63;stroke-opacity:1;paint-order:stroke fill markers" />
  <path
     style="opacity:1;fill:none;stroke:#97bb72;stroke-width:0.491834;stroke-linecap:butt;stroke-linejoin:miter;stroke-miterlimit:4;stroke-dasharray:none;stroke-opacity:1"
     d="M 6.1095471,19.198862 H 8.1065787"
     id="path1760" />
  <rect
     style="opacity:1;fill:#97bb72;fill-opacity:1;stroke:none;stroke-width:0.272213;stroke-linecap:round;stroke-linejoin:bevel;stroke-miterlimit:4;stroke-dasharray:none;stroke-dashoffset:10.63;stroke-opacity:1;paint-order:stroke fill markers"
     id="rect1762"
     width="1.0655378"
     height="1.0827239"
     x="4.5939727"
     y="18.657501" />
  <path
     id="path1766"
     d="M 6.1095471,21.166198 H 8.5950258"
     style="opacity:1;fill:none;stroke:#97bb72;stroke-width:0.491834;stroke-linecap:butt;stroke-linejoin:miter;stroke-miterlimit:4;stroke-dasharray:none;stroke-opacity:1" />
  <rect
     y="20.624836"
     x="4.5939727"
     height="1.0827239"
     width="1.0655378"
     id="rect1768"
     style="opacity:1;fill:#97bb72;fill-opacity:1;stroke:none;stroke-width:0.272213;stroke-linecap:round;stroke-linejoin:bevel;stroke-miterlimit:4;stroke-dasharray:none;stroke-dashoffset:10.63;stroke-opacity:1;paint-order:stroke fill markers" />
  <rect
     style="fill:#97bb72;fill-opacity:1;stroke:none;stroke-width:0.272213;stroke-linecap:round;stroke-linejoin:bevel;stroke-miterlimit:4;stroke-dasharray:none;stroke-dashoffset:10.63;stroke-opacity:1;paint-order:stroke fill markers"
     id="rect1750-2"
     width="1.0655378"
     height="1.0827239"
     x="-4.1369791"
     y="70.659401"
     transform="rotate(-90)" />
  <rect
     y="68.69207"
     x="-4.1369791"
     height="1.0827239"
     width="1.0655378"
     id="rect1756-3"
     style="fill:#97bb72;fill-opacity:1;stroke:none;stroke-width:0.272213;stroke-linecap:round;stroke-linejoin:bevel;stroke-miterlimit:4;stroke-dasharray:none;stroke-dashoffset:10.63;stroke-opacity:1;paint-order:stroke fill markers"
     transform="rotate(-90)" />
  <rect
     style="fill:#97bb72;fill-opacity:1;stroke:none;stroke-width:0.272213;stroke-linecap:round;stroke-linejoin:bevel;stroke-miterlimit:4;stroke-dasharray:none;stroke-dashoffset:10.63;stroke-opacity:1;paint-order:stroke fill markers"
     id="rect1762-7"
     width="1.0655378"
     height="1.0827239"
     x="-4.1369791"
     y="66.724731"
     transform="rotate(-90)" />
  <rect
     y="64.757393"
     x="-4.1369791"
     height="1.0827239"
     width="1.0655378"
     id="rect1768-5"
     style="fill:#97bb72;fill-opacity:1;stroke:none;stroke-width:0.272213;stroke-linecap:round;stroke-linejoin:bevel;stroke-miterlimit:4;stroke-dasharray:none;stroke-dashoffset:10.63;stroke-opacity:1;paint-order:stroke fill markers"
     transform="rotate(-90)" />
  <rect
     style="opacity:1;fill:#97bb72;fill-opacity:1;stroke:none;stroke-width:0.272213;stroke-linecap:round;stroke-linejoin:bevel;stroke-miterlimit:4;stroke-dasharray:none;stroke-dashoffset:10.63;stroke-opacity:1;paint-order:stroke fill markers"
     id="rect1000"
     width="1.0655378"
     height="1.0827239"
     x="4.5939727"
     y="6.853497" />
  <path
     id="path879"
     d="m 72.717873,3.5730904 h 7.448504"
     style="opacity:1;fill:none;stroke:#97bb72;stroke-width:0.491834;stroke-linecap:butt;stroke-linejoin:miter;stroke-miterlimit:4;stroke-dasharray:none;stroke-opacity:1" />
  <path
     id="path887"
     d="M 2.9866859,5.2845202 H 81.476406"
     style="fill:none;stroke:#97bb72;stroke-width:0.62132;stroke-linecap:butt;stroke-linejoin:miter;stroke-miterlimit:4;stroke-dasharray:none;stroke-opacity:1" />
  <path
     id="path1118"
     d="m 14.509503,43.967764 h 7.448504"
     style="opacity:1;fill:none;stroke:#97bb72;stroke-width:0.491834;stroke-linecap:butt;stroke-linejoin:miter;stroke-miterlimit:4;stroke-dasharray:none;stroke-opacity:1" />
  <path
     id="path1129"
     d="M 24.563676,43.967764 H 32.01218"
     style="opacity:1;fill:none;stroke:#97bb72;stroke-width:0.491834;stroke-linecap:butt;stroke-linejoin:miter;stroke-miterlimit:4;stroke-dasharray:none;stroke-opacity:1" />
  <rect
     y="17.85467"
     x="11.800908"
     height="9.0796385"
     width="6.852551"
     id="rect1728-6"
     style="fill:none;fill-opacity:1;stroke:#97bb72;stroke-width:0.324694;stroke-linecap:square;stroke-linejoin:miter;stroke-miterlimit:4;stroke-dasharray:none;stroke-dashoffset:10.63;stroke-opacity:1;paint-order:fill markers stroke" />
  <path
     id="path1730-2"
     d="M 14.125727,21.320704 H 16.66982"
     style="fill:none;stroke:#97bb72;stroke-width:0.491834;stroke-linecap:butt;stroke-linejoin:miter;stroke-miterlimit:4;stroke-dasharray:none;stroke-opacity:1" />
  <rect
     y="20.779352"
     x="12.610152"
     height="1.0827239"
     width="1.0655378"
     id="rect1732-9"
     style="fill:#97bb72;fill-opacity:1;stroke:none;stroke-width:0.272213;stroke-linecap:round;stroke-linejoin:bevel;stroke-miterlimit:4;stroke-dasharray:none;stroke-dashoffset:10.63;stroke-opacity:1;paint-order:stroke fill markers" />
  <path
     style="fill:none;stroke:#97bb72;stroke-width:0.491834;stroke-linecap:butt;stroke-linejoin:miter;stroke-miterlimit:4;stroke-dasharray:none;stroke-opacity:1"
     d="m 14.125727,23.288039 h 3.013002"
     id="path1736-1" />
  <rect
     style="fill:#97bb72;fill-opacity:1;stroke:none;stroke-width:0.272213;stroke-linecap:round;stroke-linejoin:bevel;stroke-miterlimit:4;stroke-dasharray:none;stroke-dashoffset:10.63;stroke-opacity:1;paint-order:stroke fill markers"
     id="rect1738-2"
     width="1.0655378"
     height="1.0827239"
     x="12.610152"
     y="22.746685" />
  <path
     id="path1742-7"
     d="m 14.125727,25.255375 h 2.759009"
     style="fill:none;stroke:#97bb72;stroke-width:0.491834;stroke-linecap:butt;stroke-linejoin:miter;stroke-miterlimit:4;stroke-dasharray:none;stroke-opacity:1" />
  <rect
     y="24.714022"
     x="12.610152"
     height="1.0827239"
     width="1.0655378"
     id="rect1744-0"
     style="fill:#97bb72;fill-opacity:1;stroke:none;stroke-width:0.272213;stroke-linecap:round;stroke-linejoin:bevel;stroke-miterlimit:4;stroke-dasharray:none;stroke-dashoffset:10.63;stroke-opacity:1;paint-order:stroke fill markers" />
  <path
     style="fill:none;stroke:#97bb72;stroke-width:0.491834;stroke-linecap:butt;stroke-linejoin:miter;stroke-miterlimit:4;stroke-dasharray:none;stroke-opacity:1"
     d="m 14.125727,19.353369 h 3.696827"
     id="path1187-79" />
  <rect
     style="fill:#97bb72;fill-opacity:1;stroke:none;stroke-width:0.272213;stroke-linecap:round;stroke-linejoin:bevel;stroke-miterlimit:4;stroke-dasharray:none;stroke-dashoffset:10.63;stroke-opacity:1;paint-order:stroke fill markers"
     id="rect1189-2"
     width="1.0655378"
     height="1.0827239"
     x="12.610152"
     y="18.812012" />
  <path
     style="fill:none;stroke:#97bb72;stroke-width:0.491834;stroke-linecap:butt;stroke-linejoin:miter;stroke-miterlimit:4;stroke-dasharray:none;stroke-opacity:1"
     d="M 5.8399159,3.5776081 H 9.5367408"
     id="path973-3" />
  <rect
     style="fill:#97bb72;fill-opacity:1;stroke:none;stroke-width:0.272213;stroke-linecap:round;stroke-linejoin:bevel;stroke-miterlimit:4;stroke-dasharray:none;stroke-dashoffset:10.63;stroke-opacity:1;paint-order:stroke fill markers"
     id="rect1000-6"
     width="1.0655378"
     height="1.0827239"
     x="4.3243399"
     y="3.0362561" />
  <path
     style="fill:none;stroke:#97bb72;stroke-width:0.579439;stroke-linecap:butt;stroke-linejoin:miter;stroke-miterlimit:4;stroke-dasharray:none;stroke-opacity:1"
     d="M 5.8399159,3.5776081 H 10.970977"
     id="path1187-7" />
  <rect
     style="fill:#97bb72;fill-opacity:1;stroke:none;stroke-width:0.272213;stroke-linecap:round;stroke-linejoin:bevel;stroke-miterlimit:4;stroke-dasharray:none;stroke-dashoffset:10.63;stroke-opacity:1;paint-order:stroke fill markers"
     id="rect1189-5"
     width="1.0655378"
     height="1.0827239"
     x="4.3243399"
     y="3.0362561" />
  <rect
     style="fill:#97bb72;fill-opacity:1;stroke:none;stroke-width:0.272213;stroke-linecap:round;stroke-linejoin:bevel;stroke-miterlimit:4;stroke-dasharray:none;stroke-dashoffset:10.63;stroke-opacity:1;paint-order:stroke fill markers"
     id="rect1189-5-0"
     width="1.0655378"
     height="1.0827239"
     x="79.399864"
     y="43.319839" />
  <path
     style="fill:none;stroke:#97bb72;stroke-width:0.539706;stroke-linecap:butt;stroke-linejoin:miter;stroke-miterlimit:4;stroke-dasharray:none;stroke-opacity:1"
     d="m 11.707522,3.5776081 h 4.451497"
     id="path1317" />
  <path
     style="fill:none;stroke:#97bb72;stroke-width:0.539706;stroke-linecap:butt;stroke-linejoin:miter;stroke-miterlimit:4;stroke-dasharray:none;stroke-opacity:1"
     d="m 16.844201,3.5776081 h 4.451497"
     id="path1328" />
  <g
     id="g1030"
     transform="matrix(0.57793767,0,0,0.57793767,23.839326,5.0295256)"
     style="stroke:none;stroke-opacity:1">
    <path
       style="opacity:0.2;stroke:none;stroke-opacity:1"
       d="M 46.289305,5 C 42.536858,5 39.432265,6.5051667 37.078053,8.6503906 35.750524,7.7032813 34.216268,7.0054619 32.677252,7 32.226398,6.9984 31.804745,7.031024 31.409291,7.083984 h -0.002 c -1.683615,0.2257036 -3.21641,1.0465182 -4.531449,2.0859379 L 23.672775,9.0097656 c -6.53e-4,-3.28e-5 -0.0013,3.26e-5 -0.002,0 -0.443345,-0.022159 -0.860273,-0.00523 -1.232849,0.03125 -0.860714,0.084294 -1.653489,0.2911459 -2.377915,0.5664063 -2.729654,1.0372821 -5.065103,3.6989291 -5.74484,6.2812501 -0.04927,0.187178 -0.005,0.338209 -0.04292,0.521484 -0.618472,0.188477 -1.226868,0.406711 -1.761491,0.701172 v 0.002 c -2.363812,1.302716 -4.4223373,4.366456 -4.5061395,7.117188 -0.083802,2.750731 0.9860919,4.664373 2.0892105,6.130859 0.857892,1.140483 1.873682,2.016059 3.013846,2.78125 -0.268978,0.719914 -0.607835,1.393253 -0.774431,2.177734 -1.370908,6.450305 1.23023,12.464038 5.089402,17.167969 C 21.281873,57.192212 26.889821,61 33.709177,61 c 4.187725,0 7.658744,-1.879571 10.426545,-4.425781 2.198039,-2.022063 4.103741,-4.588377 5.166509,-7.628968 1.043037,-2.416554 0.509441,-5.125687 0.126153,-7.477608 C 48.429598,35.372094 46.917939,28.697662 53.908778,20.498 55.244604,18.178704 56.618575,15.556868 55.703431,11.658156 55.245858,9.7088474 53.786233,7.5747483 51.924906,6.4375 50.063578,5.3002517 48.129266,5 46.289305,5 Z"
       id="path1007" />
    <path
       style="fill:#97bb72;stroke:none;stroke-opacity:1;fill-opacity:1"
       d="M 46.289305,4 C 42.536858,4 39.432265,5.5051667 37.078053,7.6503906 35.750524,6.7032813 34.216268,6.0054619 32.677252,6 32.226398,5.9984 31.804745,6.031024 31.409291,6.083984 h -0.002 c -1.683615,0.2257036 -3.21641,1.0465182 -4.531449,2.0859379 L 23.672775,8.0097656 c -6.53e-4,-3.28e-5 -0.0013,3.26e-5 -0.002,0 -0.443345,-0.022159 -0.860273,-0.00523 -1.232849,0.03125 -0.860714,0.084294 -1.653489,0.2911459 -2.377915,0.5664063 -2.729654,1.0372823 -5.065103,3.6989291 -5.74484,6.2812501 -0.04927,0.187178 -0.005,0.338209 -0.04292,0.521484 -0.618472,0.188477 -1.226868,0.406711 -1.761491,0.701172 v 0.002 c -2.363812,1.302716 -4.4223373,4.366456 -4.5061395,7.117188 -0.083802,2.750731 0.9860919,4.664373 2.0892105,6.130859 0.857892,1.140483 1.873682,2.016059 3.013846,2.78125 -0.268978,0.719914 -0.607835,1.393253 -0.774431,2.177734 -1.370908,6.450305 1.23023,12.464038 5.089402,17.167969 C 21.281873,56.192212 26.889821,60 33.709177,60 c 4.187725,0 7.658744,-1.879571 10.426545,-4.425781 2.198039,-2.022063 4.103741,-4.588377 5.166509,-7.628968 1.043037,-2.416554 0.509441,-5.125687 0.126153,-7.477608 C 48.429598,34.372094 46.917939,27.697662 53.908778,19.498 55.244604,17.178704 56.618575,14.556868 55.703431,10.658156 55.245858,8.7088474 53.786233,6.5747483 51.924906,5.4375 50.063578,4.3002517 48.129266,4 46.289305,4 Z"
       id="path1009" />
    <path
       style="opacity:0.2;stroke:none;stroke-opacity:1"
       d="m 46.336118,11 c -8.885687,0 -10.55143,13 -5.552735,13 4.997974,0 14.438785,-13 5.552735,-13 z m -13.650391,2 c -0.143399,-5.08e-4 -0.294254,0.01 -0.453125,0.03125 -5.08204,0.680429 -3.295859,9.796407 -0.589844,9.966797 2.620386,0.165068 5.488334,-9.98229 1.042969,-9.998047 z m -9.294922,2.001953 c -0.113577,-0.0057 -0.229883,-0.0021 -0.351563,0.0098 -0.259582,0.02533 -0.53863,0.09225 -0.835937,0.205078 -4.757779,1.805744 -0.721985,9.26075 1.943359,8.759765 2.422623,-0.45428 2.765032,-8.799158 -0.755859,-8.974609 z M 16.783383,22 c -0.42469,-0.01134 -0.886012,0.100148 -1.375,0.369141 -3.910133,2.15224 1.318625,7.353224 3.619141,6.546875 C 21.04048,28.210157 19.756217,22.079701 16.783383,22 Z m 18.578125,4 C 28.618865,25.880207 19.724059,29.434516 18.207211,36.568359 16.564409,44.288409 24.970329,55 33.740414,55 38.054845,55 43.032042,50.608569 43.963071,45.425781 44.303002,43.536422 42.195079,42.851239 39.93768,43 37.473049,43.162417 34.829905,44.30693 35.00018,45.671875 35.266568,47.808333 34.495768,48.96522 32.959164,49 30.861242,48.744789 29.276182,47.782199 29.00018,45.945312 28.624468,41.12182 44.114787,37.684343 42.916196,30.205078 42.477812,27.469543 39.407094,26.071878 35.361508,26 Z"
       id="path1011" />
    <path
       style="fill:#ffffff;stroke:none;stroke-opacity:1"
       d="m 46.336118,10 c -8.885687,0 -10.55143,13 -5.552735,13 4.997974,0 14.438785,-13 5.552735,-13 z m -13.650391,2 c -0.143399,-5.08e-4 -0.294254,0.01 -0.453125,0.03125 -5.08204,0.680429 -3.295859,9.796407 -0.589844,9.966797 2.620386,0.165068 5.488334,-9.98229 1.042969,-9.998047 z m -9.294922,2.001953 c -0.113577,-0.0057 -0.229883,-0.0021 -0.351563,0.0098 -0.259582,0.02533 -0.53863,0.09225 -0.835937,0.205078 -4.757779,1.805744 -0.721985,9.26075 1.943359,8.759765 2.422623,-0.45428 2.765032,-8.799158 -0.755859,-8.974609 z M 16.783383,21 c -0.42469,-0.01134 -0.886012,0.100148 -1.375,0.369141 -3.910133,2.15224 1.318625,7.353224 3.619141,6.546875 C 21.04048,27.210157 19.756217,21.079701 16.783383,21 Z m 18.578125,4 C 28.618865,24.880207 19.724059,28.434516 18.207211,35.568359 16.564409,43.288409 24.970329,54 33.740414,54 38.054845,54 43.032042,49.608569 43.963071,44.425781 44.303002,42.536422 42.195079,41.851239 39.93768,42 37.473049,42.162417 34.829905,43.30693 35.00018,44.671875 35.266568,46.808333 34.495768,47.96522 32.959164,48 30.861242,47.744789 29.276182,46.782199 29.00018,44.945312 28.624468,40.12182 44.114787,36.684343 42.916196,29.205078 42.477812,26.469543 39.407094,25.071878 35.361508,25 Z"
       id="path1013" />
    <path
       style="opacity:0.2;fill:#ffffff;stroke:none;stroke-opacity:1"
       d="M 46.289062,4 C 42.536616,4 39.432337,5.5051667 37.078125,7.6503906 35.750596,6.7032813 34.21675,6.0054619 32.677734,6 32.22688,5.9984 31.80561,6.0310244 31.410156,6.0839844 h -0.002 C 29.724588,6.309688 28.190039,7.1305022 26.875,8.1699219 L 23.671875,8.0097656 c 0,0 -0.002,0 -0.002,0 -0.443345,-0.022159 -0.859846,-0.00523 -1.232422,0.03125 -0.860714,0.084294 -1.652527,0.2911459 -2.376953,0.5664063 -2.729654,1.0372823 -5.066357,3.6989291 -5.746094,6.2812501 -0.04927,0.187178 -0.005,0.338209 -0.04297,0.521484 -0.618472,0.188477 -1.225142,0.406711 -1.759765,0.701172 v 0.002 c -2.363812,1.302716 -4.4240106,4.366456 -4.5078128,7.117188 -0.00891,0.292395 0.00176,0.569803 0.017578,0.84375 0.1542047,-2.710028 2.1706708,-5.682607 4.4902348,-6.960938 v -0.002 c 0.534623,-0.294461 1.141293,-0.512695 1.759765,-0.701172 0.03792,-0.183275 -0.0063,-0.334306 0.04297,-0.521484 0.679737,-2.582321 3.01644,-5.243968 5.746094,-6.2812501 0.724426,-0.2752604 1.516239,-0.4821123 2.376953,-0.5664063 0.372576,-0.03648 0.789077,-0.053409 1.232422,-0.03125 0,0 0.002,0 0.002,0 L 26.875,9.1699219 C 28.190039,8.1305022 29.724588,7.309688 31.408203,7.0839844 h 0.002 C 31.80561,7.0310244 32.22688,6.9984 32.677734,7 34.21675,7.0054619 35.750596,7.7032813 37.078125,8.6503906 39.432337,6.5051667 42.536616,5 46.289062,5 c 1.839962,0 3.775391,0.3002517 5.636719,1.4375 1.861327,1.1372483 3.319771,3.2713945 3.777344,5.220703 0.168399,0.717418 0.237749,1.378609 0.265625,2.015625 0.05491,-0.920827 -0.0067,-1.912383 -0.265625,-3.015625 C 55.245552,8.7088945 53.787108,6.5747483 51.925781,5.4375 50.064453,4.3002517 48.129024,4 46.289062,4 Z M 12.796875,32.919922 c -0.182686,0.448846 -0.357115,0.902303 -0.462891,1.40039 -0.290055,1.364751 -0.393377,2.707998 -0.353515,4.025391 0.02869,-0.995856 0.136474,-2.004184 0.353515,-3.025391 0.166596,-0.78448 0.50446,-1.45782 0.773438,-2.177734 -0.106486,-0.07147 -0.206258,-0.149139 -0.310547,-0.222656 z m 35.775391,0.599609 c -0.05173,2.792714 0.441498,5.420824 0.855468,7.947266 0.190959,1.171756 0.420641,2.43244 0.472657,3.701172 0.06986,-1.600547 -0.231531,-3.221587 -0.472657,-4.701172 -0.364306,-2.223348 -0.792184,-4.523963 -0.855468,-6.947266 z"
       id="path1015" />
  </g>
</svg>
