<?xml version="1.0" encoding="UTF-8" standalone="no"?>
<svg
   xmlns:dc="http://purl.org/dc/elements/1.1/"
   xmlns:cc="http://creativecommons.org/ns#"
   xmlns:rdf="http://www.w3.org/1999/02/22-rdf-syntax-ns#"
   xmlns:svg="http://www.w3.org/2000/svg"
   xmlns="http://www.w3.org/2000/svg"
   xmlns:xlink="http://www.w3.org/1999/xlink"
   xmlns:sodipodi="http://sodipodi.sourceforge.net/DTD/sodipodi-0.dtd"
   xmlns:inkscape="http://www.inkscape.org/namespaces/inkscape"
   width="320"
   height="180"
   viewBox="0 0 84.666663 47.625001"
   version="1.1"
   id="svg8"
   inkscape:version="1.0.2 (e86c870879, 2021-01-15)"
   sodipodi:docname="eleven-no-indicators-logo.svg"
   inkscape:export-filename="/home/kunruh/src/mate-layouts/data/layout-previews/default.png"
   inkscape:export-xdpi="96"
   inkscape:export-ydpi="96">
  <defs
     id="defs2">
    <linearGradient
       inkscape:collect="always"
       id="linearGradient3434">
      <stop
         style="stop-color:#9cff10;stop-opacity:1;"
         offset="0"
         id="stop3430" />
      <stop
         style="stop-color:#9cff10;stop-opacity:0;"
         offset="1"
         id="stop3432" />
    </linearGradient>
    <style
       id="current-color-scheme"
       type="text/css">
   .ColorScheme-Text { color:#dfdfdf; } .ColorScheme-Highlight { color:#4285f4; }
  </style>
    <style
       id="current-color-scheme-0"
       type="text/css">
   .ColorScheme-Text { color:#dfdfdf; } .ColorScheme-Highlight { color:#4285f4; }
  </style>
    <style
       id="current-color-scheme-7"
       type="text/css">
   .ColorScheme-Text { color:#dfdfdf; } .ColorScheme-Highlight { color:#4285f4; }
  </style>
    <style
       id="current-color-scheme-8"
       type="text/css">
   .ColorScheme-Text { color:#dfdfdf; } .ColorScheme-Highlight { color:#4285f4; }
  </style>
    <style
       id="current-color-scheme-2"
       type="text/css">
   .ColorScheme-Text { color:#dfdfdf; } .ColorScheme-Highlight { color:#4285f4; }
  </style>
    <filter
       style="color-interpolation-filters:sRGB"
       inkscape:label="Greyscale"
       id="filter939">
      <feColorMatrix
         values="0.21 0.72 0.072 1.5 0 0.21 0.72 0.072 1.5 0 0.21 0.72 0.072 1.5 0 0 0 0 1 0 "
         id="feColorMatrix937" />
    </filter>
    <filter
       style="color-interpolation-filters:sRGB"
       inkscape:label="Lightness-Contrast"
       id="filter2112">
      <feColorMatrix
         values="1 0 0 0.15 -0 0 1 0 0.15 -0 0 0 1 0.15 -0 0 0 0 1 0"
         id="feColorMatrix2110" />
    </filter>
    <filter
       style="color-interpolation-filters:sRGB"
       inkscape:label="Lightness-Contrast"
       id="filter2116">
      <feColorMatrix
         values="1 0 0 0.15 -0 0 1 0 0.15 -0 0 0 1 0.15 -0 0 0 0 1 0"
         id="feColorMatrix2114" />
    </filter>
    <filter
       style="color-interpolation-filters:sRGB"
       inkscape:label="Lightness-Contrast"
       id="filter2120">
      <feColorMatrix
         values="1 0 0 0.15 -0 0 1 0 0.15 -0 0 0 1 0.15 -0 0 0 0 1 0"
         id="feColorMatrix2118" />
    </filter>
    <filter
       style="color-interpolation-filters:sRGB"
       inkscape:label="Lightness-Contrast"
       id="filter2124">
      <feColorMatrix
         values="1 0 0 0.15 -0 0 1 0 0.15 -0 0 0 1 0.15 -0 0 0 0 1 0"
         id="feColorMatrix2122" />
    </filter>
    <filter
       style="color-interpolation-filters:sRGB"
       inkscape:label="Lightness-Contrast"
       id="filter2128">
      <feColorMatrix
         values="1 0 0 0.15 -0 0 1 0 0.15 -0 0 0 1 0.15 -0 0 0 0 1 0"
         id="feColorMatrix2126" />
    </filter>
    <filter
       style="color-interpolation-filters:sRGB"
       inkscape:label="Lightness-Contrast"
       id="filter2132">
      <feColorMatrix
         values="1 0 0 0.15 -0 0 1 0 0.15 -0 0 0 1 0.15 -0 0 0 0 1 0"
         id="feColorMatrix2130" />
    </filter>
    <filter
       style="color-interpolation-filters:sRGB"
       inkscape:label="Lightness-Contrast"
       id="filter2136">
      <feColorMatrix
         values="1 0 0 0.15 -0 0 1 0 0.15 -0 0 0 1 0.15 -0 0 0 0 1 0"
         id="feColorMatrix2134" />
    </filter>
    <radialGradient
       inkscape:collect="always"
       xlink:href="#linearGradient3434"
       id="radialGradient3436"
       cx="34.884972"
       cy="47.383316"
       fx="34.884972"
       fy="47.383316"
       r="0.27161914"
       gradientUnits="userSpaceOnUse"
       gradientTransform="matrix(1.06993,-3.2220754e-6,3.1439302e-6,1.0439809,-2.4860901,-2.1836251)" />
    <radialGradient
       inkscape:collect="always"
       xlink:href="#linearGradient3434"
       id="radialGradient3455"
       gradientUnits="userSpaceOnUse"
       gradientTransform="matrix(2.0371532,-9.4498635e-6,9.2840308e-6,2.0014038,-36.227937,-47.549277)"
       cx="34.884972"
       cy="47.383316"
       fx="34.884972"
       fy="47.383316"
       r="0.27161914" />
    <radialGradient
       inkscape:collect="always"
       xlink:href="#linearGradient3434"
       id="radialGradient3513"
       gradientUnits="userSpaceOnUse"
       gradientTransform="matrix(2.0371532,-9.4498635e-6,9.2840308e-6,2.0014038,-26.243922,-47.549277)"
       cx="34.884972"
       cy="47.383316"
       fx="34.884972"
       fy="47.383316"
       r="0.27161914" />
    <radialGradient
       inkscape:collect="always"
       xlink:href="#linearGradient3434"
       id="radialGradient3515"
       gradientUnits="userSpaceOnUse"
       gradientTransform="matrix(1.06993,-3.2220754e-6,3.1439302e-6,1.0439809,7.497919,-2.1836251)"
       cx="34.884972"
       cy="47.383316"
       fx="34.884972"
       fy="47.383316"
       r="0.27161914" />
  </defs>
  <sodipodi:namedview
     id="base"
     pagecolor="#ffffff"
     bordercolor="#666666"
     borderopacity="1.0"
     inkscape:pageopacity="0.0"
     inkscape:pageshadow="2"
     inkscape:zoom="2"
     inkscape:cx="68.445379"
     inkscape:cy="67.221032"
     inkscape:document-units="px"
     inkscape:current-layer="layer1"
     inkscape:document-rotation="0"
     showgrid="false"
     inkscape:snap-bbox="false"
     inkscape:snap-page="true"
     inkscape:window-width="1691"
     inkscape:window-height="905"
     inkscape:window-x="0"
     inkscape:window-y="26"
     inkscape:window-maximized="0"
     units="px" />
  <metadata
     id="metadata5">
    <rdf:RDF>
      <cc:Work
         rdf:about="">
        <dc:format>image/svg+xml</dc:format>
        <dc:type
           rdf:resource="http://purl.org/dc/dcmitype/StillImage" />
        <dc:title />
      </cc:Work>
    </rdf:RDF>
  </metadata>
  <g
     inkscape:label="Layer 1"
     inkscape:groupmode="layer"
     id="layer1">
    <rect
       style="fill:#deddda;fill-opacity:1;stroke:none;stroke-width:0.030294;stroke-miterlimit:4;stroke-dasharray:none;stroke-opacity:1"
       id="rect1593"
       width="84.666672"
       height="44.386665"
       x="-8.5063912e-06"
       y="3.2377098" />
    <path
       style="opacity:0.5;fill:#000000;fill-opacity:1;stroke-width:4.55806"
       d="m 54.261001,8.6392702 c -2.317891,0.080818 -5.120801,1.2785969 -6.781092,2.9089678 -1.487728,1.447808 -2.788924,3.755361 -2.439142,5.969384 2.583722,0.169211 5.214071,-1.100294 6.823057,-2.730766 1.608938,-1.634866 2.690997,-3.884567 2.397177,-6.1475858 z M 52.16231,17.562173 c -2.905516,-0.276126 -4.262673,1.617018 -5.736411,1.617018 -1.473737,0 -3.749655,-1.572569 -6.156151,-1.527951 -3.166685,0.04378 -6.095989,1.732907 -7.726435,4.410215 -3.290276,5.390276 -0.838547,13.377682 2.368252,17.747808 1.566559,2.13829 3.483356,4.468135 5.894516,4.468135 2.411159,0 3.255297,-1.456732 6.109513,-1.456732 2.85887,0 2.233933,1.456732 4.757031,1.456732 2.523081,0 3.689022,-2.240745 5.246708,-4.38794 1.800222,-2.481309 2.056715,-4.521592 2.056715,-4.521592 0,0 -4.626436,-2.280848 -4.673074,-7.608761 -0.04714,-4.459227 4.673074,-6.708876 4.673074,-6.708876 -2.191967,-3.024788 -5.596495,-3.439095 -6.813738,-3.488091 z"
       id="path1001" />
    <rect
       style="fill:#222222;fill-opacity:1;stroke-width:0.111193"
       id="rect32"
       width="84.666679"
       height="3.23771"
       x="-8.5063912e-06"
       y="-1.3328261e-07" />
    <path
       style="fill:currentColor;stroke-width:0.116674"
       class="ColorScheme-Text"
       d="m 65.516459,0.91455068 c 0,0 -0.116673,0 -0.116673,0.11667372 v 1.0500651 c 0,0.1166738 0.116673,0.1166738 0.116673,0.1166738 h 0.233349 l 0.116672,0.1166742 h 0.700044 l 0.116672,-0.1166742 h 0.23335 c 0,0 0.116672,0.015169 0.116672,-0.1166738 V 1.0312244 c 0,-0.11667372 -0.116672,-0.11667372 -0.116672,-0.11667372 z m 0.116672,0.23334752 h 1.166742 V 1.9646158 H 66.566524 L 66.449852,2.0812895 H 65.983153 L 65.86648,1.9646158 h -0.233349 z"
       id="path864" />
    <path
       style="fill:currentColor;stroke-width:0.116674"
       class="ColorScheme-Text"
       d="M 63.652619,0.77169883 63.18592,1.2383943 h -0.350022 v 0.7000434 h 0.350022 l 0.466699,0.4666959 z m 0.233345,0 v 0.17501085 c 0.270686,0.0863388 0.466698,0.34185442 0.466698,0.64170632 0,0.2998518 -0.196012,0.5553679 -0.466698,0.6417067 v 0.1750109 c 0.367524,-0.091006 0.641707,-0.4200261 0.641707,-0.8167176 0,-0.3966911 -0.274183,-0.72571153 -0.641707,-0.81671717 z m 0,0.46669547 v 0.7000434 c 0.123675,-0.067671 0.208729,-0.1983454 0.208729,-0.3500217 0,-0.1516759 -0.08389,-0.2823506 -0.208729,-0.3500217 z"
       id="path877" />
    <g
       id="g916"
       transform="matrix(0.11667392,0,0,0.1166739,60.138515,0.68198224)">
      <path
         style="fill:currentColor"
         class="ColorScheme-Text"
         d="M 8,0 C 6.3379,0 5,1.3381 5,3 V 8.002 C 5,9.664 6.3379,11 8,11 9.662,11 11,9.664 11,8.002 V 3 C 11,1.3381 9.662,0 8,0 Z"
         id="path903" />
      <path
         style="fill:currentColor"
         class="ColorScheme-Text"
         d="M 2,7 V 7.999 C 2,10.965 4,14 7,14 v 2 h 2 v -2 c 3,0 5,-3.035 5,-6.001 V 7 H 12 V 7.999 C 12,10.233 10.233,12 8,12 5.7666,12 4,10.233 4,7.999 V 7 Z"
         id="path905" />
    </g>
    <g
       id="g993"
       transform="matrix(0.15384219,0,0,0.15384216,0.29661577,0.26853088)">
      <rect
         style="fill:currentColor"
         class="ColorScheme-Text"
         width="2"
         height="2"
         x="3"
         y="3"
         rx="0.5"
         ry="0.5"
         id="rect959" />
      <rect
         style="fill:currentColor"
         class="ColorScheme-Text"
         width="2"
         height="2"
         x="7"
         y="3"
         rx="0.5"
         ry="0.5"
         id="rect961" />
      <rect
         style="fill:currentColor"
         class="ColorScheme-Text"
         width="2"
         height="2"
         x="11"
         y="3"
         rx="0.5"
         ry="0.5"
         id="rect963" />
      <rect
         style="fill:currentColor"
         class="ColorScheme-Text"
         width="2"
         height="2"
         x="3"
         y="7"
         rx="0.5"
         ry="0.5"
         id="rect965" />
      <rect
         style="fill:currentColor"
         class="ColorScheme-Text"
         width="2"
         height="2"
         x="7"
         y="7"
         rx="0.5"
         ry="0.5"
         id="rect967" />
      <rect
         style="fill:currentColor"
         class="ColorScheme-Text"
         width="2"
         height="2"
         x="11"
         y="7"
         rx="0.5"
         ry="0.5"
         id="rect969" />
      <rect
         style="fill:currentColor"
         class="ColorScheme-Text"
         width="2"
         height="2"
         x="3"
         y="11"
         rx="0.5"
         ry="0.5"
         id="rect971" />
      <rect
         style="fill:currentColor"
         class="ColorScheme-Text"
         width="2"
         height="2"
         x="7"
         y="11"
         rx="0.5"
         ry="0.5"
         id="rect973" />
      <rect
         style="fill:currentColor"
         class="ColorScheme-Text"
         width="2"
         height="2"
         x="11"
         y="11"
         rx="0.5"
         ry="0.5"
         id="rect975" />
    </g>
    <rect
       style="fill:#7f7f7f;fill-opacity:1;stroke:#565656;stroke-width:0.195556;stroke-miterlimit:4;stroke-dasharray:none;stroke-opacity:1"
       id="rect32-6"
       width="39.453671"
       height="0.33897027"
       x="22.606497"
       y="47.28603" />
    <text
       xml:space="preserve"
       style="font-style:normal;font-variant:normal;font-weight:normal;font-stretch:normal;font-size:1.55565px;line-height:1.25;font-family:'Fira Code';-inkscape-font-specification:'Fira Code, Normal';font-variant-ligatures:normal;font-variant-caps:normal;font-variant-numeric:normal;font-variant-east-asian:normal;letter-spacing:0.132292px;fill:#ffffff;fill-opacity:1;stroke:#fffdff;stroke-width:0.0504256;stroke-opacity:1"
       x="68.921425"
       y="2.0695868"
       id="text859-3"><tspan
         sodipodi:role="line"
         id="tspan857-6"
         x="68.921425"
         y="2.0695868"
         style="font-style:normal;font-variant:normal;font-weight:300;font-stretch:normal;font-size:1.55565px;font-family:'Fira Code';-inkscape-font-specification:'Fira Code, Light';font-variant-ligatures:normal;font-variant-caps:normal;font-variant-numeric:normal;font-variant-east-asian:normal;fill:#ffffff;fill-opacity:1;stroke:#fffdff;stroke-width:0.0504256;stroke-opacity:1">Fr 25 Dez, 16:04</tspan></text>
    <text
       xml:space="preserve"
       style="font-style:normal;font-variant:normal;font-weight:normal;font-stretch:normal;font-size:1.55565px;line-height:1.25;font-family:'Fira Code';-inkscape-font-specification:'Fira Code, Normal';font-variant-ligatures:normal;font-variant-caps:normal;font-variant-numeric:normal;font-variant-east-asian:normal;letter-spacing:0px;fill:#ffffff;fill-opacity:1;stroke:#fffdff;stroke-width:0.0504256;stroke-opacity:1"
       x="4.0023518"
       y="2.031389"
       id="text859-8"><tspan
         sodipodi:role="line"
         id="tspan954"
         x="4.0023518"
         y="2.031389"
         style="font-style:normal;font-variant:normal;font-weight:300;font-stretch:normal;font-size:1.55565px;font-family:'Fira Code';-inkscape-font-specification:'Fira Code, Light';font-variant-ligatures:normal;font-variant-caps:normal;font-variant-numeric:normal;font-variant-east-asian:normal;stroke-width:0.0504256">Inkscape</tspan></text>
    <path
       style="fill:none;stroke:#e5e5e5;stroke-width:0.0264583;stroke-linecap:butt;stroke-linejoin:miter;stroke-miterlimit:4;stroke-dasharray:none;stroke-opacity:1"
       d="M 3.2211466,2.3844274 V 0.72727051"
       id="path1257" />
    <path
       style="fill:none;stroke:#e5e5e5;stroke-width:0.0264583;stroke-linecap:butt;stroke-linejoin:miter;stroke-miterlimit:4;stroke-dasharray:none;stroke-opacity:1"
       d="M 3.3644443,2.3844274 V 0.72727051"
       id="path1270" />
    <g
       id="g1442"
       transform="translate(0.92254992,21.07313)">
      <g
         id="g950"
         transform="matrix(0.17606295,0,0,0.18863897,36.832168,21.454513)">
        <path
           style="opacity:0.2"
           d="m 3,2.5 h 18 c 0.554,0 1,0.446 1,1 v 13.450693 l -1.386749,3.817412 c -0.189157,0.520707 -0.808633,1.022121 -1.346687,1.154083 L 16.910632,22.5 H 3 c -0.554,0 -1,-0.446 -1,-1 v -18 c 0,-0.554 0.446,-1 1,-1 z"
           id="path912" />
        <path
           style="fill:#666666"
           d="m 18.303544,21.152542 c 0.267998,-0.484864 2.342224,-0.05909 2.540832,-0.576271 L 22,17.567026 V 12 H 11 v 10 h 6.835131 z"
           id="path914" />
        <path
           style="fill:#8c8c8c"
           d="M 3,22 C 2.446,22 2,21.554 2,21 V 11 h 10 v 11 z"
           id="path916" />
        <path
           style="fill:#a6a6a6"
           d="M 2,12 V 3 C 2,2.446 2.446,2 3,2 h 10 v 10 z"
           id="path918" />
        <path
           style="fill:#595959"
           d="M 12,2 V 12 H 22 V 3 C 22,2.446 21.554,2 21,2 Z"
           id="path920" />
        <path
           style="opacity:0.2;fill:#ffffff"
           d="M 2,3.5 V 3 C 2,2.446 2.446,2 3,2 h 18 c 0.554,0 1,0.446 1,1 v 0.5 c 0,-0.554 -0.446,-1 -1,-1 H 3 c -0.554,0 -1,0.446 -1,1 z"
           id="path922" />
        <circle
           style="fill:#07ce8e"
           cx="17"
           cy="17"
           r="6"
           id="circle924" />
        <path
           style="fill:#ffffff"
           d="m 15,15 v 1 h 4 v -1 z m 0,2 v 1 h 4 v -1 z"
           id="path926" />
        <path
           style="opacity:0.2"
           d="M 7,6 V 7.5 H 5.5 v 1 H 7 V 10 H 8 V 8.5 h 1.5 v -1 H 8 V 6 Z m 8,1.5 v 1 h 4 v -1 z M 5.7070312,15.085938 5,15.792969 5.3535156,16.146484 6.5,17.292969 5.3535156,18.439453 5,18.792969 5.7070312,19.5 6.0605469,19.146484 7.2070312,18 8.3535156,19.146484 8.7070312,19.5 9.4140625,18.792969 9.0605469,18.439453 7.9140625,17.292969 9.0605469,16.146484 9.4140625,15.792969 8.7070312,15.085938 8.3535156,15.439453 7.2070312,16.585938 6.0605469,15.439453 Z"
           id="path928" />
        <path
           style="fill:#ffffff"
           d="M 7,5.5 V 7 H 5.5 V 8 H 7 V 9.5 H 8 V 8 H 9.5 V 7 H 8 V 5.5 Z M 15,7 v 1 h 4 V 7 Z M 5.7070312,14.585938 5,15.292969 5.3535156,15.646484 6.5,16.792969 5.3535156,17.939453 5,18.292969 5.7070312,19 6.0605469,18.646484 7.2070312,17.5 8.3535156,18.646484 8.7070312,19 9.4140625,18.292969 9.0605469,17.939453 7.9140625,16.792969 9.0605469,15.646484 9.4140625,15.292969 8.7070312,14.585938 8.3535156,14.939453 7.2070312,16.085938 6.0605469,14.939453 Z"
           id="path930" />
      </g>
      <g
         id="g983"
         transform="matrix(0.19459589,0,0,0.18863897,31.650254,21.454513)">
        <path
           style="fill:#e4e4e4"
           d="M 20,21 V 3 C 20,2.446 19.554,2 19,2 H 5 C 4.446,2 4,2.446 4,3 v 18 c 0,0.554 0.446,1 1,1 h 14 c 0.554,0 1,-0.446 1,-1 z"
           id="path960" />
        <path
           style="opacity:0.2"
           d="m 4,21 v 0.5 c 0,0.554 0.446,1 1,1 h 14 c 0.554,0 1,-0.446 1,-1 V 21 c 0,0.554 -0.446,1 -1,1 H 5 C 4.446,22 4,21.554 4,21 Z"
           id="path962" />
        <circle
           style="fill:#f34235"
           cx="17.5"
           cy="17.5"
           r="5.5"
           id="circle964" />
        <path
           style="fill:#ffffff"
           d="m 19.005859,15 c -0.07585,0 -0.152037,0.02899 -0.210937,0.08789 l -0.582031,0.585937 1.113281,1.113281 0.585937,-0.582031 c 0.117796,-0.117796 0.117796,-0.302123 0,-0.419922 L 19.214844,15.087891 C 19.155946,15.028993 19.081712,15 19.005859,15 Z m -1.5,1.380859 L 15,18.886719 V 20 h 1.113281 l 2.50586,-2.505859 z"
           id="path966" />
        <path
           style="opacity:0.2;fill:#ffffff"
           d="M 5,2 C 4.446,2 4,2.446 4,3 v 0.5 c 0,-0.554 0.446,-1 1,-1 h 14 c 0.554,0 1,0.446 1,1 V 3 C 20,2.446 19.554,2 19,2 Z"
           id="path968" />
      </g>
      <g
         id="g1139"
         transform="matrix(0.13204721,0,0,0.13204728,41.675856,21.699743)">
        <path
           style="opacity:0.2"
           d="M 7.1685502,12.034826 C 3.8936196,14.56741 2,12.735223 2,17.163552 2,24.805211 8.2680136,31 16,31 c 7.731986,0 14,-6.194789 14,-13.836448 0,-3.557712 -1.358669,-6.801823 -3.591104,-9.2531763 0.04976,-0.00189 -0.208769,-0.2006295 -0.342053,-0.1510295 0.933267,1.546912 1.47043,3.3596838 1.47043,5.2980428 0,5.672532 -3.15483,11.292157 -8.827363,11.292157 -3.643432,0.17685 -8.496885,-2.152368 -9.2439042,-4.331961 -0.4819559,-1.406213 -0.3602998,-2.985566 0.9509522,-3.859822 0.712229,-0.452115 1.750599,-0.898515 3.393382,-0.950936 1.500678,-0.986933 0.770502,-0.874672 0.698316,-1.173477 C 14.04248,13.905876 13.214975,13.729712 12.072429,12.830484 11.060463,12.034026 10.590446,11.732022 7.641371,11.704475 7.0842357,10.631677 7.2231587,13.308634 7.1685502,12.034826 Z"
           id="path1099" />
        <path
           style="fill:#ffde3f"
           d="m 20.402474,1 c 0.59057,1.5721706 2.726226,3.5997298 5.543129,7.2075006 2.385645,3.0554354 2.659053,6.4644184 3.540982,9.5294844 l -6.628858,5.705436 -7.487756,-7.686744 C 15.336351,10.645545 14.109805,5.2768345 20.402474,1 Z"
           id="path1101" />
        <path
           style="opacity:0.2;fill:#ffffff"
           d="M 20.402344,1 C 15.53636,4.307183 15.169591,8.2673168 15.267578,12.255859 15.275423,8.6095832 15.943703,5.0303308 20.402344,2 c 0.59057,1.5721706 2.726066,3.5992605 5.542968,7.2070312 2.177053,2.7882788 2.607296,5.8599468 3.333985,8.7070308 l 0.207031,-0.177734 C 28.604399,14.671262 28.330958,11.262467 25.945312,8.2070312 23.12841,4.5992605 20.992914,2.5721706 20.402344,1 Z"
           id="path1103" />
        <path
           style="fill:#ff750e"
           d="m 6.769,10.199763 c 0.9725357,-0.9650152 2.5605798,-3.2120889 4.455366,-3.8349985 -0.509057,2.713323 0.150891,3.5757204 0.479375,4.9629395 L 8.6583009,10.538145 Z"
           id="path1105" />
        <circle
           style="fill:#8357cd"
           cx="16"
           cy="16"
           r="7"
           id="circle1107" />
        <path
           style="fill:#ffba36"
           d="m 18.217615,11.064705 c -0.09957,9.8e-4 -0.199095,0.0045 -0.298481,0.0106 2.027346,0.95169 3.323024,2.988288 3.325971,5.227895 -0.0015,3.077098 -2.412109,5.68455 -5.485105,5.843392 0.768412,0.363591 1.607527,0.483041 2.457615,0.485408 3.194219,2.9e-5 5.783672,-2.589367 5.783714,-5.783586 2.9e-5,-3.194269 -2.589445,-5.783743 -5.783714,-5.783714 z"
           id="path1109" />
        <path
           id="ellipse841"
           style="fill:#f74e66"
           d="M 7.1685502,11.034826 C 3.8936196,13.56741 2,11.735223 2,16.163552 2,23.805211 8.2680136,30 16,30 23.731986,30 30,23.805211 30,16.163552 30,12.60584 28.641331,9.3617287 26.408896,6.9103757 c 0.04976,-0.00189 -0.208769,-0.2006295 -0.342053,-0.1510295 0.933267,1.546912 1.47043,3.3596838 1.47043,5.2980428 0,5.672532 -3.15483,11.292157 -8.827363,11.292157 -3.643432,0.17685 -8.496885,-2.152368 -9.2439042,-4.331961 -0.4819559,-1.406213 -0.3602998,-2.985566 0.9509522,-3.859822 0.712229,-0.452115 1.750599,-0.898515 3.393382,-0.950936 1.500678,-0.986933 0.770502,-0.874672 0.698316,-1.173477 C 14.04248,12.905876 13.214975,12.729712 12.072429,11.830484 11.060463,11.034026 10.590446,10.732022 7.641371,10.704475 7.0842357,9.6316772 7.2231587,12.308634 7.1685502,11.034826 Z" />
        <path
           style="opacity:0.1"
           d="M 6.9797028,6.2606938 C 3.8449581,8.6848684 2.1872001,12.402051 2.0163507,16.599386 2.1956124,23.031886 8.0675269,28 15.29997,28 c 7.345402,0 13.300027,-5.127827 13.300027,-11.700029 0,-1.771243 -0.435662,-3.45099 -1.211331,-4.961533 0.0944,0.559484 0.149024,1.132208 0.149024,1.718558 C 27.53769,18.729528 22.938523,23 17.26599,23 13.622558,23.176851 10.881745,21.492852 10.134726,19.313259 9.6527703,17.907045 9.8105849,17.313681 11.121837,16.439425 11.834066,15.98731 12.836874,15.681102 14.479656,15.628681 15.980334,14.641748 16.0954,14.262248 16.023214,13.963443 15.557038,13.835969 14.271419,13.342356 13.128873,12.443127 12.116905,11.64667 10.437372,10.041506 7.4882972,10.013959 6.9311619,8.9411613 7.0343113,7.5345016 6.9797028,6.2606938 Z"
           id="path1112" />
        <path
           style="fill:#ff7f1f"
           d="M 6.9797028,5.2606938 C 3.8449581,7.6848684 2.1872001,11.402051 2.0163507,15.599386 2.1956124,22.031886 8.0675269,27 15.29997,27 c 7.345402,0 13.300027,-5.127827 13.300027,-11.700029 0,-1.771243 -0.435662,-3.45099 -1.211331,-4.961533 0.0944,0.559484 0.149024,1.132208 0.149024,1.718558 C 27.53769,17.729528 22.938523,22 17.26599,22 13.622558,22.176851 10.881745,20.492852 10.134726,18.313259 9.6527703,16.907045 9.8105849,16.313681 11.121837,15.439425 11.834066,14.98731 12.836874,14.681102 14.479656,14.628681 15.980334,13.641748 16.0954,13.262248 16.023214,12.963443 15.557038,12.835969 14.271419,12.342356 13.128873,11.443127 12.116905,10.64667 10.437372,9.0415061 7.4882972,9.0139589 6.9311619,7.9411613 7.0343113,6.5345016 6.9797028,5.2606938 Z"
           id="path1114" />
        <path
           style="fill:#ffba36"
           d="m 8.2558594,12.003906 c -0.9527271,-0.02067 -1.755464,0.307406 -2.3925782,0.742188 -0.1141183,0.114119 0.9078193,2.17878 3.0371094,2.201172 C 8.7032464,18.382039 11.273779,20.893617 13,21.390625 l 0.757812,0.138672 C 11.923025,20.899858 10.614417,19.71199 10.134766,18.3125 9.6528099,16.906286 9.8098417,16.313709 11.121094,15.439453 c 0.712229,-0.452115 1.714639,-0.758126 3.357422,-0.810547 0.750339,-0.493466 1.155995,-0.835905 1.363281,-1.091797 0.103664,-0.127796 0.157556,-0.233153 0.181641,-0.326171 0.02407,-0.09313 0.01805,-0.173346 0,-0.248047 -2.022805,2.037106 -4.895042,-0.204433 -7.1210942,-0.886719 -0.2094769,-0.04472 -0.4266245,-0.06751 -0.6464844,-0.07227 z"
           id="path1116" />
        <path
           style="opacity:0.2;fill:#ffffff"
           d="M 6.9804688,5.2597656 C 3.845724,7.6839402 2.1864744,11.402274 2.015625,15.599609 c 0.00481,0.172589 0.030047,0.339354 0.042969,0.509766 0.2769572,-3.993798 1.911008,-7.5212325 4.921875,-9.8496094 0.054609,1.2738078 -0.049323,2.6811086 0.5078124,3.7539064 2.9490746,0.02755 4.6286566,1.63323 5.6406246,2.429687 0.870609,0.685204 1.818784,1.131637 2.429688,1.363282 0.435992,-0.404378 0.511599,-0.650212 0.464844,-0.84375 C 15.557262,12.835417 14.271452,12.342588 13.128906,11.443359 12.116938,10.646902 10.437356,9.0412191 7.4882812,9.0136719 6.931146,7.9408743 7.0350773,6.5335734 6.9804688,5.2597656 Z M 27.388672,10.337891 c 0.07117,0.421808 0.109316,0.85399 0.128906,1.291015 0.619832,1.295321 0.985865,2.707945 1.052734,4.191406 0.0084,-0.173805 0.0293,-0.343584 0.0293,-0.519531 0,-1.771243 -0.435268,-3.452347 -1.210937,-4.96289 z m 0.125,2.189453 C 27.26516,17.961687 22.778755,22 17.265625,22 c -3.643432,0.176851 -6.38384,-1.507907 -7.130859,-3.6875 -0.08063,-0.235243 -0.1372755,-0.439898 -0.1796879,-0.634766 -0.1431157,0.4334 -0.06129,0.931659 0.1796879,1.634766 0.747019,2.179593 3.487427,3.864351 7.130859,3.6875 5.672533,0 10.271484,-4.270827 10.271484,-9.943359 0,-0.178535 -0.01373,-0.353278 -0.02344,-0.529297 z"
           id="path1118" />
      </g>
      <g
         id="g1055"
         transform="matrix(0.12324199,0,0,0.12778766,56.083687,21.704003)">
        <path
           style="opacity:0.2;fill-rule:evenodd"
           d="M 15.998047,2.000028 C 15.143135,2.0003767 14.311444,2.3203134 13.65625,2.9980749 L 1.9960938,15.041044 C 1.3536141,15.705715 1.0127854,16.581807 1,17.449247 c -1.9218e-4,0.01319 0,0.04613 0,0.06055 -1.2097e-4,2.580774 6.4213452,0.07316 7.0429688,3.228515 C 8.3793295,22.446011 5,21.664652 5,23.38284 c 0,2.015489 6.434997,0.372166 7.785156,2.291016 1.033512,1.46883 -2.476242,1.531315 -1.65625,2.9375 0.7034,1.206247 3.018014,0.433495 3.4375,2.054688 0.479149,1.851859 3.362638,1.646053 5.105469,0.177734 1.068368,-0.900089 -1.211054,-1.4645 -0.240234,-2.46875 0.970756,-1.00432 4.826744,-0.814347 4.568359,-2.994141 -0.171003,-1.442614 -1.843453,-1.602896 -1.871094,-3.232421 -0.09653,-1.380014 1.848681,-0.97623 6.820313,-2.34961 1.987938,-0.93399 2.058352,-1.430851 2.050781,-2.291016 -1.57e-4,-0.01705 0,-0.0404 0,-0.05859 -0.01132,-0.867369 -0.412272,-1.743553 -1.054688,-2.408203 L 18.341797,2.9980749 C 17.68646,2.3202423 16.854483,2.0003768 16,2.000028 Z m 12.833984,21.001953 c -0.212024,-0.0077 -0.42531,0.012 -0.576172,0.06055 -0.284365,0.09439 -1.632506,0.148666 -1.521484,1.328125 1.220485,0.589455 3.080943,1.058226 3.302734,-0.121094 0.166515,-0.884372 -0.568911,-1.240509 -1.205078,-1.267578 z M 6.4140625,26.03909 C 6.2951927,26.05537 6.2138311,26.112931 6.0976562,26.166044 5.1686561,26.590534 4.546136,27.484863 5.4140625,27.875028 6.2821171,28.2651 6.8640809,27.85094 7.625,27.367216 8.3860479,26.883254 8.3636375,26.796093 8.3085938,26.609403 8.2031003,26.634743 7.5117892,26.11604 6.7832031,26.03909 c -0.1214103,-0.01221 -0.2503032,-0.01628 -0.3691406,0 z"
           id="path1032" />
        <path
           style="fill:#4f4f4f;fill-rule:evenodd"
           d="M 15.998047,1 C 15.143135,1.0003487 14.311444,1.3202854 13.65625,1.9980469 L 1.9960938,14.041016 C 1.3536141,14.705687 1.0127854,15.581779 1,16.449219 c -1.9218e-4,0.01319 0,0.04613 0,0.06055 -1.2097e-4,2.580774 6.4213452,0.07316 7.0429688,3.228515 C 8.3793295,21.445983 5,20.664624 5,22.382812 c 0,2.015489 6.434997,0.372166 7.785156,2.291016 1.033512,1.46883 -2.476242,1.531315 -1.65625,2.9375 0.7034,1.206247 3.018014,0.433495 3.4375,2.054688 0.479149,1.851859 3.362638,1.646053 5.105469,0.177734 1.068368,-0.900089 -1.211054,-1.4645 -0.240234,-2.46875 0.970756,-1.00432 4.826744,-0.814347 4.568359,-2.994141 -0.171003,-1.442614 -1.843453,-1.602896 -1.871094,-3.232421 -0.09653,-1.380014 1.848681,-0.97623 6.820313,-2.34961 1.987938,-0.93399 2.058352,-1.430851 2.050781,-2.291016 -1.57e-4,-0.01705 0,-0.0404 0,-0.05859 -0.01132,-0.867369 -0.412272,-1.743553 -1.054688,-2.408203 L 18.341797,1.9980469 C 17.68646,1.3202143 16.854483,1.0003488 16,1 Z m 12.833984,21.001953 c -0.212024,-0.0077 -0.42531,0.012 -0.576172,0.06055 -0.284365,0.09439 -1.632506,0.148666 -1.521484,1.328125 1.220485,0.589455 3.080943,1.058226 3.302734,-0.121094 0.166515,-0.884372 -0.568911,-1.240509 -1.205078,-1.267578 z M 6.4140625,25.039062 C 6.2951927,25.055342 6.2138311,25.112903 6.0976562,25.166016 5.1686561,25.590506 4.546136,26.484835 5.4140625,26.875 6.2821171,27.265072 6.8640809,26.850912 7.625,26.367188 8.3860479,25.883226 8.3636375,25.796065 8.3085938,25.609375 8.2031003,25.634715 7.5117892,25.116012 6.7832031,25.039062 c -0.1214103,-0.01221 -0.2503032,-0.01628 -0.3691406,0 z"
           id="path1034" />
        <path
           style="opacity:0.2;fill-rule:evenodd"
           d="m 16.053655,5.0713855 c 0.879785,0.00748 3.2905,2.9907858 5.441357,5.2250005 0.605,0.811785 -0.234015,1.643785 -0.234015,1.643785 l -4.505,-2.465714 -1.989285,2.700714 -1.755,-2.6414282 L 11.95814,13.643028 8.8574261,11.764457 9.6767118,10.707314 14.532426,5.7175283 C 14.90489,5.3378426 15.190112,5.0650212 16.05364,5.0717426 Z"
           id="path1036" />
        <path
           style="fill:#ffffff;fill-rule:evenodd"
           d="m 16.053655,4.0713575 c 0.879785,0.00748 3.2905,2.9907858 5.441357,5.2250001 0.605,0.8117854 -0.234015,1.6437854 -0.234015,1.6437854 l -4.505,-2.465714 -1.989285,2.700714 -1.755,-2.6414282 L 11.95814,12.643 8.8574261,10.764429 9.6767118,9.707286 14.532426,4.7175003 C 14.90489,4.3378146 15.190112,4.0649932 16.05364,4.0717146 Z"
           id="path1038" />
        <path
           style="opacity:0.1;fill:#ffffff;fill-rule:evenodd"
           d="M 15.998047,1 C 15.143135,1.0003487 14.311444,1.3202854 13.65625,1.9980469 L 1.9960938,14.041016 C 1.3536141,14.705687 1.0127854,15.581779 1,16.449219 c -1.9218e-4,0.01319 0,0.04613 0,0.06055 -6.49e-6,0.138495 0.027409,0.256338 0.0625,0.367187 0.1217862,-0.670664 0.4328778,-1.317927 0.9335938,-1.835937 L 13.65625,2.9980469 C 14.311444,2.3202854 15.143135,2.0003487 15.998047,2 H 16 c 0.854483,3.488e-4 1.68646,0.3202143 2.341797,0.9980469 L 29.945312,15.041016 c 0.55875,0.578087 0.917741,1.317161 1.013672,2.070312 0.03929,-0.186229 0.04296,-0.383025 0.04102,-0.603516 -1.57e-4,-0.01705 0,-0.0404 0,-0.05859 -0.01132,-0.867369 -0.412272,-1.743553 -1.054688,-2.408203 L 18.341797,1.9980469 C 17.68646,1.3202143 16.854483,1.0003488 16,1 Z M 7.9277344,20.402344 C 7.3409863,21.250414 5,20.950574 5,22.382812 c 0,0.178475 0.065283,0.319204 0.1582031,0.445313 0.6613649,-1.001182 3.177277,-0.604767 2.8847657,-2.089844 -0.024739,-0.125575 -0.072894,-0.227623 -0.1152344,-0.335937 z m 14.2812496,1.27539 c -0.06482,0.130619 -0.0932,0.283099 -0.08008,0.470704 0.02552,1.504275 1.437246,1.768831 1.791016,2.933593 0.07945,-0.202853 0.111818,-0.433407 0.08008,-0.701172 -0.150311,-1.26805 -1.45732,-1.547912 -1.791016,-2.703125 z m 6.623047,0.324219 c -0.212024,-0.0077 -0.42531,0.012 -0.576172,0.06055 -0.284365,0.09439 -1.632506,0.148666 -1.521484,1.328125 0.09773,0.0472 0.215546,0.08208 0.320313,0.126953 0.391185,-0.34417 1.016977,-0.393938 1.201171,-0.455078 0.150862,-0.04855 0.364148,-0.06825 0.576172,-0.06055 0.41642,0.01772 0.871121,0.179587 1.091797,0.535156 0.04562,-0.08119 0.09309,-0.160237 0.113281,-0.267578 0.166515,-0.884372 -0.568911,-1.240509 -1.205078,-1.267578 z M 6.4140625,25.039062 c -0.1188698,0.01628 -0.2002314,0.07384 -0.3164063,0.126954 -0.85969,0.39282 -1.4413584,1.18372 -0.8378906,1.609375 0.1998591,-0.233941 0.4972895,-0.453744 0.8378906,-0.609375 0.1161749,-0.05311 0.1975365,-0.110674 0.3164063,-0.126954 0.1188374,-0.01628 0.2477303,-0.01221 0.3691406,0 0.3283625,0.03468 0.6412911,0.161263 0.9042969,0.285157 0.680269,-0.439651 0.6741574,-0.53487 0.6210938,-0.714844 -0.1054936,0.02534 -0.7968046,-0.493362 -1.5253907,-0.570313 -0.1214103,-0.01221 -0.2503032,-0.01628 -0.3691406,0 z m 6.3398435,0.603516 c -0.59485,0.638928 -2.212286,0.961627 -1.625,1.96875 0.02718,0.04661 0.06196,0.08405 0.09375,0.125 0.618974,-0.658083 2.325591,-0.977994 1.5625,-2.0625 -0.0084,-0.01188 -0.02251,-0.01964 -0.03125,-0.03125 z m 6.648438,2.767578 c -0.497266,0.55353 -0.02093,0.974061 0.308594,1.394532 0.570284,-0.523583 0.02654,-0.937372 -0.308594,-1.394532 z"
           id="path1040" />
      </g>
      <g
         id="g1180"
         transform="matrix(0.13204721,0,0,0.13204728,46.431512,21.699743)">
        <rect
           style="fill:#5895dc"
           width="16"
           height="17"
           x="8"
           y="1"
           rx="1.275"
           ry="1.275"
           id="rect1136" />
        <rect
           style="fill:#89e058"
           width="20"
           height="17"
           x="6"
           y="4"
           rx="1.275"
           ry="1.275"
           id="rect1138" />
        <rect
           style="fill:#ffcd54"
           width="24"
           height="17"
           x="4"
           y="7"
           rx="1.275"
           ry="1.275"
           id="rect1140" />
        <rect
           opacity="0.2"
           width="28"
           height="20"
           x="2"
           y="11"
           rx="1.5"
           ry="1.5"
           id="rect1142" />
        <rect
           fill="#8e8e8e"
           width="28"
           height="20"
           x="2"
           y="10"
           rx="1.5"
           ry="1.5"
           id="rect1144" />
        <rect
           opacity="0.2"
           width="10"
           height="3"
           x="11"
           y="19"
           rx="1"
           ry="1"
           id="rect1146" />
        <rect
           fill="#ececec"
           width="10"
           height="3"
           x="11"
           y="18"
           rx="1"
           ry="1"
           id="rect1148" />
        <path
           style="opacity:0.1;fill:#ffffff"
           d="M 9.2753906,1 C 8.5690406,1 8,1.5690406 8,2.2753906 v 1 C 8,2.5690406 8.5690406,2 9.2753906,2 H 22.724609 C 23.430959,2 24,2.5690406 24,3.2753906 v -1 C 24,1.5690406 23.430959,1 22.724609,1 Z"
           id="path1150" />
        <path
           style="opacity:0.1;fill:#ffffff"
           d="M 7.2753906,4 C 6.5690406,4 6,4.5690406 6,5.2753906 v 1 C 6,5.5690406 6.5690406,5 7.2753906,5 H 24.724609 C 25.430959,5 26,5.5690406 26,6.2753906 v -1 C 26,4.5690406 25.430959,4 24.724609,4 Z"
           id="path1152" />
        <path
           style="opacity:0.1;fill:#ffffff"
           d="M 5.2753906,7 C 4.5690406,7 4,7.5690406 4,8.2753906 v 1 C 4,8.5690406 4.5690406,8 5.2753906,8 H 26.724609 C 27.430959,8 28,8.5690406 28,9.2753906 v -1 C 28,7.5690406 27.430959,7 26.724609,7 Z"
           id="path1154" />
        <path
           style="opacity:0.1"
           d="M 7.2753906,2.9996094 C 6.5690406,2.9996094 6,3.56865 6,4.275 v 1 C 6,4.56865 6.5690406,3.9996094 7.2753906,3.9996094 H 24.724609 C 25.430959,3.9996094 26,4.56865 26,5.275 v -1 C 26,3.56865 25.430959,2.9996094 24.724609,2.9996094 Z"
           id="path1156" />
        <path
           style="opacity:0.1"
           d="M 5.2753906,5.9996094 C 4.5690406,5.9996094 4,6.56865 4,7.275 v 1 C 4,7.56865 4.5690406,6.9996094 5.2753906,6.9996094 H 26.724609 C 27.430959,6.9996094 28,7.56865 28,8.275 v -1 C 28,6.56865 27.430959,5.9996094 26.724609,5.9996094 Z"
           id="path1158" />
      </g>
      <g
         id="g1241"
         transform="matrix(0.11926845,0,0,0.13667896,27.553712,21.556161)">
        <path
           style="opacity:0.2;fill-rule:evenodd"
           d="M 30.003987,3.0233579 C 29.755651,2.9838843 29.532545,3.1240159 29.39842,3.2835684 29.264297,3.4432 29.171234,3.6409631 29.09019,3.8902 28.950029,4.3214895 28.435296,5.9223847 26.579191,7.5046469 24.723088,9.0869908 21.522305,10.857266 15.974781,11.000003 12.601518,11.039474 10.275121,9.5900588 8.9300107,6.9283486 8.5943179,6.2640849 8.000004,5.0261906 8.000004,5.8138485 v 1.2178422 l -0.017129,6.3029223 0.03425,0.08297 c 0,0 0.3021971,0.671289 -0.017122,1.575711 -0.3193228,0.904499 -1.4733834,2.224409 -4.2875465,3.069067 l -0.3440371,0.102237 0.065382,0.36229 c 0.1560936,0.877658 0.7782918,1.777184 1.6968304,2.698105 0.9185383,0.920842 2.1483799,1.8525 3.5804678,2.694789 2.8641754,1.68458 6.5326504,3.01579 10.0969194,3.078001 3.564268,0.06237 7.05158,-1.184053 9.359031,-4.636184 2.307452,-3.452053 3.432785,-9.740611 2.510997,-18.3213232 h -0.0016 C 30.647175,3.8047 30.595216,3.6035422 30.502142,3.4272527 30.409067,3.2510421 30.252326,3.0690684 30.003989,3.0297526 Z"
           id="path1182" />
        <path
           style="fill:#645b44;fill-rule:evenodd"
           d="M 30.003987,2.0233551 C 29.755651,1.9838815 29.532545,2.1240131 29.39842,2.2835656 29.264297,2.4431972 29.171234,2.6409603 29.09019,2.8901972 28.950029,3.3214867 28.435296,4.9223819 26.579191,6.5046441 24.723088,8.0869876 21.522305,9.8572628 15.974781,9.9999998 12.601518,10.039471 10.275121,8.0902886 8.9300107,5.4285786 8.5943179,4.7643149 8.000004,3.5264206 8.000004,4.3140785 v 1.2178422 l -0.017129,6.8026893 0.03425,0.08297 c 0,0 0.3021971,0.671289 -0.017122,1.575711 C 7.6806802,14.89779 6.5266196,16.2177 3.7124565,17.062358 l -0.3440371,0.102237 0.065382,0.36229 c 0.1560936,0.877658 0.7782918,1.777184 1.6968304,2.698105 0.9185383,0.920842 2.1483799,1.8525 3.5804678,2.694789 2.8641754,1.68458 6.5326504,3.01579 10.0969194,3.078001 3.564268,0.06237 7.05158,-1.184053 9.359031,-4.636184 2.307452,-3.452053 3.432785,-9.740611 2.510997,-18.3213222 h -0.0016 C 30.647175,2.8046972 30.595216,2.6035394 30.502142,2.4272499 30.409067,2.2510393 30.252326,2.0690656 30.003989,2.0297498 Z"
           id="path1184" />
        <path
           style="opacity:0.1;fill:#ffffff;fill-rule:evenodd"
           d="m 30.003906,2.0234371 c -0.248336,-0.039474 -0.471344,0.1002131 -0.605468,0.2597656 -0.134124,0.1596316 -0.22755,0.358185 -0.308594,0.6074219 -0.140161,0.4312895 -0.653661,2.031019 -2.509766,3.6132812 -1.856103,1.5823438 -5.057945,3.353357 -10.605469,3.496094 C 12.601346,10.039471 10.274798,8.0894436 8.9296875,5.427734 8.5939947,4.7634703 8,3.5267948 8,4.3144527 v 1 C 8,4.5267948 8.5939947,5.7634703 8.9296875,6.427734 10.274798,9.0894448 12.601346,11.039471 15.974609,11 21.522133,10.857263 24.723975,9.0862498 26.580078,7.5039058 28.436183,5.9216436 28.949683,4.3219141 29.089844,3.8906246 29.170884,3.6413877 29.264314,3.4428343 29.398438,3.2832027 29.532562,3.1236502 29.75557,2.9839635 30.003906,3.0234371 v 0.00586 c 0.248337,0.039316 0.404972,0.2222269 0.498047,0.3984375 0.09307,0.1762895 0.144554,0.3777052 0.173828,0.6132812 h 0.002 c 0.20589,1.9165757 0.295371,3.6990563 0.306641,5.3808596 0.03046,-1.9603773 -0.05953,-4.080532 -0.306641,-6.3808596 h -0.002 C 30.646507,2.8054392 30.595027,2.6040235 30.501953,2.427734 30.408878,2.2515234 30.252243,2.0686123 30.003906,2.0292965 Z M 8,5.5312496 7.9824219,12.333984 7.984375,12.339844 8,6.5312496 Z M 8.074219,13.650391 C 8.0514396,13.76412 8.0436202,13.870593 8,13.994141 7.6806772,14.89864 6.5270537,16.217842 3.7128906,17.0625 l -0.34375,0.101562 0.064453,0.363282 c 0.033379,0.187679 0.097528,0.376731 0.171875,0.566406 L 3.7128906,18.0625 C 6.5270537,17.217842 7.6806772,15.89864 8,14.994141 8.2367923,14.323463 8.1442989,13.885996 8.074219,13.650391 Z"
           id="path1186" />
        <path
           style="opacity:0.2;fill-rule:evenodd"
           d="m 17.999259,10.000003 c -0.989559,0 -1.984089,0.32712 -2.741248,1.00016 C 14.500852,11.673202 14,12.698882 14,14.000723 c 0,1.30184 0.500852,2.32608 1.258011,2.99912 0.757159,0.67304 1.751689,1.00016 2.741248,1.00016 0.989559,0 1.98409,-0.32712 2.741249,-1.00016 C 21.497668,16.326803 22,15.302563 22,14.000723 c 0,-1.301841 -0.502332,-2.327521 -1.259492,-3.00056 -0.757159,-0.67304 -1.75169,-1.00016 -2.741249,-1.00016 z"
           id="path1188" />
        <path
           style="opacity:0.2;fill-rule:evenodd"
           d="m 10.999259,10.000003 c -0.989559,0 -1.984089,0.32712 -2.741248,1.00016 C 7.500852,11.673202 7,12.698882 7,14.000723 c 0,1.30184 0.500852,2.32608 1.258011,2.99912 0.757159,0.67304 1.751689,1.00016 2.741248,1.00016 0.989559,0 1.98409,-0.32712 2.741249,-1.00016 C 14.497668,16.326803 15,15.302563 15,14.000723 c 0,-1.301841 -0.502332,-2.327521 -1.259492,-3.00056 -0.757159,-0.67304 -1.75169,-1.00016 -2.741249,-1.00016 z"
           id="path1190" />
        <path
           style="fill:#ffffff;fill-rule:evenodd"
           d="M 10.999259,8.9999996 C 10.0097,8.9999996 9.01517,9.3271198 8.258011,10.00016 7.500852,10.673199 7,11.698879 7,13.00072 7,14.30256 7.500852,15.3268 8.258011,15.99984 9.01517,16.67288 10.0097,17 10.999259,17 c 0.989559,0 1.98409,-0.32712 2.741249,-1.00016 C 14.497668,15.3268 15,14.30256 15,13.00072 15,11.698879 14.497668,10.673199 13.740508,10.00016 12.983349,9.3271198 11.988818,8.9999996 10.999259,8.9999996 Z"
           id="path1192" />
        <path
           style="fill:#3f3f3f;fill-rule:evenodd"
           d="m 12.000001,12 c -0.490073,0 -0.98551,0.161999 -1.367188,0.50128 C 10.251137,12.84056 10,13.363121 10,14.000001 c 0,0.636881 0.251137,1.15944 0.632813,1.498721 C 11.014491,15.838001 11.509928,16 12.000001,16 c 0.490073,0 0.98551,-0.161999 1.367189,-0.501278 0.381677,-0.339281 0.632811,-0.86184 0.632811,-1.498721 0,-0.63688 -0.251134,-1.159441 -0.632811,-1.498721 C 12.985511,12.161999 12.490074,12 12.000001,12 Z"
           id="path1194" />
        <path
           style="opacity:0.3;fill-rule:evenodd"
           d="m 10,20.000958 c 1.443724,0 2.75993,0.08588 3.953778,0 1.983235,-0.145295 3.726517,-0.0014 4.607879,-0.805804 C 18.188847,18.626044 18,18.001758 18,18.001758 c 0,0 1.206289,0.543361 1.788818,1.43209 C 20.36968,20.320098 19.152016,20.866098 19,22 18.661581,21.004117 18.882389,20.630602 18.796869,20.234855 18.181804,21.239855 17.122391,21.960656 15.697472,22 14.180743,22.04157 12.249892,20.941504 10,20.002557 Z"
           id="path1196" />
        <path
           style="opacity:0.1;fill-rule:evenodd"
           d="m 3.9826454,13.000007 c -0.1774894,0 -0.3515443,0.01125 -0.5207339,0.039 -0.451172,0.0735 -0.868902,0.2496 -1.2290438,0.51675 -1.4405666,1.068675 -1.819954,3.49065 -0.040595,6.02685 1.7793597,2.536275 4.1335252,2.929876 5.5740919,1.8612 1.4405667,-1.068676 1.8213547,-3.49065 0.041993,-6.02685 -1.1677033,-1.664401 -2.5832868,-2.405625 -3.8257126,-2.4168 z"
           id="path1198" />
        <path
           style="fill:#3f3f3f;fill-rule:evenodd"
           d="m 3.9826454,12.000004 c -0.1774894,0 -0.3515443,0.01125 -0.5207339,0.039 -0.451172,0.0735 -0.868902,0.2496 -1.2290438,0.51675 -1.4405666,1.068675 -1.819954,3.49065 -0.040595,6.02685 1.7793597,2.536275 4.1335252,2.929876 5.5740919,1.8612 1.4405667,-1.068676 1.8213547,-3.49065 0.041993,-6.02685 -1.1677033,-1.664401 -2.5832868,-2.405625 -3.8257126,-2.4168 z"
           id="path1200" />
        <path
           style="fill:#ffffff;fill-rule:evenodd"
           d="m 17.999259,8.9999996 c -0.989559,0 -1.984089,0.3271202 -2.741248,1.0001604 C 14.500852,10.673199 14,11.698879 14,13.00072 c 0,1.30184 0.500852,2.32608 1.258011,2.99912 C 16.01517,16.67288 17.0097,17 17.999259,17 c 0.989559,0 1.98409,-0.32712 2.741249,-1.00016 C 21.497668,15.3268 22,14.30256 22,13.00072 22,11.698879 21.497668,10.673199 20.740508,10.00016 19.983349,9.3271198 18.988818,8.9999996 17.999259,8.9999996 Z"
           id="path1202" />
        <path
           style="fill:#3f3f3f;fill-rule:evenodd"
           d="m 19.000001,12 c -0.490073,0 -0.98551,0.161999 -1.367188,0.50128 C 17.251137,12.84056 17,13.363121 17,14.000001 c 0,0.636881 0.251137,1.15944 0.632813,1.498721 C 18.014491,15.838001 18.509928,16 19.000001,16 c 0.490073,0 0.98551,-0.161999 1.367189,-0.501278 0.381677,-0.339281 0.632811,-0.86184 0.632811,-1.498721 0,-0.63688 -0.251134,-1.159441 -0.632811,-1.498721 C 19.985511,12.161999 19.490074,12 19.000001,12 Z"
           id="path1204" />
        <path
           style="opacity:0.1;fill:#ffffff;fill-rule:evenodd"
           d="M 3.9824219,12 C 3.8049325,12 3.6301271,12.01131 3.4609375,12.03906 3.0097655,12.11256 2.5925637,12.289489 2.2324219,12.556639 1.3448623,13.215071 0.8662253,14.38909 1.0410156,15.785156 1.1462661,14.838058 1.5679963,14.04954 2.2324219,13.556641 2.5925637,13.289491 3.0097655,13.112562 3.4609375,13.039062 3.6301271,13.011313 3.8049325,13 3.9824219,13 c 1.2424258,0.01117 2.6584685,0.751615 3.8261719,2.416016 0.6830641,0.9736 1.0417388,1.928988 1.1503906,2.798828 C 9.0823062,17.108502 8.7672691,15.782456 7.8085938,14.416016 6.6408904,12.751615 5.2248477,12.011175 3.9824219,12 Z"
           id="path1206" />
        <path
           style="opacity:0.2"
           d="M 18.708984,21.533203 18,21.923828 c 0,0 2.964502,2.618857 5.628906,3.91211 -0.03377,0.195005 -0.04695,0.391292 -0.0293,0.626953 l 0.490235,-0.08203 c 0,0 1.699759,0.499159 2.964844,0.88086 -0.16037,0.817595 0.252386,1.798283 1.341796,2.197265 C 30.26374,30.142844 32,31 32,31 c -0.890704,-2.893988 -1.207453,-5.192752 -3.535156,-4.988281 -0.118876,0.01044 -0.229204,0.03185 -0.333985,0.06055 L 25,24.46875 V 24 l -0.337891,0.222656 c -0.0595,0.03257 -0.106796,0.08819 -0.162109,0.128906 -2.466817,-1.492723 -5.791016,-2.818359 -5.791016,-2.818359 z"
           id="path1208" />
        <path
           style="fill:#ff9a0c"
           d="m 24.977365,25.380254 0.648483,-1.291427 c -2.412459,-1.764955 -6.916207,-3.555931 -6.916207,-3.555931 l -0.709639,0.390105 c 0,0 4.089101,3.626765 6.977363,4.457253 z"
           id="path1210" />
        <path
           style="fill:#8a8a8a"
           d="m 24.999924,22.999945 -0.338156,0.222383 c -0.313207,0.171438 -0.567312,0.462826 -0.773421,0.799823 -0.235844,0.553996 -0.328977,0.900433 -0.288439,1.441702 l 0.490005,-0.08391 c 0,0 2.558475,0.733985 3.769628,1.120012 l 0.141674,-0.272925 0.498748,-0.965347 -3.500039,-1.793026 z"
           id="path1212" />
        <path
           style="fill:#3f3f3f"
           d="m 32,30 c -0.890704,-2.893988 -1.206618,-5.191808 -3.534321,-4.987337 -1.875805,0.164776 -2.007129,2.737382 -0.06876,3.447285 C 30.264175,29.143808 31.999998,30 31.999998,30 Z"
           id="path1214" />
      </g>
      <g
         id="g1272"
         transform="matrix(0.06722403,0,0,0.06494128,22.379532,21.636967)">
        <path
           style="opacity:0.2"
           d="M 55,58.15 V 6.8499999 c 0,-1.5789 -1.310125,-2.85 -2.937501,-2.85 H 10.9375 c -1.627375,0 -2.9375,1.2711 -2.9375,2.85 V 58.15 C 8,59.7289 9.310125,61 10.9375,61 H 52.062499 C 53.689875,61 55,59.7289 55,58.15 Z"
           id="path1243" />
        <path
           style="fill:#ce3f39"
           d="M 55,57.15 V 5.8499999 c 0,-1.5789 -1.310125,-2.85 -2.937501,-2.85 H 10.9375 c -1.627375,0 -2.9375,1.2711 -2.9375,2.85 V 57.15 C 8,58.7289 9.310125,60 10.9375,60 H 52.062499 C 53.689875,60 55,58.7289 55,57.15 Z"
           id="path1245" />
        <path
           style="opacity:0.3"
           d="M 14.833984,7 C 13.264318,7 12,8.2643181 12,9.8339844 V 21.166016 C 12,22.735682 13.264318,24 14.833984,24 H 26.166016 C 27.735683,24 29,22.735682 29,21.166016 V 9.8339844 C 29,8.2643181 27.735683,7 26.166016,7 Z M 34,7 v 3 H 51 V 7 Z m 0,7 v 3 h 17 v -3 z m 0,7 v 3 h 17 v -3 z m -22,7 v 3 h 39 v -3 z m 0,7 v 3 h 39 v -3 z m 0,7 v 3 h 39 v -3 z m 0,7 v 3 h 39 v -3 z"
           id="path1247" />
        <circle
           style="opacity:0.2"
           cx="47.5"
           cy="48.5"
           r="15.5"
           id="circle1249" />
        <circle
           style="fill:#5b5b5b"
           cx="47.5"
           cy="47.5"
           r="15.5"
           id="circle1251" />
        <path
           style="fill:#ffffff;fill-rule:evenodd"
           d="m 47.5,40 c -2.229275,0.02265 -4.474241,0.554788 -6.416016,1.703125 -0.773964,0.526048 -1.702137,1.206117 -2.402343,1.890625 -1.10183,1.125867 -2.04526,2.438658 -2.681641,3.908203 1.746418,4.020137 5.586739,6.967195 9.810547,7.402344 2.770636,0.327253 5.669914,-0.172925 8.105469,-1.603516 0.773936,-0.526049 1.702137,-1.206118 2.402343,-1.890625 C 57.420203,50.284273 58.363618,48.97135 59,47.501953 57.253437,43.481968 53.413403,40.534458 49.189453,40.099609 48.629,40.031359 48.064233,40 47.5,40 Z m 0.0039,3 c 2.40714,-0.05333 4.539527,2.101461 4.494141,4.496094 0.07712,2.646588 -2.559355,4.929872 -5.166016,4.435547 -2.63272,-0.309133 -4.482971,-3.261638 -3.617181,-5.763672 C 43.767829,44.326082 45.575346,42.977231 47.503906,43 Z M 47.5,46 A 1.5000073,1.5000006 0 0 0 46,47.5 1.5000073,1.5000006 0 0 0 47.5,49 1.5000073,1.5000006 0 0 0 49,47.5 1.5000073,1.5000006 0 0 0 47.5,46.001953 Z"
           id="path1253" />
        <path
           style="opacity:0.2;fill:#ffffff"
           d="M 10.9375,3 C 9.310125,3 8,4.2707094 8,5.8496094 v 1 C 8,5.2707094 9.310125,4 10.9375,4 h 41.125 C 53.689876,4 55,5.2707094 55,6.8496094 v -1 C 55,4.2707094 53.689876,3 52.0625,3 Z"
           id="path1255" />
      </g>
      <g
         id="g1324"
         transform="matrix(0.13693785,0,0,0.13660058,51.040449,21.558591)">
        <path
           style="opacity:0.2"
           d="M 3.0000002,13.507662 V 28.615385 C 3.0000002,29.382461 3.6296472,30 4.4117649,30 H 25.588236 C 26.370353,30 27,29.382461 27,28.615385 V 13.507662 L 15,24.178936 Z"
           id="path1274" />
        <path
           style="fill:#858585"
           d="M 15.05325,2.0002426 C 14.3875,1.9980599 13.7195,2.3201466 13.047,2.9728091 L 3,12.507357 15,24.846154 v 0 L 27,12.507357 17.046751,2.9725666 C 16.38275,2.3283928 15.719,2.0024254 15.05325,2 Z"
           id="path1276" />
        <path
           style="opacity:0.1;fill:#ffffff"
           d="M 15.052734,2 C 14.386984,1.99782 13.719375,2.3199937 13.046875,2.9726562 L 3,12.507812 3.5058594,13.027344 13.046875,3.9726562 C 13.719375,3.3199937 14.386984,2.9978173 15.052734,3 c 0.66575,0.00243 1.33014,0.3284825 1.994141,0.9726562 L 26.496094,13.025391 27,12.507812 17.046875,2.9726562 C 16.382874,2.3284825 15.718484,2.0024254 15.052734,2 Z"
           id="path1278" />
        <rect
           style="fill:#ffffff"
           width="20"
           height="21"
           x="5"
           y="5"
           rx="2.1429999"
           ry="2.0320001"
           id="rect1280" />
        <path
           style="fill:#b7b7b7"
           d="M 3.0000002,12.507662 V 27.615385 C 3.0000002,28.382461 3.6296472,29 4.4117649,29 H 25.588236 C 26.370353,29 27,28.382461 27,27.615385 V 12.507662 L 15,23.178936 Z"
           id="path1282" />
        <path
           style="fill:#dedede"
           d="m 15.053769,19.00001 c -0.665813,-0.0021 -1.334604,0.316953 -2.007353,0.962861 L 3.4218751,28.603209 C 3.6763183,28.848696 4.0252851,29 4.4117649,29 H 25.588236 c 0.387178,0 0.736708,-0.151871 0.991268,-0.398145 L 17.047335,19.962871 C 16.383334,19.325246 15.71958,19.00208 15.053769,19.00001 Z"
           id="path1284" />
        <path
           style="opacity:0.2;fill:#ffffff"
           d="m 15.054688,19 c -0.665813,-0.0021 -1.335064,0.316983 -2.007813,0.962891 l -9.625,8.640625 c 0.1899607,0.183274 0.4315178,0.314625 0.703125,0.36914 l 8.921875,-8.009765 C 13.719624,20.316983 14.388875,19.9979 15.054688,20 c 0.66581,0.0021 1.328186,0.325266 1.992187,0.962891 l 8.835937,8.005859 c 0.268593,-0.05573 0.509217,-0.18526 0.697266,-0.367188 L 17.046875,19.962891 C 16.382874,19.325266 15.720498,19.00207 15.054688,19 Z"
           id="path1286" />
        <path
           style="opacity:0.2"
           d="M 30,24.000001 A 7,7 0 0 1 22.999999,31 7,7 0 0 1 16,24.000001 a 7,7 0 0 1 6.999999,-7 7,7 0 0 1 7.000001,7 z"
           id="path1288" />
        <path
           style="fill:#9141ac"
           d="M 30,23.000001 A 7,7 0 0 1 22.999999,30 7,7 0 0 1 16,23.000001 a 7,7 0 0 1 6.999999,-7 7,7 0 0 1 7.000001,7 z"
           id="path1290" />
        <circle
           style="fill:#ffffff"
           cx="23"
           cy="23"
           r="5"
           id="circle1292" />
        <path
           style="fill:#949390;fill-rule:evenodd;stroke:#949390;stroke-width:0.3125;stroke-linecap:round"
           d="m 23,22.999999 3,-2.9375"
           id="path1294" />
        <path
           style="fill:none;stroke:#ed333b;stroke-width:0.25;stroke-linecap:round"
           d="m 23,22.999999 -1.408588,3.622148"
           id="path1296" />
        <path
           style="fill:none;stroke:#68676b;stroke-width:0.9375;stroke-linecap:round;stroke-linejoin:round"
           d="m 21,20.937499 2,2.0625"
           id="path1298" />
        <circle
           style="fill:#42403c"
           cx="11.635"
           cy="30.375"
           r="1"
           transform="rotate(-24.040001)"
           overflow="visible"
           id="circle1300" />
      </g>
    </g>
    <circle
       style="fill:url(#radialGradient3436);fill-opacity:1;fill-rule:nonzero;stroke:none;stroke-width:0.185208;stroke-miterlimit:4;stroke-dasharray:none;stroke-opacity:1"
       id="path1444"
       cx="34.838539"
       cy="47.283535"
       r="0.27161914" />
    <circle
       style="fill:url(#radialGradient3455);fill-opacity:1;fill-rule:nonzero;stroke:none;stroke-width:0.264009;stroke-miterlimit:4;stroke-dasharray:none;stroke-opacity:1"
       id="circle3453"
       cx="34.838539"
       cy="47.283535"
       r="0.38718569" />
    <circle
       style="fill:url(#radialGradient3515);fill-opacity:1;fill-rule:nonzero;stroke:none;stroke-width:0.185208;stroke-miterlimit:4;stroke-dasharray:none;stroke-opacity:1"
       id="circle3509"
       cx="44.822563"
       cy="47.283535"
       r="0.27161914" />
    <circle
       style="fill:url(#radialGradient3513);fill-opacity:1;fill-rule:nonzero;stroke:none;stroke-width:0.264009;stroke-miterlimit:4;stroke-dasharray:none;stroke-opacity:1"
       id="circle3511"
       cx="44.822563"
       cy="47.283535"
       r="0.38718569" />
    <path
       style="fill:#000000;stroke-width:4.55806;fill-opacity:1;opacity:1"
       d="m 51.615166,5.9934367 c -2.317891,0.080818 -5.120801,1.2785969 -6.781092,2.9089673 -1.487728,1.447807 -2.788924,3.75536 -2.439142,5.969383 2.583722,0.169211 5.214071,-1.100294 6.823057,-2.730766 1.608938,-1.634866 2.690997,-3.8845658 2.397177,-6.1475843 z m -2.098691,8.9229013 c -2.905516,-0.276126 -4.262673,1.617018 -5.736411,1.617018 -1.473737,0 -3.749655,-1.572569 -6.156151,-1.527951 -3.166685,0.04378 -6.095989,1.732907 -7.726435,4.410215 -3.290276,5.390276 -0.838547,13.377682 2.368252,17.747808 1.566559,2.13829 3.483356,4.468135 5.894516,4.468135 2.411159,0 3.255297,-1.456732 6.109513,-1.456732 2.85887,0 2.233933,1.456732 4.757031,1.456732 2.523081,0 3.689022,-2.240745 5.246708,-4.38794 1.800222,-2.481309 2.056715,-4.521592 2.056715,-4.521592 0,0 -4.626436,-2.280848 -4.673074,-7.608761 -0.04714,-4.459227 4.673074,-6.708876 4.673074,-6.708876 -2.191967,-3.024788 -5.596495,-3.439095 -6.813738,-3.488091 z"
       id="path989" />
  </g>
</svg>
