<?xml version="1.0" encoding="UTF-8" standalone="no"?>
<svg
   width="320"
   height="180"
   viewBox="0 0 84.666664 47.625001"
   version="1.1"
   id="svg8"
   sodipodi:docname="fedora-logo-symbolic.svg"
   inkscape:version="1.1 (c4e8f9ed74, 2021-05-24)"
   xmlns:inkscape="http://www.inkscape.org/namespaces/inkscape"
   xmlns:sodipodi="http://sodipodi.sourceforge.net/DTD/sodipodi-0.dtd"
   xmlns="http://www.w3.org/2000/svg"
   xmlns:svg="http://www.w3.org/2000/svg"
   xmlns:rdf="http://www.w3.org/1999/02/22-rdf-syntax-ns#"
   xmlns:cc="http://creativecommons.org/ns#"
   xmlns:dc="http://purl.org/dc/elements/1.1/">
  <sodipodi:namedview
     id="namedview42"
     pagecolor="#ffffff"
     bordercolor="#666666"
     borderopacity="1.0"
     inkscape:pageshadow="2"
     inkscape:pageopacity="0.0"
     inkscape:pagecheckerboard="0"
     showgrid="false"
     inkscape:zoom="4"
     inkscape:cx="138.625"
     inkscape:cy="71"
     inkscape:window-width="1920"
     inkscape:window-height="1006"
     inkscape:window-x="1366"
     inkscape:window-y="26"
     inkscape:window-maximized="1"
     inkscape:current-layer="svg8"
     width="320px" />
  <defs
     id="defs2" />
  <metadata
     id="metadata5">
    <rdf:RDF>
      <cc:Work
         rdf:about="">
        <dc:format>image/svg+xml</dc:format>
        <dc:type
           rdf:resource="http://purl.org/dc/dcmitype/StillImage" />
      </cc:Work>
    </rdf:RDF>
  </metadata>
  <rect
     style="fill:#ffffff;fill-opacity:1;stroke:none;stroke-width:2.75472;stroke-linejoin:miter;stroke-miterlimit:4;stroke-dasharray:none;stroke-opacity:1"
     id="rect1527"
     width="84.666008"
     height="47.624172"
     x="0.0011975408"
     y="0.00077672349" />
  <path
     id="path967"
     d="M 2.9866863,1.9948733 H 81.675795"
     style="fill:none;stroke:#97bb72;stroke-width:0.622109;stroke-linecap:butt;stroke-linejoin:miter;stroke-miterlimit:4;stroke-dasharray:none;stroke-opacity:1" />
  <path
     style="fill:none;stroke:#97bb72;stroke-width:0.622128;stroke-linecap:butt;stroke-linejoin:miter;stroke-miterlimit:4;stroke-dasharray:none;stroke-opacity:1"
     d="M 2.9866859,45.635772 H 81.680458"
     id="path969" />
  <path
     id="path971"
     d="M 3.2207896,1.6800533 V 45.937373"
     style="fill:none;stroke:#97bb72;stroke-width:0.466555;stroke-linecap:butt;stroke-linejoin:miter;stroke-miterlimit:4;stroke-dasharray:none;stroke-opacity:1" />
  <path
     style="fill:none;stroke:#97bb72;stroke-width:0.466201;stroke-linecap:butt;stroke-linejoin:miter;stroke-miterlimit:4;stroke-dasharray:none;stroke-opacity:1"
     d="M 81.448098,1.6800533 V 45.870399"
     id="path975" />
  <path
     id="path988"
     d="m 4.9845,43.967764 h 7.448501"
     style="opacity:1;fill:none;stroke:#97bb72;stroke-width:0.491834;stroke-linecap:butt;stroke-linejoin:miter;stroke-miterlimit:4;stroke-dasharray:none;stroke-opacity:1" />
  <path
     id="path1726"
     d="M 2.9866859,42.256333 H 81.476406"
     style="fill:none;stroke:#97bb72;stroke-width:0.62132;stroke-linecap:butt;stroke-linejoin:miter;stroke-miterlimit:4;stroke-dasharray:none;stroke-opacity:1" />
  <path
     style="opacity:1;fill:none;stroke:#97bb72;stroke-width:0.491834;stroke-linecap:butt;stroke-linejoin:miter;stroke-miterlimit:4;stroke-dasharray:none;stroke-opacity:1"
     d="M 6.1095471,7.394849 H 9.8063744"
     id="path973" />
  <rect
     y="5.946825"
     x="3.8353965"
     height="16.432278"
     width="7.4400315"
     id="rect1728"
     style="opacity:1;fill:none;fill-opacity:1;stroke:#97bb72;stroke-width:0.33998958;stroke-linecap:square;stroke-linejoin:miter;stroke-miterlimit:4;stroke-dasharray:none;stroke-dashoffset:10.63;stroke-opacity:1;paint-order:fill markers stroke" />
  <path
     id="path1730"
     d="M 6.1095471,9.3621838 H 8.6536396"
     style="opacity:1;fill:none;stroke:#97bb72;stroke-width:0.491834;stroke-linecap:butt;stroke-linejoin:miter;stroke-miterlimit:4;stroke-dasharray:none;stroke-opacity:1" />
  <rect
     y="8.8208323"
     x="4.5939727"
     height="1.0827239"
     width="1.0655378"
     id="rect1732"
     style="opacity:1;fill:#97bb72;fill-opacity:1;stroke:none;stroke-width:0.272213;stroke-linecap:round;stroke-linejoin:bevel;stroke-miterlimit:4;stroke-dasharray:none;stroke-dashoffset:10.63;stroke-opacity:1;paint-order:stroke fill markers" />
  <path
     style="opacity:1;fill:none;stroke:#97bb72;stroke-width:0.491834;stroke-linecap:butt;stroke-linejoin:miter;stroke-miterlimit:4;stroke-dasharray:none;stroke-opacity:1"
     d="M 6.1095471,11.329519 H 9.1225487"
     id="path1736" />
  <rect
     style="opacity:1;fill:#97bb72;fill-opacity:1;stroke:none;stroke-width:0.272213;stroke-linecap:round;stroke-linejoin:bevel;stroke-miterlimit:4;stroke-dasharray:none;stroke-dashoffset:10.63;stroke-opacity:1;paint-order:stroke fill markers"
     id="rect1738"
     width="1.0655378"
     height="1.0827239"
     x="4.5939727"
     y="10.788164" />
  <path
     id="path1742"
     d="M 6.1095471,13.296855 H 8.8685562"
     style="opacity:1;fill:none;stroke:#97bb72;stroke-width:0.491834;stroke-linecap:butt;stroke-linejoin:miter;stroke-miterlimit:4;stroke-dasharray:none;stroke-opacity:1" />
  <rect
     y="12.755498"
     x="4.5939727"
     height="1.0827239"
     width="1.0655378"
     id="rect1744"
     style="opacity:1;fill:#97bb72;fill-opacity:1;stroke:none;stroke-width:0.272213;stroke-linecap:round;stroke-linejoin:bevel;stroke-miterlimit:4;stroke-dasharray:none;stroke-dashoffset:10.63;stroke-opacity:1;paint-order:stroke fill markers" />
  <path
     style="opacity:1;fill:none;stroke:#97bb72;stroke-width:0.491834;stroke-linecap:butt;stroke-linejoin:miter;stroke-miterlimit:4;stroke-dasharray:none;stroke-opacity:1"
     d="m 6.1095471,15.26419 h 2.329175"
     id="path1748" />
  <rect
     style="opacity:1;fill:#97bb72;fill-opacity:1;stroke:none;stroke-width:0.272213;stroke-linecap:round;stroke-linejoin:bevel;stroke-miterlimit:4;stroke-dasharray:none;stroke-dashoffset:10.63;stroke-opacity:1;paint-order:stroke fill markers"
     id="rect1750"
     width="1.0655378"
     height="1.0827239"
     x="4.5939727"
     y="14.722831" />
  <path
     id="path1754"
     d="M 6.1095471,17.231526 H 9.5719198"
     style="opacity:1;fill:none;stroke:#97bb72;stroke-width:0.491834;stroke-linecap:butt;stroke-linejoin:miter;stroke-miterlimit:4;stroke-dasharray:none;stroke-opacity:1" />
  <rect
     y="16.690163"
     x="4.5939727"
     height="1.0827239"
     width="1.0655378"
     id="rect1756"
     style="opacity:1;fill:#97bb72;fill-opacity:1;stroke:none;stroke-width:0.272213;stroke-linecap:round;stroke-linejoin:bevel;stroke-miterlimit:4;stroke-dasharray:none;stroke-dashoffset:10.63;stroke-opacity:1;paint-order:stroke fill markers" />
  <path
     style="opacity:1;fill:none;stroke:#97bb72;stroke-width:0.491834;stroke-linecap:butt;stroke-linejoin:miter;stroke-miterlimit:4;stroke-dasharray:none;stroke-opacity:1"
     d="M 6.1095471,19.198862 H 8.1065787"
     id="path1760" />
  <rect
     style="opacity:1;fill:#97bb72;fill-opacity:1;stroke:none;stroke-width:0.272213;stroke-linecap:round;stroke-linejoin:bevel;stroke-miterlimit:4;stroke-dasharray:none;stroke-dashoffset:10.63;stroke-opacity:1;paint-order:stroke fill markers"
     id="rect1762"
     width="1.0655378"
     height="1.0827239"
     x="4.5939727"
     y="18.657501" />
  <path
     id="path1766"
     d="M 6.1095471,21.166198 H 8.5950258"
     style="opacity:1;fill:none;stroke:#97bb72;stroke-width:0.491834;stroke-linecap:butt;stroke-linejoin:miter;stroke-miterlimit:4;stroke-dasharray:none;stroke-opacity:1" />
  <rect
     y="20.624836"
     x="4.5939727"
     height="1.0827239"
     width="1.0655378"
     id="rect1768"
     style="opacity:1;fill:#97bb72;fill-opacity:1;stroke:none;stroke-width:0.272213;stroke-linecap:round;stroke-linejoin:bevel;stroke-miterlimit:4;stroke-dasharray:none;stroke-dashoffset:10.63;stroke-opacity:1;paint-order:stroke fill markers" />
  <rect
     style="fill:#97bb72;fill-opacity:1;stroke:none;stroke-width:0.272213;stroke-linecap:round;stroke-linejoin:bevel;stroke-miterlimit:4;stroke-dasharray:none;stroke-dashoffset:10.63;stroke-opacity:1;paint-order:stroke fill markers"
     id="rect1750-2"
     width="1.0655378"
     height="1.0827239"
     x="-4.1369791"
     y="70.659401"
     transform="rotate(-90)" />
  <rect
     y="68.69207"
     x="-4.1369791"
     height="1.0827239"
     width="1.0655378"
     id="rect1756-3"
     style="fill:#97bb72;fill-opacity:1;stroke:none;stroke-width:0.272213;stroke-linecap:round;stroke-linejoin:bevel;stroke-miterlimit:4;stroke-dasharray:none;stroke-dashoffset:10.63;stroke-opacity:1;paint-order:stroke fill markers"
     transform="rotate(-90)" />
  <rect
     style="fill:#97bb72;fill-opacity:1;stroke:none;stroke-width:0.272213;stroke-linecap:round;stroke-linejoin:bevel;stroke-miterlimit:4;stroke-dasharray:none;stroke-dashoffset:10.63;stroke-opacity:1;paint-order:stroke fill markers"
     id="rect1762-7"
     width="1.0655378"
     height="1.0827239"
     x="-4.1369791"
     y="66.724731"
     transform="rotate(-90)" />
  <rect
     y="64.757393"
     x="-4.1369791"
     height="1.0827239"
     width="1.0655378"
     id="rect1768-5"
     style="fill:#97bb72;fill-opacity:1;stroke:none;stroke-width:0.272213;stroke-linecap:round;stroke-linejoin:bevel;stroke-miterlimit:4;stroke-dasharray:none;stroke-dashoffset:10.63;stroke-opacity:1;paint-order:stroke fill markers"
     transform="rotate(-90)" />
  <rect
     style="opacity:1;fill:#97bb72;fill-opacity:1;stroke:none;stroke-width:0.272213;stroke-linecap:round;stroke-linejoin:bevel;stroke-miterlimit:4;stroke-dasharray:none;stroke-dashoffset:10.63;stroke-opacity:1;paint-order:stroke fill markers"
     id="rect1000"
     width="1.0655378"
     height="1.0827239"
     x="4.5939727"
     y="6.853497" />
  <path
     id="path879"
     d="m 72.717873,3.5730904 h 7.448504"
     style="opacity:1;fill:none;stroke:#97bb72;stroke-width:0.491834;stroke-linecap:butt;stroke-linejoin:miter;stroke-miterlimit:4;stroke-dasharray:none;stroke-opacity:1" />
  <path
     id="path887"
     d="M 2.9866859,5.2845202 H 81.476406"
     style="fill:none;stroke:#97bb72;stroke-width:0.62132;stroke-linecap:butt;stroke-linejoin:miter;stroke-miterlimit:4;stroke-dasharray:none;stroke-opacity:1" />
  <path
     id="path1118"
     d="m 14.509503,43.967764 h 7.448504"
     style="opacity:1;fill:none;stroke:#97bb72;stroke-width:0.491834;stroke-linecap:butt;stroke-linejoin:miter;stroke-miterlimit:4;stroke-dasharray:none;stroke-opacity:1" />
  <path
     id="path1129"
     d="M 24.563676,43.967764 H 32.01218"
     style="opacity:1;fill:none;stroke:#97bb72;stroke-width:0.491834;stroke-linecap:butt;stroke-linejoin:miter;stroke-miterlimit:4;stroke-dasharray:none;stroke-opacity:1" />
  <rect
     y="17.85467"
     x="11.800908"
     height="9.0796385"
     width="6.852551"
     id="rect1728-6"
     style="fill:none;fill-opacity:1;stroke:#97bb72;stroke-width:0.324694;stroke-linecap:square;stroke-linejoin:miter;stroke-miterlimit:4;stroke-dasharray:none;stroke-dashoffset:10.63;stroke-opacity:1;paint-order:fill markers stroke" />
  <path
     id="path1730-2"
     d="M 14.125727,21.320704 H 16.66982"
     style="fill:none;stroke:#97bb72;stroke-width:0.491834;stroke-linecap:butt;stroke-linejoin:miter;stroke-miterlimit:4;stroke-dasharray:none;stroke-opacity:1" />
  <rect
     y="20.779352"
     x="12.610152"
     height="1.0827239"
     width="1.0655378"
     id="rect1732-9"
     style="fill:#97bb72;fill-opacity:1;stroke:none;stroke-width:0.272213;stroke-linecap:round;stroke-linejoin:bevel;stroke-miterlimit:4;stroke-dasharray:none;stroke-dashoffset:10.63;stroke-opacity:1;paint-order:stroke fill markers" />
  <path
     style="fill:none;stroke:#97bb72;stroke-width:0.491834;stroke-linecap:butt;stroke-linejoin:miter;stroke-miterlimit:4;stroke-dasharray:none;stroke-opacity:1"
     d="m 14.125727,23.288039 h 3.013002"
     id="path1736-1" />
  <rect
     style="fill:#97bb72;fill-opacity:1;stroke:none;stroke-width:0.272213;stroke-linecap:round;stroke-linejoin:bevel;stroke-miterlimit:4;stroke-dasharray:none;stroke-dashoffset:10.63;stroke-opacity:1;paint-order:stroke fill markers"
     id="rect1738-2"
     width="1.0655378"
     height="1.0827239"
     x="12.610152"
     y="22.746685" />
  <path
     id="path1742-7"
     d="m 14.125727,25.255375 h 2.759009"
     style="fill:none;stroke:#97bb72;stroke-width:0.491834;stroke-linecap:butt;stroke-linejoin:miter;stroke-miterlimit:4;stroke-dasharray:none;stroke-opacity:1" />
  <rect
     y="24.714022"
     x="12.610152"
     height="1.0827239"
     width="1.0655378"
     id="rect1744-0"
     style="fill:#97bb72;fill-opacity:1;stroke:none;stroke-width:0.272213;stroke-linecap:round;stroke-linejoin:bevel;stroke-miterlimit:4;stroke-dasharray:none;stroke-dashoffset:10.63;stroke-opacity:1;paint-order:stroke fill markers" />
  <path
     style="fill:none;stroke:#97bb72;stroke-width:0.491834;stroke-linecap:butt;stroke-linejoin:miter;stroke-miterlimit:4;stroke-dasharray:none;stroke-opacity:1"
     d="m 14.125727,19.353369 h 3.696827"
     id="path1187-79" />
  <rect
     style="fill:#97bb72;fill-opacity:1;stroke:none;stroke-width:0.272213;stroke-linecap:round;stroke-linejoin:bevel;stroke-miterlimit:4;stroke-dasharray:none;stroke-dashoffset:10.63;stroke-opacity:1;paint-order:stroke fill markers"
     id="rect1189-2"
     width="1.0655378"
     height="1.0827239"
     x="12.610152"
     y="18.812012" />
  <path
     style="fill:none;stroke:#97bb72;stroke-width:0.491834;stroke-linecap:butt;stroke-linejoin:miter;stroke-miterlimit:4;stroke-dasharray:none;stroke-opacity:1"
     d="M 5.8399159,3.5776081 H 9.5367408"
     id="path973-3" />
  <rect
     style="fill:#97bb72;fill-opacity:1;stroke:none;stroke-width:0.272213;stroke-linecap:round;stroke-linejoin:bevel;stroke-miterlimit:4;stroke-dasharray:none;stroke-dashoffset:10.63;stroke-opacity:1;paint-order:stroke fill markers"
     id="rect1000-6"
     width="1.0655378"
     height="1.0827239"
     x="4.3243399"
     y="3.0362561" />
  <path
     style="fill:none;stroke:#97bb72;stroke-width:0.579439;stroke-linecap:butt;stroke-linejoin:miter;stroke-miterlimit:4;stroke-dasharray:none;stroke-opacity:1"
     d="M 5.8399159,3.5776081 H 10.970977"
     id="path1187-7" />
  <rect
     style="fill:#97bb72;fill-opacity:1;stroke:none;stroke-width:0.272213;stroke-linecap:round;stroke-linejoin:bevel;stroke-miterlimit:4;stroke-dasharray:none;stroke-dashoffset:10.63;stroke-opacity:1;paint-order:stroke fill markers"
     id="rect1189-5"
     width="1.0655378"
     height="1.0827239"
     x="4.3243399"
     y="3.0362561" />
  <rect
     style="fill:#97bb72;fill-opacity:1;stroke:none;stroke-width:0.272213;stroke-linecap:round;stroke-linejoin:bevel;stroke-miterlimit:4;stroke-dasharray:none;stroke-dashoffset:10.63;stroke-opacity:1;paint-order:stroke fill markers"
     id="rect1189-5-0"
     width="1.0655378"
     height="1.0827239"
     x="79.399864"
     y="43.319839" />
  <path
     style="fill:none;stroke:#97bb72;stroke-width:0.539706;stroke-linecap:butt;stroke-linejoin:miter;stroke-miterlimit:4;stroke-dasharray:none;stroke-opacity:1"
     d="m 11.707522,3.5776081 h 4.451497"
     id="path1317" />
  <path
     style="fill:none;stroke:#97bb72;stroke-width:0.539706;stroke-linecap:butt;stroke-linejoin:miter;stroke-miterlimit:4;stroke-dasharray:none;stroke-opacity:1"
     d="m 16.844201,3.5776081 h 4.451497"
     id="path1328" />
  <g
     id="g1064"
     transform="matrix(1.4350456,0,0,1.4350456,24.395263,6.9507892)">
    <path
       style="opacity:0.2"
       d="M 12.500053,1.500525 C 6.7034985,1.500525 2.0042,6.1992985 2,11.994802 v 8.875695 C 2,21.773134 2.7268661,22.5 3.6295031,22.5 H 12.505723 C 18.302802,22.5 23,17.797604 23,11.999947 23,6.2007685 18.298916,1.499895 12.499947,1.499895 Z"
       id="path1038" />
    <path
       style="fill:#324e89"
       d="M 12.500053,1.000525 C 6.7034985,1.000525 2.0042,5.6992985 2,11.494802 v 8.875695 C 2,21.273134 2.7268661,22 3.6295031,22 H 12.505723 C 18.302802,22 23,17.297604 23,11.499947 23,5.7007685 18.298916,0.999895 12.499947,0.999895 Z"
       id="path1040" />
    <g
       transform="translate(0.5,-0.5)"
       id="g1046">
      <path
         style="opacity:0.2;fill:#ffffff"
         d="m 15,4.5 c -2.485281,0 -4.5,2.0147185 -4.5,4.5 v 2.5 H 8 c -2.4852815,0 -4.5,2.014719 -4.5,4.5 0,2.485281 2.0147185,4.5 4.5,4.5 2.485281,0 4.5,-2.014719 4.5,-4.5 V 13.5 H 15 c 2.485281,0 4.5,-2.014719 4.5,-4.5 0,-2.4852815 -2.014719,-4.5 -4.5,-4.5 z m 0,2 c 1.380711,0 2.5,1.1192885 2.5,2.5 0,1.380712 -1.119289,2.5 -2.5,2.5 H 13.009766 C 12.778218,11.5 12.5,11.500351 12.5,10.951172 V 9 c 0,-1.3807115 1.119288,-2.5 2.5,-2.5 z m -7,7 H 9.9902345 C 10.221782,13.5 10.5,13.49965 10.5,14.048828 V 16 c 0,1.380711 -1.119288,2.5 -2.5,2.5 -1.3807115,0 -2.5,-1.119289 -2.5,-2.5 0,-1.380712 1.1192885,-2.5 2.5,-2.5 z"
         id="path1042" />
      <path
         style="fill:#ffffff"
         d="m 15,4.5 c -2.485281,0 -4.5,2.0147185 -4.5,4.5 v 2.5 H 8 a 1,1 0 0 0 -0.099609,0.0049 c -6.5e-4,1.4e-5 -0.0013,-1.5e-5 -0.00195,0 A 1,1 0 0 0 7,12.5 a 1,1 0 0 0 1,1 H 9.9902345 C 10.221782,13.5 10.5,13.49965 10.5,14.048828 V 16 C 10.5,17.380711 9.380712,18.5 8,18.5 7.615968,18.5 7.256765,18.40667 6.9316405,18.251953 6.7966635,18.187257 6.649971,18.150303 6.5,18.15039 c -0.5522845,0 -1,0.447716 -1,1 5e-4,0.377878 0.2139685,0.723198 0.551758,0.892579 2.85e-5,0.0031 -3.1e-5,0.0057 0,0.0088 C 6.6419455,20.33614 7.3010145,20.5 8,20.5 c 2.485281,0 4.5,-2.014719 4.5,-4.5 v -2.5 h 2 a 1,1 0 0 0 1,-1 1,1 0 0 0 -1,-1 H 13.009766 C 12.778218,11.5 12.5,11.500351 12.5,10.951172 V 9 c 0,-1.3807115 1.119288,-2.5 2.5,-2.5 0.252093,0 0.490286,0.04876 0.719727,0.118164 -2.82e-4,-0.00285 -7e-4,-0.00598 -0.001,-0.00879 0.09132,0.026995 0.186025,0.040805 0.28125,0.041015 0.552284,0 1,-0.4477155 1,-1 -3.8e-5,-0.093495 -0.01318,-0.1865235 -0.03907,-0.276367 5.5e-4,-0.01534 0.0039,-0.029365 0.0039,-0.04492 -0.0082,-0.013085 -0.02406,-0.026795 -0.0332,-0.04004 v -0.001 C 16.807022,4.9679358 16.526781,4.7341267 16.189453,4.6689453 c -0.0071,-0.00376 -0.0144,-0.00703 -0.02148,-0.010742 C 15.794918,4.5580394 15.404669,4.5 15,4.5 Z"
         id="path1044" />
    </g>
    <path
       style="opacity:0.1;fill:#ffffff"
       d="M 12.5,1 C 6.7034455,1 2.0042,5.6986371 2,11.494141 v 0.5 C 2.0042,6.1986371 6.7034455,1.5 12.5,1.5 18.214604,1.5 22.852285,6.0674327 22.986328,11.75 22.988305,11.666129 23,11.584346 23,11.5 23,5.7008215 18.298969,1 12.5,1 Z"
       id="path1048" />
  </g>
  <rect
     y="26.148153"
     x="-4.1370859"
     height="1.0827239"
     width="1.0655378"
     id="rect887"
     style="fill:#97bb72;fill-opacity:1;stroke:none;stroke-width:0.272213;stroke-linecap:round;stroke-linejoin:bevel;stroke-miterlimit:4;stroke-dasharray:none;stroke-dashoffset:10.63;stroke-opacity:1;paint-order:stroke fill markers"
     transform="rotate(-90)" />
  <rect
     style="fill:#97bb72;fill-opacity:1;stroke:none;stroke-width:0.272213;stroke-linecap:round;stroke-linejoin:bevel;stroke-miterlimit:4;stroke-dasharray:none;stroke-dashoffset:10.63;stroke-opacity:1;paint-order:stroke fill markers"
     id="rect889"
     width="1.0655378"
     height="1.0827239"
     x="-4.1370859"
     y="24.215897"
     transform="rotate(-90)" />
  <rect
     y="22.423967"
     x="-4.1370859"
     height="1.0827239"
     width="1.0655378"
     id="rect891"
     style="fill:#97bb72;fill-opacity:1;stroke:none;stroke-width:0.272213;stroke-linecap:round;stroke-linejoin:bevel;stroke-miterlimit:4;stroke-dasharray:none;stroke-dashoffset:10.63;stroke-opacity:1;paint-order:stroke fill markers"
     transform="rotate(-90)" />
</svg>
