<?xml version="1.0" encoding="UTF-8" standalone="no"?>
<svg
   xmlns:dc="http://purl.org/dc/elements/1.1/"
   xmlns:cc="http://creativecommons.org/ns#"
   xmlns:rdf="http://www.w3.org/1999/02/22-rdf-syntax-ns#"
   xmlns:svg="http://www.w3.org/2000/svg"
   xmlns="http://www.w3.org/2000/svg"
   xmlns:xlink="http://www.w3.org/1999/xlink"
   xmlns:sodipodi="http://sodipodi.sourceforge.net/DTD/sodipodi-0.dtd"
   xmlns:inkscape="http://www.inkscape.org/namespaces/inkscape"
   width="320"
   height="180"
   viewBox="0 0 84.666663 47.625001"
   version="1.1"
   id="svg8"
   inkscape:version="1.0.2 (e86c870879, 2021-01-15)"
   sodipodi:docname="fedora-logo.svg"
   inkscape:export-filename="/home/kunruh/src/mate-layouts/data/layout-previews/fedora-logo.png"
   inkscape:export-xdpi="96"
   inkscape:export-ydpi="96">
  <defs
     id="defs2">
    <linearGradient
       inkscape:collect="always"
       id="linearGradient1397">
      <stop
         style="stop-color:#3d3846;stop-opacity:1;"
         offset="0"
         id="stop1393" />
      <stop
         style="stop-color:#3d3846;stop-opacity:0;"
         offset="1"
         id="stop1395" />
    </linearGradient>
    <style
       id="current-color-scheme"
       type="text/css">
   .ColorScheme-Text { color:#dfdfdf; } .ColorScheme-Highlight { color:#4285f4; }
  </style>
    <style
       id="current-color-scheme-0"
       type="text/css">
   .ColorScheme-Text { color:#dfdfdf; } .ColorScheme-Highlight { color:#4285f4; }
  </style>
    <style
       id="current-color-scheme-7"
       type="text/css">
   .ColorScheme-Text { color:#dfdfdf; } .ColorScheme-Highlight { color:#4285f4; }
  </style>
    <style
       id="current-color-scheme-8"
       type="text/css">
   .ColorScheme-Text { color:#dfdfdf; } .ColorScheme-Highlight { color:#4285f4; }
  </style>
    <style
       id="current-color-scheme-2"
       type="text/css">
   .ColorScheme-Text { color:#dfdfdf; } .ColorScheme-Highlight { color:#4285f4; }
  </style>
    <filter
       style="color-interpolation-filters:sRGB"
       inkscape:label="Greyscale"
       id="filter939">
      <feColorMatrix
         values="0.21 0.72 0.072 1.5 0 0.21 0.72 0.072 1.5 0 0.21 0.72 0.072 1.5 0 0 0 0 1 0 "
         id="feColorMatrix937" />
    </filter>
    <filter
       style="color-interpolation-filters:sRGB"
       inkscape:label="Lightness-Contrast"
       id="filter2112">
      <feColorMatrix
         values="1 0 0 0.15 -0 0 1 0 0.15 -0 0 0 1 0.15 -0 0 0 0 1 0"
         id="feColorMatrix2110" />
    </filter>
    <filter
       style="color-interpolation-filters:sRGB"
       inkscape:label="Lightness-Contrast"
       id="filter2116">
      <feColorMatrix
         values="1 0 0 0.15 -0 0 1 0 0.15 -0 0 0 1 0.15 -0 0 0 0 1 0"
         id="feColorMatrix2114" />
    </filter>
    <filter
       style="color-interpolation-filters:sRGB"
       inkscape:label="Lightness-Contrast"
       id="filter2120">
      <feColorMatrix
         values="1 0 0 0.15 -0 0 1 0 0.15 -0 0 0 1 0.15 -0 0 0 0 1 0"
         id="feColorMatrix2118" />
    </filter>
    <filter
       style="color-interpolation-filters:sRGB"
       inkscape:label="Lightness-Contrast"
       id="filter2124">
      <feColorMatrix
         values="1 0 0 0.15 -0 0 1 0 0.15 -0 0 0 1 0.15 -0 0 0 0 1 0"
         id="feColorMatrix2122" />
    </filter>
    <filter
       style="color-interpolation-filters:sRGB"
       inkscape:label="Lightness-Contrast"
       id="filter2128">
      <feColorMatrix
         values="1 0 0 0.15 -0 0 1 0 0.15 -0 0 0 1 0.15 -0 0 0 0 1 0"
         id="feColorMatrix2126" />
    </filter>
    <filter
       style="color-interpolation-filters:sRGB"
       inkscape:label="Lightness-Contrast"
       id="filter2132">
      <feColorMatrix
         values="1 0 0 0.15 -0 0 1 0 0.15 -0 0 0 1 0.15 -0 0 0 0 1 0"
         id="feColorMatrix2130" />
    </filter>
    <filter
       style="color-interpolation-filters:sRGB"
       inkscape:label="Lightness-Contrast"
       id="filter2136">
      <feColorMatrix
         values="1 0 0 0.15 -0 0 1 0 0.15 -0 0 0 1 0.15 -0 0 0 0 1 0"
         id="feColorMatrix2134" />
    </filter>
    <linearGradient
       inkscape:collect="always"
       xlink:href="#linearGradient1397"
       id="linearGradient1399"
       x1="16.012852"
       y1="20.195482"
       x2="16.012852"
       y2="36.881702"
       gradientUnits="userSpaceOnUse"
       gradientTransform="matrix(0.46671697,0,0,0.44097222,-0.00344659,-1.3328261e-7)" />
    <linearGradient
       inkscape:collect="always"
       xlink:href="#linearGradient1397"
       id="linearGradient1399-2"
       x1="16.012852"
       y1="20.195482"
       x2="16.012852"
       y2="36.881702"
       gradientUnits="userSpaceOnUse"
       gradientTransform="matrix(0.36972334,0,0,0.4409723,-15.123468,-0.08412302)" />
    <linearGradient
       inkscape:collect="always"
       xlink:href="#linearGradient1397"
       id="linearGradient1433"
       x1="20.799313"
       y1="24.846085"
       x2="32.623955"
       y2="36.670727"
       gradientUnits="userSpaceOnUse"
       gradientTransform="matrix(0.4409723,0,0,0.44097222,0.82408899,0.0059113)" />
    <linearGradient
       inkscape:collect="always"
       xlink:href="#linearGradient1397"
       id="linearGradient1433-6"
       x1="20.799313"
       y1="24.846085"
       x2="32.623955"
       y2="36.670727"
       gradientUnits="userSpaceOnUse"
       gradientTransform="matrix(0.4409723,0,0,0.44097222,14.753582,-5.4935954)" />
    <linearGradient
       inkscape:collect="always"
       xlink:href="#linearGradient1397"
       id="linearGradient1433-6-1"
       x1="20.799313"
       y1="24.846085"
       x2="32.623955"
       y2="36.670727"
       gradientUnits="userSpaceOnUse"
       gradientTransform="matrix(0.4409723,0,0,-0.44097222,14.753582,20.849701)" />
    <linearGradient
       inkscape:collect="always"
       xlink:href="#linearGradient1397"
       id="linearGradient1399-2-9"
       x1="16.012852"
       y1="20.195482"
       x2="16.012852"
       y2="36.881702"
       gradientUnits="userSpaceOnUse"
       gradientTransform="matrix(0.11843211,0,0,0.4409723,-9.5896208,13.862428)" />
    <linearGradient
       inkscape:collect="always"
       xlink:href="#linearGradient1397"
       id="linearGradient1399-7"
       x1="16.012852"
       y1="20.195482"
       x2="16.012852"
       y2="36.881702"
       gradientUnits="userSpaceOnUse"
       gradientTransform="matrix(0.43602048,0,0,0.44097222,14.931049,-5.4935972)" />
    <linearGradient
       inkscape:collect="always"
       xlink:href="#linearGradient1397"
       id="linearGradient1399-7-5"
       x1="16.012852"
       y1="20.195482"
       x2="16.012852"
       y2="36.881702"
       gradientUnits="userSpaceOnUse"
       gradientTransform="matrix(0.43602048,0,0,0.44097222,14.91277,-20.849703)" />
  </defs>
  <sodipodi:namedview
     id="base"
     pagecolor="#ffffff"
     bordercolor="#666666"
     borderopacity="1.0"
     inkscape:pageopacity="0.0"
     inkscape:pageshadow="2"
     inkscape:zoom="4"
     inkscape:cx="105.94209"
     inkscape:cy="89.582722"
     inkscape:document-units="px"
     inkscape:current-layer="layer1"
     inkscape:document-rotation="0"
     showgrid="false"
     inkscape:snap-bbox="false"
     inkscape:snap-page="true"
     inkscape:window-width="1920"
     inkscape:window-height="1006"
     inkscape:window-x="0"
     inkscape:window-y="26"
     inkscape:window-maximized="1"
     units="px" />
  <metadata
     id="metadata5">
    <rdf:RDF>
      <cc:Work
         rdf:about="">
        <dc:format>image/svg+xml</dc:format>
        <dc:type
           rdf:resource="http://purl.org/dc/dcmitype/StillImage" />
        <dc:title />
      </cc:Work>
    </rdf:RDF>
  </metadata>
  <g
     inkscape:label="Layer 1"
     inkscape:groupmode="layer"
     id="layer1">
    <rect
       style="fill:#deddda;fill-opacity:1;stroke:none;stroke-width:0.0291685;stroke-miterlimit:4;stroke-dasharray:none;stroke-opacity:1"
       id="rect1593"
       width="84.666672"
       height="41.149578"
       x="-8.5063912e-06"
       y="3.2377098" />
    <g
       id="g1057"
       transform="matrix(1.5545834,0,0,1.5545834,25.546875,8.1920589)"
       style="fill:#000000;fill-opacity:1;opacity:0.5">
      <path
         style="opacity:0.2;fill:#000000;fill-opacity:1"
         d="M 12.500053,1.500525 C 6.7034985,1.500525 2.0042,6.1992985 2,11.994802 v 8.875695 C 2,21.773134 2.7268661,22.5 3.6295031,22.5 H 12.505723 C 18.302802,22.5 23,17.797604 23,11.999947 23,6.2007685 18.298916,1.499895 12.499947,1.499895 Z"
         id="path1045" />
      <path
         style="fill:#000000;fill-opacity:1"
         d="M 12.500053,1.000525 C 6.7034985,1.000525 2.0042,5.6992985 2,11.494802 v 8.875695 C 2,21.273134 2.7268661,22 3.6295031,22 H 12.505723 C 18.302802,22 23,17.297604 23,11.499947 23,5.7007685 18.298916,0.999895 12.499947,0.999895 Z"
         id="path1047" />
      <g
         transform="translate(0.5,-0.5)"
         id="g1053"
         style="fill:#000000;fill-opacity:1">
        <path
           style="opacity:0.2;fill:#000000;fill-opacity:1"
           d="m 15,4.5 c -2.485281,0 -4.5,2.0147185 -4.5,4.5 v 2.5 H 8 c -2.4852815,0 -4.5,2.014719 -4.5,4.5 0,2.485281 2.0147185,4.5 4.5,4.5 2.485281,0 4.5,-2.014719 4.5,-4.5 V 13.5 H 15 c 2.485281,0 4.5,-2.014719 4.5,-4.5 0,-2.4852815 -2.014719,-4.5 -4.5,-4.5 z m 0,2 c 1.380711,0 2.5,1.1192885 2.5,2.5 0,1.380712 -1.119289,2.5 -2.5,2.5 H 13.009766 C 12.778218,11.5 12.5,11.500351 12.5,10.951172 V 9 c 0,-1.3807115 1.119288,-2.5 2.5,-2.5 z m -7,7 H 9.9902345 C 10.221782,13.5 10.5,13.49965 10.5,14.048828 V 16 c 0,1.380711 -1.119288,2.5 -2.5,2.5 -1.3807115,0 -2.5,-1.119289 -2.5,-2.5 0,-1.380712 1.1192885,-2.5 2.5,-2.5 z"
           id="path1049" />
        <path
           style="fill:#000000;fill-opacity:1"
           d="m 15,4.5 c -2.485281,0 -4.5,2.0147185 -4.5,4.5 v 2.5 H 8 a 1,1 0 0 0 -0.099609,0.0049 c -6.5e-4,1.4e-5 -0.0013,-1.5e-5 -0.00195,0 A 1,1 0 0 0 7,12.5 a 1,1 0 0 0 1,1 H 9.9902345 C 10.221782,13.5 10.5,13.49965 10.5,14.048828 V 16 C 10.5,17.380711 9.380712,18.5 8,18.5 7.615968,18.5 7.256765,18.40667 6.9316405,18.251953 6.7966635,18.187257 6.649971,18.150303 6.5,18.15039 c -0.5522845,0 -1,0.447716 -1,1 5e-4,0.377878 0.2139685,0.723198 0.551758,0.892579 2.85e-5,0.0031 -3.1e-5,0.0057 0,0.0088 C 6.6419455,20.33614 7.3010145,20.5 8,20.5 c 2.485281,0 4.5,-2.014719 4.5,-4.5 v -2.5 h 2 a 1,1 0 0 0 1,-1 1,1 0 0 0 -1,-1 H 13.009766 C 12.778218,11.5 12.5,11.500351 12.5,10.951172 V 9 c 0,-1.3807115 1.119288,-2.5 2.5,-2.5 0.252093,0 0.490286,0.04876 0.719727,0.118164 -2.82e-4,-0.00285 -7e-4,-0.00598 -0.001,-0.00879 0.09132,0.026995 0.186025,0.040805 0.28125,0.041015 0.552284,0 1,-0.4477155 1,-1 -3.8e-5,-0.093495 -0.01318,-0.1865235 -0.03907,-0.276367 5.5e-4,-0.01534 0.0039,-0.029365 0.0039,-0.04492 -0.0082,-0.013085 -0.02406,-0.026795 -0.0332,-0.04004 v -0.001 C 16.807022,4.9679358 16.526781,4.7341267 16.189453,4.6689453 c -0.0071,-0.00376 -0.0144,-0.00703 -0.02148,-0.010742 C 15.794918,4.5580394 15.404669,4.5 15,4.5 Z"
           id="path1051" />
      </g>
      <path
         style="opacity:0.1;fill:#000000;fill-opacity:1"
         d="M 12.5,1 C 6.7034455,1 2.0042,5.6986371 2,11.494141 v 0.5 C 2.0042,6.1986371 6.7034455,1.5 12.5,1.5 18.214604,1.5 22.852285,6.0674327 22.986328,11.75 22.988305,11.666129 23,11.584346 23,11.5 23,5.7008215 18.298969,1 12.5,1 Z"
         id="path1055" />
    </g>
    <rect
       style="fill:#222222;fill-opacity:1;stroke-width:0.111193"
       id="rect32"
       width="84.666679"
       height="3.23771"
       x="-8.5063912e-06"
       y="-1.3328261e-07" />
    <text
       xml:space="preserve"
       style="font-style:normal;font-variant:normal;font-weight:normal;font-stretch:normal;font-size:1.55565px;line-height:1.25;font-family:'Fira Code';-inkscape-font-specification:'Fira Code, Normal';font-variant-ligatures:normal;font-variant-caps:normal;font-variant-numeric:normal;font-variant-east-asian:normal;letter-spacing:-0.116674px;fill:#ffffff;fill-opacity:1;stroke:#fffdff;stroke-width:0.0504256;stroke-opacity:1"
       x="70.212173"
       y="2.0904531"
       id="text859"><tspan
         sodipodi:role="line"
         id="tspan857"
         x="70.212173"
         y="2.0904531"
         style="font-style:normal;font-variant:normal;font-weight:300;font-stretch:normal;font-size:1.55565px;font-family:'Fira Code';-inkscape-font-specification:'Fira Code, Light';font-variant-ligatures:normal;font-variant-caps:normal;font-variant-numeric:normal;font-variant-east-asian:normal;fill:#ffffff;fill-opacity:1;stroke:#fffdff;stroke-width:0.0504256;stroke-opacity:1">Fr 25 Dez, 16:04</tspan></text>
    <path
       style="fill:currentColor;stroke-width:0.116674"
       class="ColorScheme-Text"
       d="m 65.516459,0.91455068 c 0,0 -0.116673,0 -0.116673,0.11667372 v 1.0500651 c 0,0.1166738 0.116673,0.1166738 0.116673,0.1166738 h 0.233349 l 0.116672,0.1166742 h 0.700044 l 0.116672,-0.1166742 h 0.23335 c 0,0 0.116672,0.015169 0.116672,-0.1166738 V 1.0312244 c 0,-0.11667372 -0.116672,-0.11667372 -0.116672,-0.11667372 z m 0.116672,0.23334752 h 1.166742 V 1.9646158 H 66.566524 L 66.449852,2.0812895 H 65.983153 L 65.86648,1.9646158 h -0.233349 z"
       id="path864" />
    <path
       style="fill:currentColor;stroke-width:0.116674"
       class="ColorScheme-Text"
       d="M 59.948454,0.77169883 59.481755,1.2383943 h -0.350022 v 0.7000434 h 0.350022 l 0.466699,0.4666959 z m 0.233345,0 v 0.17501085 c 0.270686,0.0863388 0.466698,0.34185442 0.466698,0.64170632 0,0.2998518 -0.196012,0.5553679 -0.466698,0.6417067 v 0.1750109 c 0.367524,-0.091006 0.641707,-0.4200261 0.641707,-0.8167176 0,-0.3966911 -0.274183,-0.72571153 -0.641707,-0.81671717 z m 0,0.46669547 v 0.7000434 c 0.123675,-0.067671 0.208729,-0.1983454 0.208729,-0.3500217 0,-0.1516759 -0.08389,-0.2823506 -0.208729,-0.3500217 z"
       id="path877" />
    <g
       id="g916"
       transform="matrix(0.11667392,0,0,0.1166739,63.048934,0.68198224)">
      <path
         style="fill:currentColor"
         class="ColorScheme-Text"
         d="M 8,0 C 6.3379,0 5,1.3381 5,3 V 8.002 C 5,9.664 6.3379,11 8,11 9.662,11 11,9.664 11,8.002 V 3 C 11,1.3381 9.662,0 8,0 Z"
         id="path903" />
      <path
         style="fill:currentColor"
         class="ColorScheme-Text"
         d="M 2,7 V 7.999 C 2,10.965 4,14 7,14 v 2 h 2 v -2 c 3,0 5,-3.035 5,-6.001 V 7 H 12 V 7.999 C 12,10.233 10.233,12 8,12 5.7666,12 4,10.233 4,7.999 V 7 Z"
         id="path905" />
    </g>
    <rect
       style="fill:#97bb72;fill-opacity:1;stroke-width:0.0467695"
       id="rect32-5"
       width="14.978694"
       height="3.2377102"
       x="-8.5063912e-06"
       y="-2.3841858e-07" />
    <text
       xml:space="preserve"
       style="font-style:normal;font-variant:normal;font-weight:normal;font-stretch:normal;font-size:1.55565px;line-height:1.25;font-family:'Fira Code';-inkscape-font-specification:'Fira Code, Normal';font-variant-ligatures:normal;font-variant-caps:normal;font-variant-numeric:normal;font-variant-east-asian:normal;letter-spacing:0px;fill:#ffffff;fill-opacity:1;stroke:#fffdff;stroke-width:0.0504256;stroke-opacity:1"
       x="2.767365"
       y="2.0102737"
       id="text859-8"><tspan
         sodipodi:role="line"
         id="tspan954"
         x="2.767365"
         y="2.0102737"
         style="font-style:normal;font-variant:normal;font-weight:300;font-stretch:normal;font-size:1.55565px;font-family:'Fira Code';-inkscape-font-specification:'Fira Code, Light';font-variant-ligatures:normal;font-variant-caps:normal;font-variant-numeric:normal;font-variant-east-asian:normal;stroke-width:0.0504256">Applications Places System</tspan></text>
    <g
       id="g993"
       transform="matrix(0.15384219,0,0,0.15384216,0.29661577,0.26853088)">
      <rect
         style="fill:currentColor"
         class="ColorScheme-Text"
         width="2"
         height="2"
         x="3"
         y="3"
         rx="0.5"
         ry="0.5"
         id="rect959" />
      <rect
         style="fill:currentColor"
         class="ColorScheme-Text"
         width="2"
         height="2"
         x="7"
         y="3"
         rx="0.5"
         ry="0.5"
         id="rect961" />
      <rect
         style="fill:currentColor"
         class="ColorScheme-Text"
         width="2"
         height="2"
         x="11"
         y="3"
         rx="0.5"
         ry="0.5"
         id="rect963" />
      <rect
         style="fill:currentColor"
         class="ColorScheme-Text"
         width="2"
         height="2"
         x="3"
         y="7"
         rx="0.5"
         ry="0.5"
         id="rect965" />
      <rect
         style="fill:currentColor"
         class="ColorScheme-Text"
         width="2"
         height="2"
         x="7"
         y="7"
         rx="0.5"
         ry="0.5"
         id="rect967" />
      <rect
         style="fill:currentColor"
         class="ColorScheme-Text"
         width="2"
         height="2"
         x="11"
         y="7"
         rx="0.5"
         ry="0.5"
         id="rect969" />
      <rect
         style="fill:currentColor"
         class="ColorScheme-Text"
         width="2"
         height="2"
         x="3"
         y="11"
         rx="0.5"
         ry="0.5"
         id="rect971" />
      <rect
         style="fill:currentColor"
         class="ColorScheme-Text"
         width="2"
         height="2"
         x="7"
         y="11"
         rx="0.5"
         ry="0.5"
         id="rect973" />
      <rect
         style="fill:currentColor"
         class="ColorScheme-Text"
         width="2"
         height="2"
         x="11"
         y="11"
         rx="0.5"
         ry="0.5"
         id="rect975" />
    </g>
    <rect
       style="fill:#222222;fill-opacity:1;stroke-width:0.111193"
       id="rect32-6"
       width="84.666679"
       height="3.2377102"
       x="-1.5216404e-05"
       y="44.387291" />
    <text
       xml:space="preserve"
       style="font-style:normal;font-variant:normal;font-weight:normal;font-stretch:normal;font-size:1.55565px;line-height:1.25;font-family:'Fira Code';-inkscape-font-specification:'Fira Code, Normal';font-variant-ligatures:normal;font-variant-caps:normal;font-variant-numeric:normal;font-variant-east-asian:normal;letter-spacing:0px;fill:#ffffff;fill-opacity:1;stroke:#fffdff;stroke-width:0.0504256;stroke-opacity:1"
       x="6.3162956"
       y="46.677689"
       id="text859-6"><tspan
         sodipodi:role="line"
         x="6.3162956"
         y="46.677689"
         style="font-style:normal;font-variant:normal;font-weight:300;font-stretch:normal;font-size:1.24452px;font-family:'Fira Code';-inkscape-font-specification:'Fira Code, Light';font-variant-ligatures:normal;font-variant-caps:normal;font-variant-numeric:normal;font-variant-east-asian:normal;fill:#ffffff;fill-opacity:1;stroke:#fffdff;stroke-width:0.0504256;stroke-opacity:1"
         id="tspan1387">Pluma</tspan></text>
    <path
       style="fill:#ffffff;stroke:#deddda;stroke-width:0.117141px;stroke-linecap:butt;stroke-linejoin:miter;stroke-opacity:1"
       d="M 3.4735283,47.197521 H 18.195646"
       id="path1301" />
    <text
       xml:space="preserve"
       style="font-style:normal;font-variant:normal;font-weight:normal;font-stretch:normal;font-size:1.55565px;line-height:1.25;font-family:'Fira Code';-inkscape-font-specification:'Fira Code, Normal';font-variant-ligatures:normal;font-variant-caps:normal;font-variant-numeric:normal;font-variant-east-asian:normal;letter-spacing:0px;fill:#ffffff;fill-opacity:1;stroke:#fffdff;stroke-width:0.0504256;stroke-opacity:1"
       x="21.611149"
       y="46.720718"
       id="text859-6-8"><tspan
         sodipodi:role="line"
         x="21.611149"
         y="46.720718"
         style="font-style:normal;font-variant:normal;font-weight:300;font-stretch:normal;font-size:1.24453px;font-family:'Fira Code';-inkscape-font-specification:'Fira Code, Light';font-variant-ligatures:normal;font-variant-caps:normal;font-variant-numeric:normal;font-variant-east-asian:normal;fill:#ffffff;fill-opacity:1;stroke:#fffdff;stroke-width:0.0504256;stroke-opacity:1"
         id="tspan1387-8">Calculator</tspan></text>
    <path
       style="fill:#ffffff;stroke:#deddda;stroke-width:0.117141px;stroke-linecap:butt;stroke-linejoin:miter;stroke-opacity:1"
       d="M 18.957565,47.197521 H 33.679683"
       id="path1301-7" />
    <rect
       style="opacity:1;fill:none;stroke:#3d3846;stroke-width:0.104519"
       id="rect1463"
       width="22.678045"
       height="2.7845242"
       x="61.824226"
       y="44.675625" />
    <path
       style="fill:none;stroke:#3d3846;stroke-width:0.099714px;stroke-linecap:butt;stroke-linejoin:miter;stroke-opacity:1"
       d="m 67.336021,44.706853 v 2.703504"
       id="path1465" />
    <path
       style="fill:none;stroke:#3d3846;stroke-width:0.099714px;stroke-linecap:butt;stroke-linejoin:miter;stroke-opacity:1"
       d="m 73.271261,44.715919 v 2.703504"
       id="path1465-4" />
    <path
       style="fill:none;stroke:#3d3846;stroke-width:0.099714px;stroke-linecap:butt;stroke-linejoin:miter;stroke-opacity:1"
       d="m 79.035717,44.642502 v 2.703503"
       id="path1465-4-3" />
    <g
       id="g950"
       transform="matrix(0.09776722,0,0,0.0977672,19.064412,44.752066)">
      <path
         style="opacity:0.2"
         d="m 3,2.5 h 18 c 0.554,0 1,0.446 1,1 v 13.450693 l -1.386749,3.817412 c -0.189157,0.520707 -0.808633,1.022121 -1.346687,1.154083 L 16.910632,22.5 H 3 c -0.554,0 -1,-0.446 -1,-1 v -18 c 0,-0.554 0.446,-1 1,-1 z"
         id="path912" />
      <path
         style="fill:#666666"
         d="m 18.303544,21.152542 c 0.267998,-0.484864 2.342224,-0.05909 2.540832,-0.576271 L 22,17.567026 V 12 H 11 v 10 h 6.835131 z"
         id="path914" />
      <path
         style="fill:#8c8c8c"
         d="M 3,22 C 2.446,22 2,21.554 2,21 V 11 h 10 v 11 z"
         id="path916" />
      <path
         style="fill:#a6a6a6"
         d="M 2,12 V 3 C 2,2.446 2.446,2 3,2 h 10 v 10 z"
         id="path918" />
      <path
         style="fill:#595959"
         d="M 12,2 V 12 H 22 V 3 C 22,2.446 21.554,2 21,2 Z"
         id="path920" />
      <path
         style="opacity:0.2;fill:#ffffff"
         d="M 2,3.5 V 3 C 2,2.446 2.446,2 3,2 h 18 c 0.554,0 1,0.446 1,1 v 0.5 c 0,-0.554 -0.446,-1 -1,-1 H 3 c -0.554,0 -1,0.446 -1,1 z"
         id="path922" />
      <circle
         style="fill:#07ce8e"
         cx="17"
         cy="17"
         r="6"
         id="circle924" />
      <path
         style="fill:#ffffff"
         d="m 15,15 v 1 h 4 v -1 z m 0,2 v 1 h 4 v -1 z"
         id="path926" />
      <path
         style="opacity:0.2"
         d="M 7,6 V 7.5 H 5.5 v 1 H 7 V 10 H 8 V 8.5 h 1.5 v -1 H 8 V 6 Z m 8,1.5 v 1 h 4 v -1 z M 5.7070312,15.085938 5,15.792969 5.3535156,16.146484 6.5,17.292969 5.3535156,18.439453 5,18.792969 5.7070312,19.5 6.0605469,19.146484 7.2070312,18 8.3535156,19.146484 8.7070312,19.5 9.4140625,18.792969 9.0605469,18.439453 7.9140625,17.292969 9.0605469,16.146484 9.4140625,15.792969 8.7070312,15.085938 8.3535156,15.439453 7.2070312,16.585938 6.0605469,15.439453 Z"
         id="path928" />
      <path
         style="fill:#ffffff"
         d="M 7,5.5 V 7 H 5.5 V 8 H 7 V 9.5 H 8 V 8 H 9.5 V 7 H 8 V 5.5 Z M 15,7 v 1 h 4 V 7 Z M 5.7070312,14.585938 5,15.292969 5.3535156,15.646484 6.5,16.792969 5.3535156,17.939453 5,18.292969 5.7070312,19 6.0605469,18.646484 7.2070312,17.5 8.3535156,18.646484 8.7070312,19 9.4140625,18.292969 9.0605469,17.939453 7.9140625,16.792969 9.0605469,15.646484 9.4140625,15.292969 8.7070312,14.585938 8.3535156,14.939453 7.2070312,16.085938 6.0605469,14.939453 Z"
         id="path930" />
    </g>
    <g
       id="g983"
       transform="matrix(0.09658301,0,0,0.096583,3.452356,44.7945)">
      <path
         style="fill:#e4e4e4"
         d="M 20,21 V 3 C 20,2.446 19.554,2 19,2 H 5 C 4.446,2 4,2.446 4,3 v 18 c 0,0.554 0.446,1 1,1 h 14 c 0.554,0 1,-0.446 1,-1 z"
         id="path960" />
      <path
         style="opacity:0.2"
         d="m 4,21 v 0.5 c 0,0.554 0.446,1 1,1 h 14 c 0.554,0 1,-0.446 1,-1 V 21 c 0,0.554 -0.446,1 -1,1 H 5 C 4.446,22 4,21.554 4,21 Z"
         id="path962" />
      <circle
         style="fill:#f34235"
         cx="17.5"
         cy="17.5"
         r="5.5"
         id="circle964" />
      <path
         style="fill:#ffffff"
         d="m 19.005859,15 c -0.07585,0 -0.152037,0.02899 -0.210937,0.08789 l -0.582031,0.585937 1.113281,1.113281 0.585937,-0.582031 c 0.117796,-0.117796 0.117796,-0.302123 0,-0.419922 L 19.214844,15.087891 C 19.155946,15.028993 19.081712,15 19.005859,15 Z m -1.5,1.380859 L 15,18.886719 V 20 h 1.113281 l 2.50586,-2.505859 z"
         id="path966" />
      <path
         style="opacity:0.2;fill:#ffffff"
         d="M 5,2 C 4.446,2 4,2.446 4,3 v 0.5 c 0,-0.554 0.446,-1 1,-1 h 14 c 0.554,0 1,0.446 1,1 V 3 C 20,2.446 19.554,2 19,2 Z"
         id="path968" />
    </g>
    <g
       id="g1008"
       transform="matrix(0.11667392,0,0,0.1166739,0.36086602,44.597329)">
      <rect
         style="opacity:0.2"
         width="20"
         height="18"
         x="2"
         y="3.5"
         rx="1"
         ry="1"
         id="rect985" />
      <path
         style="fill:#87b158"
         d="M 2,4.9 V 20 c 0,0.554 0.446,1 1,1 h 18 c 0.554,0 1,-0.446 1,-1 V 4.9 Z"
         id="path987" />
      <path
         style="fill:#2f3e1f"
         d="M 3,3 C 2.446,3 2,3.45 2,4 V 5 H 22 V 4 C 22,3.45 21.554,3 21,3 Z"
         id="path989" />
      <path
         style="fill:#2f3e1f"
         d="m 8,19 c -0.554,0 -1,0.45 -1,1 v 1 h 10 v -1 c 0,-0.55 -0.446,-1 -1,-1 z"
         id="path991" />
      <path
         style="opacity:0.1;fill:#ffffff"
         d="M 3,3 C 2.446,3 2,3.45 2,4 v 0.5 c 0,-0.55 0.446,-1 1,-1 h 18 c 0.554,0 1,0.45 1,1 V 4 C 22,3.45 21.554,3 21,3 Z"
         id="path993" />
    </g>
    <rect
       style="fill:#97bb72;fill-opacity:1;stroke:none;stroke-width:0.0947129"
       id="rect1010"
       width="5.5117965"
       height="2.7347322"
       x="61.824226"
       y="44.675625" />
    <rect
       style="fill:#f7f7f7;fill-opacity:1;stroke:#3d3846;stroke-width:0.030007;stroke-miterlimit:4;stroke-dasharray:none;stroke-opacity:1"
       id="rect1012"
       width="14.922445"
       height="11.828933"
       x="0.059300657"
       y="3.2380483" />
    <rect
       style="fill:url(#linearGradient1399-2);fill-opacity:1;stroke:none;stroke-width:0.0267083;stroke-miterlimit:4;stroke-dasharray:none;stroke-opacity:1"
       id="rect1383-2"
       width="11.836383"
       height="1.7440901"
       x="-15.074094"
       y="14.983278"
       transform="rotate(-90)" />
    <rect
       style="fill:#97bb72;fill-opacity:1;stroke-width:0.0435839"
       id="rect32-5-8"
       width="14.920193"
       height="2.8227298"
       x="-8.5063912e-06"
       y="6.1436553" />
    <text
       xml:space="preserve"
       style="font-style:normal;font-variant:normal;font-weight:normal;font-stretch:normal;font-size:1.55565px;line-height:1.25;font-family:'Fira Code';-inkscape-font-specification:'Fira Code, Normal';font-variant-ligatures:normal;font-variant-caps:normal;font-variant-numeric:normal;font-variant-east-asian:normal;letter-spacing:-0.116674px;fill:#ffffff;fill-opacity:1;stroke:#fffdff;stroke-width:0.0504256;stroke-opacity:1"
       x="3.533042"
       y="5.6224856"
       id="text859-8-2"><tspan
         sodipodi:role="line"
         id="tspan954-5"
         x="3.533042"
         y="5.6224856"
         style="font-style:normal;font-variant:normal;font-weight:300;font-stretch:normal;font-size:1.55565px;font-family:'Fira Code';-inkscape-font-specification:'Fira Code, Light';font-variant-ligatures:normal;font-variant-caps:normal;font-variant-numeric:normal;font-variant-east-asian:normal;fill:#3d3846;stroke:#3d3846;stroke-width:0.0504256">Accessories</tspan></text>
    <text
       xml:space="preserve"
       style="font-style:normal;font-variant:normal;font-weight:normal;font-stretch:normal;font-size:1.55565px;line-height:1.25;font-family:'Fira Code';-inkscape-font-specification:'Fira Code, Normal';font-variant-ligatures:normal;font-variant-caps:normal;font-variant-numeric:normal;font-variant-east-asian:normal;letter-spacing:-0.116674px;fill:#ffffff;fill-opacity:1;stroke:#fffdff;stroke-width:0.0504256;stroke-opacity:1"
       x="3.5364387"
       y="8.2203903"
       id="text859-8-2-9"><tspan
         sodipodi:role="line"
         id="tspan954-5-2"
         x="3.5364387"
         y="8.2203903"
         style="font-style:normal;font-variant:normal;font-weight:300;font-stretch:normal;font-size:1.55565px;font-family:'Fira Code';-inkscape-font-specification:'Fira Code, Light';font-variant-ligatures:normal;font-variant-caps:normal;font-variant-numeric:normal;font-variant-east-asian:normal;fill:#3d3846;stroke:#3d3846;stroke-width:0.0504256">Games</tspan></text>
    <text
       xml:space="preserve"
       style="font-style:normal;font-variant:normal;font-weight:normal;font-stretch:normal;font-size:1.55565px;line-height:1.25;font-family:'Fira Code';-inkscape-font-specification:'Fira Code, Normal';font-variant-ligatures:normal;font-variant-caps:normal;font-variant-numeric:normal;font-variant-east-asian:normal;letter-spacing:-0.116674px;fill:#ffffff;fill-opacity:1;stroke:#fffdff;stroke-width:0.0504256;stroke-opacity:1"
       x="3.5305805"
       y="10.843817"
       id="text859-8-2-9-8"><tspan
         sodipodi:role="line"
         id="tspan954-5-2-9"
         x="3.5305805"
         y="10.843817"
         style="font-style:normal;font-variant:normal;font-weight:300;font-stretch:normal;font-size:1.55565px;font-family:'Fira Code';-inkscape-font-specification:'Fira Code, Light';font-variant-ligatures:normal;font-variant-caps:normal;font-variant-numeric:normal;font-variant-east-asian:normal;fill:#3d3846;stroke:#3d3846;stroke-width:0.0504256">Graphics</tspan></text>
    <text
       xml:space="preserve"
       style="font-style:normal;font-variant:normal;font-weight:normal;font-stretch:normal;font-size:1.55565px;line-height:1.25;font-family:'Fira Code';-inkscape-font-specification:'Fira Code, Normal';font-variant-ligatures:normal;font-variant-caps:normal;font-variant-numeric:normal;font-variant-east-asian:normal;letter-spacing:-0.116674px;fill:#ffffff;fill-opacity:1;stroke:#fffdff;stroke-width:0.0504256;stroke-opacity:1"
       x="3.556886"
       y="13.609967"
       id="text859-8-2-9-2"><tspan
         sodipodi:role="line"
         id="tspan954-5-2-6"
         x="3.556886"
         y="13.609967"
         style="font-style:normal;font-variant:normal;font-weight:300;font-stretch:normal;font-size:1.55565px;font-family:'Fira Code';-inkscape-font-specification:'Fira Code, Light';font-variant-ligatures:normal;font-variant-caps:normal;font-variant-numeric:normal;font-variant-east-asian:normal;fill:#3d3846;stroke:#3d3846;stroke-width:0.0504256">Internet</tspan></text>
    <g
       id="g1114"
       transform="matrix(0.11667392,0,0,0.1166739,0.668823,3.8995801)">
      <path
         style="fill:#009688"
         d="m 0,1.00007 v 13 c 0,1 1,1 1,1 H 16 Z M 3,7.6114 8.015625,12.00007 H 3 Z"
         id="path1091" />
      <path
         style="fill:#a2a2a2;fill-rule:evenodd"
         d="M 8.137109,4 C 8.487077,4.0127 8.804901,4.20756 8.975,4.51367 l 5,9 L 14.1,16 12.225,14.48633 8.1,7.06055 V 4.00391 c 0.01263,0 0.02442,-0.004 0.03711,-0.004 z"
         id="path1093" />
      <path
         style="fill:#e4e4e4"
         d="M 7.862891,4 C 7.512923,4.0127 7.195099,4.20756 7.025,4.51367 l -5,9 L 1.9,16 3.775,14.48633 4.478125,13.22266 C 5.547166,13.73182 6.715903,13.99732 7.9,14 12.318278,14 16,10.418278 16,6 H 14 C 14,9.3137085 11.213708,12 7.9,12 7.0558182,11.9964 6.2218955,11.814717 5.452734,11.4668 L 7.9,7.06055 V 4.00391 c -0.01263,0 -0.02442,-0.004 -0.03711,-0.004 z"
         id="path1095" />
      <path
         style="fill:#4f4f4f"
         d="M 7,0 V 2 H 6 C 5.446,2 5,2.446 5,3 v 1 1 2 l 2,1.7 c 0.531455,0.42952 1.506979,0.49966 2,0 L 11,7 V 5 4 3 C 11,2.446 10.554,2 10,2 H 9 V 0 Z"
         id="path1097" />
      <circle
         style="fill:#ffffff"
         cx="8"
         cy="5"
         r="1"
         id="circle1099" />
    </g>
    <g
       id="g1157"
       transform="matrix(0.11667392,0,0,0.1166739,0.11243014,6.2089192)">
      <path
         opacity="0.2"
         d="m 7.026,4.5 v 0.00195 c -2.4885,0 -4.3601,2.0013 -4.4909,4.4807 l -0.4988,9.4603 c -0.315,1.85 1.4831,3.018 2.9946,0.995 C 5.9734,18.15895 8,15.49995 8,15.49995 l 8,0.04044 2.9887,4.0231 c 1.4989,2.012 3.187,0.35648 2.9965,-1.0053 l -0.496,-9.4746 c 7.84e-4,-0.034624 0.0098,-0.066882 0.0098,-0.1017 0,-2.4824 -2.0028,-4.4827 -4.4909,-4.4827 H 7.0248 Z"
         id="path1116" />
      <path
         fill="#4f4f4f"
         d="m 7.026,4 v 0.00195 c -2.4885,0 -4.3601,2.0013 -4.4909,4.4807 l -0.4988,9.4603 c -0.315,1.85 1.4831,3.018 2.9946,0.995 C 5.9734,17.65895 8,14.99995 8,14.99995 l 8,0.04044 2.9887,4.0231 c 1.4989,2.012 3.187,0.35648 2.9965,-1.0053 l -0.496,-9.4746 c 7.84e-4,-0.034624 0.0098,-0.066882 0.0098,-0.1017 0,-2.4824 -2.0028,-4.4827 -4.4909,-4.4827 H 7.0248 Z"
         id="path1118" />
      <path
         fill="#ffffff"
         opacity="0.1"
         d="m 7.0254,4 v 0.002 c -2.4885,0 -4.3595,2.001 -4.4902,4.4804 L 2.0371,17.943 C 1.9932,18.201 1.9976,18.44 2.0293,18.664 2.0352,18.589 2.0239,18.521 2.0371,18.443 L 2.5352,8.9824 C 2.6659,6.503 4.5369,4.502 7.0254,4.502 V 4.5 H 17.01 c 2.488,0 4.49,2 4.49,4.4824 0,0.0348 -0.009,0.067 -0.01,0.1016 l 0.487,9.322 C 21.986,18.29 22,18.173 21.984,18.059 L 21.49,8.584 C 21.491,8.5494 21.5,8.5172 21.5,8.4824 21.5,6 19.498,4 17.01,4 Z"
         id="path1120" />
      <path
         opacity="0.2"
         d="m 6,6.5 v 2 H 4 v 2 h 2 v 2 h 2 v -2 h 2 v -2 H 8 v -2 z"
         id="path1122" />
      <path
         fill="#e4e4e4"
         d="M 6,6 V 8 H 4 v 2 h 2 v 2 h 2 v -2 h 2 V 8 H 8 V 6 Z"
         id="path1124" />
      <path
         opacity="0.2"
         d="m 17,6.5 a 1,1 0 0 0 -1,1 1,1 0 0 0 1,1 1,1 0 0 0 1,-1 1,1 0 0 0 -1,-1 z m -2,2 a 1,1 0 0 0 -1,1 1,1 0 0 0 1,1 1,1 0 0 0 1,-1 1,1 0 0 0 -1,-1 z m 4,0 a 1,1 0 0 0 -1,1 1,1 0 0 0 1,1 1,1 0 0 0 1,-1 1,1 0 0 0 -1,-1 z m -2,2 a 1,1 0 0 0 -1,1 1,1 0 0 0 1,1 1,1 0 0 0 1,-1 1,1 0 0 0 -1,-1 z"
         id="path1126" />
      <g
         transform="translate(0,1)"
         id="g1136">
        <circle
           fill="#ee5353"
           cx="15"
           cy="8"
           r="1"
           id="circle1128" />
        <circle
           fill="#ffca58"
           cx="10"
           cy="-17"
           r="1"
           transform="rotate(90)"
           id="circle1130" />
        <circle
           fill="#ee5353"
           cx="17"
           cy="6"
           r="1"
           id="circle1132" />
        <circle
           fill="#ffca58"
           cx="8"
           cy="-19"
           r="1"
           transform="rotate(90)"
           id="circle1134" />
      </g>
    </g>
    <g
       id="g1193"
       transform="matrix(0.11667392,0,0,0.1166739,0.02756478,9.0244867)">
      <path
         id="ellipse856"
         style="opacity:0.2"
         d="M 12.497899,2.5 A 4.6426286,5 0 0 0 8.2829852,5.4208985 5.126057,4.5284602 23.678628 0 0 3.5640401,7.5 a 5.126057,4.5284602 23.678628 0 0 0.5020779,5 4.5284602,5.126057 66.321372 0 0 -0.5020779,5 4.5284602,5.126057 66.321372 0 0 4.7189451,2.080078 A 4.6426286,5 0 0 0 12.497899,22.5 4.6426286,5 0 0 0 16.714767,19.579101 c 1.965557,0.255354 3.808444,-0.556825 4.717968,-2.079101 0.94412,-1.584732 0.669373,-3.553849 -0.524544,-5.034179 0.0083,0.01034 0.01813,0.01989 0.02638,0.03027 A 4.52846,5.126057 66.32137 0 0 21.432735,7.5 4.52846,5.126057 66.32137 0 0 17.572401,5.3720705 4.52846,5.126057 66.32137 0 0 16.714767,5.4208985 4.6426286,5 0 0 0 12.497899,2.5 Z m 2.146041,3.602539 a 4.52846,5.126057 66.32137 0 1 10e-4,0 4.52846,5.126057 66.32137 0 0 0,10e-4 4.52846,5.126057 66.32137 0 0 -0.386815,0.239258 4.52846,5.126057 66.32137 0 1 0.385838,-0.2402345 z M 14.09986,6.455078 A 4.52846,5.126057 66.32137 0 0 13.850774,6.6416015 4.52846,5.126057 66.32137 0 1 14.09986,6.455078 Z m -0.415142,0.3291015 a 4.52846,5.126057 66.32137 0 0 -0.204153,0.183594 4.52846,5.126057 66.32137 0 1 0.204153,-0.183594 z m -0.369233,0.353516 a 4.52846,5.126057 66.32137 0 0 -0.181686,0.196289 4.52846,5.126057 66.32137 0 1 0.181686,-0.196289 z M 12.987278,7.515625 A 4.52846,5.126057 66.32137 0 0 12.828059,7.7246095 4.52846,5.126057 66.32137 0 1 12.987278,7.515625 Z m -0.28718,0.402344 a 4.52846,5.126057 66.32137 0 0 -0.13773,0.2197265 4.52846,5.126057 66.32137 0 1 0.13773,-0.2197265 z m 7.054486,3.477539 c 0.02825,0.01957 0.05429,0.04057 0.08205,0.06055 -0.02775,-0.01994 -0.05381,-0.04101 -0.08205,-0.06055 z m 0.418073,0.319336 c 0.04608,0.03875 0.08837,0.0802 0.132845,0.120117 -0.04455,-0.03993 -0.08668,-0.08137 -0.132845,-0.120117 z m 0.384861,0.357421 c 0.03692,0.03758 0.07087,0.07683 0.106472,0.115235 -0.03559,-0.03836 -0.06955,-0.0777 -0.106472,-0.115235 z m -8.01957,0.429688 c 0.16947,0.0015 0.336427,0.01356 0.501101,0.03418 -0.0051,-6.5e-4 -0.0105,-3.53e-4 -0.01563,-10e-4 a 4.6426286,5 0 0 0 -0.485472,-0.03321 z m 0.645669,0.05859 c 0.07922,0.01267 0.159499,0.02215 0.237363,0.03907 0.04527,0.0098 0.08904,0.02391 0.133822,0.03515 -0.0067,-0.0017 -0.01378,-0.0023 -0.02051,-0.0039 a 4.6426286,5 0 0 0 -0.113309,-0.03125 4.6426286,5 0 0 0 -0.21392,-0.03418 c -0.0079,-0.0013 -0.01552,-0.0036 -0.02345,-0.0049 z m 0.54408,0.12207 c 0.115359,0.03408 0.228345,0.07298 0.339928,0.116211 -0.01343,-0.0052 -0.02754,-0.0086 -0.04102,-0.01367 a 4.6426286,5 0 0 0 -0.275459,-0.09473 c -0.0079,-0.0024 -0.01551,-0.0055 -0.02345,-0.0078 z m 0.494263,0.176758 c 0.12704,0.0548 0.250957,0.116383 0.372163,0.182617 -0.02156,-0.01179 -0.04467,-0.02079 -0.06642,-0.03223 a 4.6426286,5 0 0 0 -0.288157,-0.141602 c -0.006,-0.0026 -0.01156,-0.0062 -0.01758,-0.0088 z m 0.463983,0.230469 c 0.01277,0.0074 0.02539,0.01497 0.0381,0.02246 0.133809,0.0789 0.263375,0.164599 0.388768,0.256836 A 4.6426286,5 0 0 0 14.724043,13.1123 4.6426286,5 0 0 0 14.701573,13.10058 c -0.0055,-0.0032 -0.01016,-0.0076 -0.01563,-0.01074 z m 0.500124,0.33789 c 0.09864,0.07566 0.196432,0.1528 0.289134,0.236328 A 4.6426286,5 0 0 0 15.186067,13.42773 Z m 0.454214,0.399414 c 0.0541,0.05371 0.109496,0.105721 0.161173,0.16211 a 4.6426286,5 0 0 0 -0.147497,-0.147461 4.6426286,5 0 0 0 -0.01368,-0.01465 z m 0.356534,0.392578 c 0.03834,0.04739 0.0776,0.09365 0.114286,0.142578 a 4.6426286,5 0 0 0 -0.09573,-0.11621 c -0.0067,-0.0084 -0.01183,-0.01804 -0.01856,-0.02637 z m 0.21099,0.283203 c 0.01069,0.01533 0.0217,0.03043 0.03224,0.0459 -0.0046,-0.0068 -0.01002,-0.01281 -0.01465,-0.01953 a 4.6426286,5 0 0 0 -0.01758,-0.02637 z m 0.0801,0.120118 a 4.52846,5.126057 66.32137 0 0 0.0039,0 c 0.03095,0.04725 0.06237,0.09415 0.09182,0.142578 a 4.6426286,5 0 0 0 -0.09573,-0.142578 z m 0.173871,0.283203 c 0.05362,0.09481 0.106538,0.190244 0.154335,0.289062 A 4.6426286,5 0 0 0 16.461774,14.90625 Z m 0.214898,0.423828 c 0.04706,0.104883 0.09155,0.21053 0.131868,0.319336 a 4.6426286,5 0 0 0 -0.131868,-0.319336 z m 0.177778,0.453125 c 0.03697,0.108742 0.07255,0.217949 0.102564,0.330078 A 4.6426286,5 0 0 0 16.85445,15.783203 Z m 0.14066,0.493164 c 0.02429,0.10382 0.04729,0.208166 0.06545,0.314453 a 4.6426286,5 0 0 0 -0.06545,-0.314453 z m 0.09377,0.510742 c 0.01281,0.09639 0.0246,0.192938 0.03224,0.291016 a 4.6426286,5 0 0 0 -0.03224,-0.291016 z" />
      <ellipse
         style="fill:#278df2"
         cx="12.499"
         cy="12"
         rx="8.2519999"
         ry="8"
         id="ellipse1160" />
      <ellipse
         id="ellipse8"
         style="fill:#34e0c4"
         cx="16.583"
         cy="-9.7200003"
         rx="4.5359998"
         ry="5.118"
         transform="matrix(0.51165104,0.85919335,-0.87259818,0.48843876,0,0)" />
      <ellipse
         id="ellipse10"
         style="fill:#ffc107"
         cx="12.499"
         cy="17"
         rx="4.6409998"
         ry="5" />
      <ellipse
         id="ellipse14"
         style="fill:#fb8300"
         cx="16.583"
         cy="0.51700002"
         rx="4.5359998"
         ry="5.118"
         transform="matrix(0.51165104,0.85919335,-0.87259818,0.48843876,0,0)" />
      <ellipse
         id="ellipse18"
         style="fill:#fa3e30"
         cx="4.368"
         cy="11.767"
         rx="4.5359998"
         ry="5.118"
         transform="matrix(-0.51165104,0.85919335,0.87259818,0.48843876,0,0)" />
      <path
         style="fill:#a544c9"
         d="M 12.499411,2 A 4.6414757,5 0 0 0 7.8579347,7 4.6414757,5 0 0 0 12.499411,12 4.5282783,5.1249895 66.278874 0 1 14.644884,5.602539 4.5282783,5.1249895 66.278874 0 1 16.714813,4.9208985 4.6414757,5 0 0 0 12.499411,2 Z m 0,10 A 4.6414757,5 0 0 0 16.91123,8.541992 4.6414757,5 0 0 1 16.287733,9.876953 5.1249895,4.5282783 23.721126 0 0 12.499411,12 Z M 16.91123,8.541992 A 4.6414757,5 0 0 0 17.023037,8.100586 4.6414757,5 0 0 1 16.91123,8.541992 Z M 16.769206,5.053711 A 4.6414757,5 0 0 1 16.924324,5.5097655 4.6414757,5 0 0 0 16.769206,5.053711 Z m 0.162169,0.4765625 a 4.6414757,5 0 0 1 0.09468,0.3955075 4.6414757,5 0 0 0 -0.09468,-0.3955075 z m 0.120872,0.517578 a 4.6414757,5 0 0 1 0.04532,0.319336 4.6414757,5 0 0 0 -0.04532,-0.319336 z m 0.06749,0.5185545 A 4.6414757,5 0 0 1 17.140886,7 4.6414757,5 0 0 0 17.119737,6.566406 Z m 0.01107,0.654297 a 4.6414757,5 0 0 1 -0.02014,0.328125 4.6414757,5 0 0 0 0.02014,-0.328125 z m -0.03626,0.4433595 a 4.6414757,5 0 0 1 -0.06044,0.3876955 4.6414757,5 0 0 0 0.06044,-0.3876955 z"
         id="path1166" />
      <path
         style="fill:#009688"
         d="M 16.359249,9.8720705 C 14.70987,9.9173115 13.265533,10.713575 12.499411,12 c 2.563416,0 4.641475,2.238576 4.641475,5 -0.0018,0.717949 -0.147129,1.427057 -0.426073,2.079101 1.965069,0.255354 3.807722,-0.556825 4.717021,-2.079101 1.281974,-2.152367 0.321379,-5.016709 -2.145475,-6.397461 -0.90004,-0.503619 -1.920312,-0.758231 -2.92711,-0.7304685 z m 0.355564,9.2070305 z M 12.499411,12 Z"
         id="path1168" />
      <path
         id="ellipse980"
         style="fill:#03a9f4"
         d="m 17.5725,4.8720702 a 4.5282783,5.1249895 66.278874 0 0 -2.927364,0.7309573 4.5282783,5.1249895 66.278874 0 0 -2.145474,6.3967285 c 0.766167,-1.286254 2.210333,-2.082448 3.859587,-2.127686 1.006798,-0.02776 2.02707,0.22685 2.92711,0.730469 0.66311,0.371157 1.216253,0.850154 1.647383,1.393067 A 4.5282783,5.1249895 66.278874 0 0 21.432085,7 4.5282783,5.1249895 66.278874 0 0 17.5725,4.8720702 Z M 12.499662,12 a 4.5282783,5.1249895 66.278874 0 0 3.795122,2.123291 C 15.45471,12.839435 14.068597,12.00009 12.499662,12 Z" />
      <path
         style="fill:#ffc107"
         d="m 12.499662,11.999756 c -7.9997744,8.000162 -3.9998873,4.000082 0,0 z m 0,2.44e-4 c 0.814377,1.61694 2.214779,2.317036 3.795122,2.123291 C 15.45471,12.839435 14.068597,12.00009 12.499662,12 Z"
         id="path1171" />
      <path
         id="ellipse880"
         style="opacity:0.2;fill:#ffffff"
         d="M 12.499024,2 A 4.6414757,5 0 0 0 8.2851562,4.9208984 5.1249895,4.5282785 23.721124 0 0 3.567383,7 5.1249895,4.5282785 23.721124 0 0 3.0156252,9.3134765 5.1249895,4.5282785 23.721124 0 1 3.567383,7.5 5.1249895,4.5282785 23.721124 0 1 8.2851562,5.4208985 4.6414757,5 0 0 1 12.499024,2.5 4.6414757,5 0 0 1 16.714844,5.4208985 4.5282783,5.1249895 66.278874 0 1 17.572266,5.3720705 4.5282783,5.1249895 66.278874 0 1 21.431641,7.5 4.5282783,5.1249895 66.278874 0 1 21.986328,9.339844 4.5282783,5.1249895 66.278874 0 0 21.431641,7 4.5282783,5.1249895 66.278874 0 0 17.572266,4.8720703 4.5282783,5.1249895 66.278874 0 0 16.714844,4.9208984 4.6414757,5 0 0 0 12.499024,2 Z m 2.145507,4.102539 a 4.5282783,5.1249895 66.278874 0 0 -0.385742,0.2402345 4.5282783,5.1249895 66.278874 0 1 0.386719,-0.239258 4.5282783,5.1249895 66.278874 0 0 0,-0.001 4.5282783,5.1249895 66.278874 0 1 -10e-4,0 z M 3.8886721,12.251953 a 4.5282785,5.1249895 66.278876 0 0 -0.875,2.91211 A 4.5282785,5.1249895 66.278876 0 1 4.0693362,12.5 5.1249895,4.5282785 23.721124 0 1 3.8886721,12.251953 Z m 17.2197269,10e-4 a 4.5282783,5.1249895 66.278874 0 1 -0.174805,0.243165 c -0.0082,-0.01039 -0.01802,-0.01993 -0.02636,-0.03027 0.650168,0.806338 1.025587,1.757622 1.082032,2.71289 0.06069,-1.009871 -0.258169,-2.037518 -0.88086,-2.925781 z m -7.923828,0.307617 c 0.0079,0.0013 0.01553,0.0036 0.02343,0.0049 a 4.6414757,5 0 0 1 0.213867,0.03418 c -0.07784,-0.01692 -0.158102,-0.0264 -0.237305,-0.03907 z m 0.237304,0.03907 a 4.6414757,5 0 0 1 0.113281,0.03125 c 0.0067,0.0016 0.01379,0.0022 0.02051,0.0039 -0.04477,-0.01125 -0.08853,-0.02532 -0.133789,-0.03515 z m 1.264649,0.490234 c 0.0055,0.0031 0.01017,0.0075 0.01563,0.01074 a 4.6414757,5 0 0 1 0.02246,0.01172 c -0.0127,-0.0075 -0.02531,-0.0151 -0.03808,-0.02246 z m 1.310547,1.129882 c 0.0067,0.0083 0.01188,0.018 0.01856,0.02637 a 4.6414757,5 0 0 1 0.0957,0.116211 c -0.03668,-0.04894 -0.07593,-0.09519 -0.114258,-0.142578 z m 0.210937,0.283203 a 4.6414757,5 0 0 1 0.01758,0.02637 c 0.0047,0.0067 0.01005,0.01277 0.01465,0.01953 -0.01053,-0.01547 -0.02153,-0.03057 -0.03223,-0.0459 z m 0.08008,0.120118 a 4.6414757,5 0 0 1 0.0957,0.142578 c -0.02944,-0.04843 -0.06085,-0.09533 -0.0918,-0.142578 a 4.5282783,5.1249895 66.278874 0 1 -0.0039,0 z" />
    </g>
    <g
       transform="matrix(0.11667392,0,0,0.1166739,0.23569417,11.873554)"
       id="g1211">
      <g
         transform="matrix(0.5,0,0,0.5,-1.0001,-0.49948)"
         id="g1207">
        <rect
           fill="#6573c3"
           width="39.964001"
           height="39.964001"
           x="-42.98"
           y="-43.98"
           rx="19.982"
           ry="19.982"
           transform="matrix(0,-1,-1,0,0,0)"
           id="rect1195" />
        <path
           opacity="0.1"
           d="M 38.129,8.8707 9.871,37.1287 c 7.8276,7.8276 20.431,7.8276 28.259,0 7.8276,-7.8276 7.8276,-20.431 0,-28.259 z"
           id="path1197" />
        <path
           fill="#ffffff"
           opacity="0.2"
           d="m 24,3.0182 c -11.07,0 -19.982,8.9119 -19.982,19.982 0,0.16757 -0.004,0.33299 0,0.49955 0.2644,-10.837 9.08,-19.483 19.982,-19.483 10.902,0 19.718,8.6458 19.982,19.482 0.004,-0.16656 0,-0.33198 0,-0.49955 C 43.982,11.9302 35.07,3.0182 24,3.0182 Z"
           id="path1199" />
        <path
           fill="#f2f2f2"
           d="m 9.8707,37.129 12.363,-15.895 1.673,1.673 1.8593,1.8593 z"
           id="path1201" />
        <path
           fill="#f34235"
           d="m 38.129,8.8707 -15.895,12.363 3.532,3.532 z"
           id="path1203" />
        <path
           fill="#ffffff"
           opacity="0.2"
           d="M 38.129,8.8707 9.871,37.1287 c -7.8276,-7.8276 -7.8276,-20.431 0,-28.259 7.8276,-7.8276 20.431,-7.8276 28.259,0 z"
           id="path1205" />
      </g>
      <path
         opacity="0.2"
         d="m 1.0154,11.263 c -0.00195,0.082 -0.0068,0.1635 -0.0068,0.246 0,5.5349 4.4562,9.9909 9.9909,9.9909 5.5347,0 9.9909,-4.456 9.9909,-9.9909 0,-0.0825 -0.0045,-0.164 -0.0065,-0.246 -0.13,5.4204 -4.532,9.7459 -9.9844,9.7459 -5.4524,0 -9.8544,-4.3255 -9.9844,-9.7459 z"
         id="path1209" />
    </g>
    <path
       style="fill:#3d3846;fill-opacity:1;stroke:none;stroke-width:0.0220493px;stroke-linecap:butt;stroke-linejoin:miter;stroke-opacity:1"
       d="M 14.158413,4.6972514 V 5.5127532 L 14.627995,5.1078636 Z"
       id="path1230" />
    <path
       style="fill:#3d3846;fill-opacity:1;stroke:none;stroke-width:0.0220493px;stroke-linecap:butt;stroke-linejoin:miter;stroke-opacity:1"
       d="M 14.158713,7.2160106 V 8.0315125 L 14.628295,7.6266228 Z"
       id="path1230-5" />
    <path
       style="fill:#3d3846;fill-opacity:1;stroke:none;stroke-width:0.0220493px;stroke-linecap:butt;stroke-linejoin:miter;stroke-opacity:1"
       d="m 14.157247,9.8012407 v 0.8155023 l 0.469582,-0.40489 z"
       id="path1230-0" />
    <path
       style="fill:#3d3846;fill-opacity:1;stroke:none;stroke-width:0.0220493px;stroke-linecap:butt;stroke-linejoin:miter;stroke-opacity:1"
       d="m 14.157248,12.589185 v 0.815502 l 0.469581,-0.40489 z"
       id="path1230-4" />
    <rect
       style="fill:#f7f7f7;fill-opacity:1;stroke:#3d3846;stroke-width:0.0291685;stroke-miterlimit:4;stroke-dasharray:none;stroke-opacity:1"
       id="rect1012-7"
       width="14.099082"
       height="3.7915041"
       x="14.83075"
       y="5.7823009" />
    <g
       id="g1363"
       transform="matrix(0.11667392,0,0,0.1166739,15.298082,6.255589)">
      <path
         fill="#886c38"
         d="M 12,2 A 10,10 0 0 0 2,12 10,10 0 0 0 12,22 10,10 0 0 0 22,12 10,10 0 0 0 12,2 Z"
         id="path1340" />
      <path
         fill="#ffffff"
         opacity="0.2"
         d="M 12,2 A 10,10 0 0 0 2.0703,10.926 10,9.5 0 0 1 12,2.5 10,9.5 0 0 1 21.961,11.224 10,10 0 0 0 12,2 Z m 9.9609,9.2236 a 10,10 0 0 1 0.039,0.776 10,9.5 0 0 0 -0.039,-0.776 z M 2.0699,10.9256 A 10,9.5 0 0 0 2.045486,11.12189 10,10 0 0 1 2.0699,10.9256 Z m -0.024414,0.19629 a 10,10 0 0 0 -0.0459,0.878 10,9.5 0 0 1 0.0459,-0.878 z"
         id="path1342" />
      <path
         opacity="0.2"
         d="M 12,22.5 A 10,10 0 0 1 2.0703,13.574 10,9.5 0 0 0 12,22 10,9.5 0 0 0 21.961,13.276 10,10 0 0 1 12,22.5 Z m 9.9609,-9.2236 a 10,10 0 0 0 0.039,-0.776 10,9.5 0 0 1 -0.039,0.776 z m -19.891,0.298 A 10,9.5 0 0 1 2.045486,13.37815 10,10 0 0 0 2.0699,13.5744 Z m -0.0244,-0.196 a 10,10 0 0 1 -0.0459,-0.878 10,9.5 0 0 0 0.0459,0.878 z"
         id="path1344" />
      <path
         opacity="0.2"
         d="m 13,4.5701 v 6.9297 h 6.9268 a 8,8 0 0 0 -6.927,-6.9299 z m -2,0.00293 a 8,8 0 0 0 -6.9297,6.9268 H 11 Z m -6.9268,8.927 a 8,8 0 0 0 6.9268,6.93 v -6.9297 H 4.0732 Z m 8.9268,0 v 6.9268 a 8,8 0 0 0 6.9297,-6.9268 z"
         id="path1346" />
      <path
         fill="#ffffff"
         d="M 13,4.0703 V 11 h 6.927 A 8,8 0 0 0 13,4.0703 Z m -2,0.00293 a 8,8 0 0 0 -6.9297,6.9268 H 11 Z m -6.9268,8.9268 a 8,8 0 0 0 6.9268,6.93 v -6.93 z m 8.9268,0 v 6.927 a 8,8 0 0 0 6.93,-6.927 z"
         id="path1348" />
    </g>
    <text
       xml:space="preserve"
       style="font-style:normal;font-variant:normal;font-weight:normal;font-stretch:normal;font-size:1.55565px;line-height:1.25;font-family:'Fira Code';-inkscape-font-specification:'Fira Code, Normal';font-variant-ligatures:normal;font-variant-caps:normal;font-variant-numeric:normal;font-variant-east-asian:normal;letter-spacing:-0.116674px;fill:#ffffff;fill-opacity:1;stroke:#fffdff;stroke-width:0.0504256;stroke-opacity:1"
       x="18.894316"
       y="8.2185726"
       id="text859-8-2-9-1"><tspan
         sodipodi:role="line"
         id="tspan954-5-2-7"
         x="18.894316"
         y="8.2185726"
         style="font-style:normal;font-variant:normal;font-weight:300;font-stretch:normal;font-size:1.55565px;font-family:'Fira Code';-inkscape-font-specification:'Fira Code, Light';font-variant-ligatures:normal;font-variant-caps:normal;font-variant-numeric:normal;font-variant-east-asian:normal;fill:#3d3846;stroke:#3d3846;stroke-width:0.0504256">0 A.D.</tspan></text>
    <rect
       style="fill:url(#linearGradient1399);fill-opacity:1;stroke:none;stroke-width:0.0300078;stroke-miterlimit:4;stroke-dasharray:none;stroke-opacity:1"
       id="rect1383"
       width="14.941553"
       height="1.7440897"
       x="0.05888138"
       y="15.067401" />
    <path
       style="fill:url(#linearGradient1433);fill-opacity:1;stroke:none;stroke-width:0.116674px;stroke-linecap:butt;stroke-linejoin:miter;stroke-opacity:1"
       d="m 15.000335,15.073311 1.726121,0.0067 -1.726121,1.737397 z"
       id="path1425"
       sodipodi:nodetypes="cccc" />
    <path
       style="fill:url(#linearGradient1433-6);fill-opacity:1;stroke:none;stroke-width:0.116674px;stroke-linecap:butt;stroke-linejoin:miter;stroke-opacity:1"
       d="m 28.929831,9.5738049 1.72612,0.00669 -1.72612,1.7373971 z"
       id="path1425-6"
       sodipodi:nodetypes="cccc" />
    <path
       style="fill:url(#linearGradient1433-6-1);fill-opacity:1;stroke:none;stroke-width:0.116674px;stroke-linecap:butt;stroke-linejoin:miter;stroke-opacity:1"
       d="m 28.929831,5.7823006 1.72612,-0.00669 -1.72612,-1.7373968 z"
       id="path1425-6-4"
       sodipodi:nodetypes="cccc" />
    <rect
       style="fill:url(#linearGradient1399-2-9);fill-opacity:1;stroke:none;stroke-width:0.0151162;stroke-miterlimit:4;stroke-dasharray:none;stroke-opacity:1"
       id="rect1383-2-1"
       width="3.7915051"
       height="1.7440902"
       x="-9.5738049"
       y="28.929832"
       transform="rotate(-90)" />
    <rect
       style="fill:url(#linearGradient1399-7);fill-opacity:1;stroke:none;stroke-width:0.0290042;stroke-miterlimit:4;stroke-dasharray:none;stroke-opacity:1"
       id="rect1383-1"
       width="13.958831"
       height="1.7440898"
       x="14.989278"
       y="9.5738049" />
    <rect
       style="fill:url(#linearGradient1399-7-5);fill-opacity:1;stroke:none;stroke-width:0.0290042;stroke-miterlimit:4;stroke-dasharray:none;stroke-opacity:1"
       id="rect1383-1-7"
       width="13.958831"
       height="1.7440898"
       x="14.971"
       y="-5.7822995"
       transform="scale(1,-1)" />
    <g
       id="g1051"
       transform="matrix(0.11045128,0,0,0.11045128,28.646443,0.30552129)">
      <rect
         style="fill:#5294e2"
         width="14"
         height="12"
         x="5"
         y="2"
         rx="0.75"
         ry="0.75"
         id="rect1007" />
      <rect
         style="fill:#89e058"
         width="16"
         height="12"
         x="4"
         y="4"
         rx="0.75"
         ry="0.75"
         id="rect1009" />
      <rect
         style="fill:#ffcd54"
         width="18"
         height="12"
         x="3"
         y="6"
         rx="0.75"
         ry="0.75"
         id="rect1011" />
      <rect
         style="opacity:0.2"
         width="20"
         height="14"
         x="2"
         y="8.5"
         rx="1"
         ry="1"
         id="rect1013" />
      <rect
         style="fill:#8e8e8e"
         width="20"
         height="14"
         x="2"
         y="8"
         rx="1"
         ry="1"
         id="rect1015" />
      <rect
         style="opacity:0.2"
         width="6"
         height="2"
         x="9"
         y="13.5"
         rx="0.5"
         ry="0.5"
         id="rect1017" />
      <rect
         style="fill:#ececec"
         width="6"
         height="2"
         x="9"
         y="13"
         rx="0.5"
         ry="0.5"
         id="rect1019" />
      <path
         style="opacity:0.1;fill:#ffffff"
         d="M 5.75,2 C 5.3345,2 5,2.3345 5,2.75 v 0.5 C 5,2.8345 5.3345,2.5 5.75,2.5 h 12.5 C 18.6655,2.5 19,2.8345 19,3.25 V 2.75 C 19,2.3345 18.6655,2 18.25,2 Z"
         id="path1021" />
      <path
         style="opacity:0.1;fill:#ffffff"
         d="M 4.75,4 C 4.3345,4 4,4.3345 4,4.75 v 0.5 C 4,4.8345 4.3345,4.5 4.75,4.5 h 14.5 C 19.6655,4.5 20,4.8345 20,5.25 V 4.75 C 20,4.3345 19.6655,4 19.25,4 Z"
         id="path1023" />
      <path
         style="opacity:0.1;fill:#ffffff"
         d="M 3.75,6 C 3.3345,6 3,6.3345 3,6.75 v 0.5 C 3,6.8345 3.3345,6.5 3.75,6.5 h 16.5 C 20.6655,6.5 21,6.8345 21,7.25 V 6.75 C 21,6.3345 20.6655,6 20.25,6 Z"
         id="path1025" />
      <path
         style="opacity:0.1"
         d="M 4.75,3.5 C 4.3345,3.5 4,3.8345 4,4.25 v 0.5 C 4,4.3345 4.3345,4 4.75,4 h 14.5 C 19.6655,4 20,4.3345 20,4.75 V 4.25 C 20,3.8345 19.6655,3.5 19.25,3.5 Z"
         id="path1027" />
      <path
         style="opacity:0.1"
         d="M 3.75,5.5 C 3.3345,5.5 3,5.8345 3,6.25 v 0.5 C 3,6.3345 3.3345,6 3.75,6 h 16.5 C 20.6655,6 21,6.3345 21,6.75 V 6.25 C 21,5.8345 20.6655,5.5 20.25,5.5 Z"
         id="path1029" />
    </g>
    <g
       id="g1076"
       transform="matrix(0.12163169,0,0,0.12163169,31.410895,0.1622192)">
      <path
         style="opacity:0.2"
         d="m 2,20 v 0.5 c 0,0.554 0.446,1 1,1 h 18 c 0.554,0 1,-0.446 1,-1 V 20 c 0,0.554 -0.446,1 -1,1 H 3 C 2.446,21 2,20.554 2,20 Z"
         id="path1053" />
      <rect
         style="fill:#4f4f4f"
         width="20"
         height="18"
         x="2"
         y="3"
         rx="1"
         ry="1"
         id="rect1055" />
      <path
         style="opacity:0.1;fill:#ffffff"
         d="M 3,3 C 2.446,3 2,3.446 2,4 v 0.5 c 0,-0.554 0.446,-1 1,-1 h 18 c 0.554,0 1,0.446 1,1 V 4 C 22,3.446 21.554,3 21,3 Z"
         id="path1057" />
      <path
         style="opacity:0.2"
         d="m 6,5.5 v 1 H 5.5 C 4.669,6.5 4,7.169 4,8 4,8.831 4.669,9.5 5.5,9.5 H 6 v 1 H 4.0918 c 0.206,0.582 0.754,1 1.4082,1 H 6 v 1 h 1 v -1 H 7.5 C 8.331,11.5 9,10.831 9,10 9,9.169 8.331,8.5 7.5,8.5 H 7 v -1 h 1.9082 c -0.206,-0.582 -0.754,-1 -1.408,-1 h -0.5 v -1 h -1 z m -0.5,2 H 6 v 1 H 5.5 C 5.223,8.5 5,8.277 5,8 5,7.723 5.223,7.5 5.5,7.5 Z M 7,9.5 H 7.5 C 7.777,9.5 8,9.723 8,10 8,10.277 7.7767,10.513 7.5,10.5 H 7 Z m 4,2 v 1 h 6 v -1 z"
         id="path1059" />
      <path
         style="fill:#ffffff"
         d="M 6,5 V 6 H 5.5 C 4.669,6 4,6.669 4,7.5 4,8.331 4.669,9 5.5,9 H 6 v 1 H 4.0918 c 0.206,0.582 0.754,1 1.4082,1 H 6 v 1 H 7 V 11 H 7.5 C 8.331,11 9,10.331 9,9.5 9,8.669 8.331,8 7.5,8 H 7 V 7 H 8.9082 C 8.7022,6.418 8.1542,6 7.5002,6 h -0.5 V 5 h -1 z M 5.5,7 H 6 V 8 H 5.5 C 5.223,8 5,7.777 5,7.5 5,7.223 5.223,7 5.5,7 Z M 7,9 H 7.5 C 7.777,9 8,9.223 8,9.5 8,9.777 7.7767,10.013 7.5,10 H 7 Z m 4,2 v 1 h 6 v -1 z"
         id="path1061" />
    </g>
    <g
       id="g1118"
       transform="matrix(0.11533957,0,0,0.11533957,34.423644,0.26048308)">
      <path
         style="opacity:0.2"
         d="M 5.6918215,8.9534474 C 3.3525854,10.762436 2,9.4537309 2,12.616823 2,18.075151 6.4771526,22.5 12,22.5 c 5.522847,0 10,-4.424849 10,-9.883177 0,-2.541223 -0.970478,-4.8584454 -2.565074,-6.6094118 0.03554,-0.00135 -0.149121,-0.1433068 -0.244324,-0.1078782 0.666619,1.1049371 1.050308,2.3997742 1.050308,3.7843164 0,4.0518086 -2.253451,8.0658266 -6.30526,8.0658266 C 11.333199,17.875997 7.8664463,16.21227 7.3328613,14.655418 6.9886071,13.65098 7.0755042,12.522871 8.0121131,11.898402 8.5208481,11.575463 9.262541,11.256605 10.435957,11.219162 11.50787,10.51421 10.986316,10.594396 10.934754,10.380964 10.601772,10.289911 10.010697,10.16408 9.1945924,9.5217741 8.471759,8.9528759 8.1360328,8.7371585 6.0295507,8.717482 5.6315969,7.951198 5.7308276,9.8633102 5.6918215,8.9534474 Z"
         id="path1078" />
      <path
         style="fill:#ffde3f"
         d="m 15.144624,1 c 0.421836,1.122979 1.947305,2.8569488 3.959378,5.433928 1.704032,2.1824538 1.899324,4.617442 2.529273,6.806775 l -4.734898,4.075311 -5.348398,-5.490531 C 11.525962,8.1753879 10.649861,4.0548818 15.144624,1 Z"
         id="path1080" />
      <path
         style="opacity:0.2;fill:#ffffff"
         d="M 15.144531,1 C 11.70141,3.3401294 11.411731,6.3028351 11.474609,9.203125 11.462656,6.4652252 11.900032,3.7051353 15.144531,1.5 c 0.421836,1.122979 1.946912,2.8566146 3.958985,5.4335938 1.599482,2.0485508 1.877679,4.3129892 2.425781,6.3945312 l 0.103515,-0.08789 C 21.002864,11.050901 20.807548,8.6160475 19.103516,6.4335938 17.091443,3.8566146 15.566367,2.122979 15.144531,1 Z"
         id="path1082" />
      <path
         style="fill:#ff750e"
         d="M 4.978,7.6573284 C 5.6726684,6.9680315 6.8069856,5.3629789 8.1604043,4.9180435 7.796792,6.8561313 8.268184,7.4721295 8.5028149,8.463 L 6.3275007,7.8990294 Z"
         id="path1084" />
      <circle
         style="fill:#8357cd"
         cx="12"
         cy="12"
         r="5"
         id="circle1086" />
      <path
         style="fill:#ffba36"
         d="m 13.86942,8.6173508 c -0.07112,7e-4 -0.142211,0.0032 -0.213201,0.00757 1.448104,0.6797788 2.373588,2.1344912 2.375693,3.7342112 -0.0011,2.197927 -1.722935,4.060393 -3.917932,4.173851 0.548866,0.259708 1.148234,0.345029 1.75544,0.34672 2.281585,2.1e-5 4.131194,-1.849548 4.131224,-4.131133 2e-5,-2.28162 -1.849604,-4.1312447 -4.131224,-4.1312242 z"
         id="path1088" />
      <path
         id="ellipse841"
         style="fill:#f74e66"
         d="M 5.6918215,8.4534465 C 3.3525854,10.262435 2,8.9537299 2,12.116822 c 0,5.458328 4.4771526,9.883177 10,9.883177 5.522847,0 10,-4.424849 10,-9.883177 0,-2.5412228 -0.970478,-4.8584454 -2.565074,-6.6094118 0.03554,-0.00135 -0.149121,-0.1433068 -0.244324,-0.1078782 0.666619,1.1049371 1.050308,2.3997742 1.050308,3.7843164 0,4.0518086 -2.253451,8.0658266 -6.30526,8.0658266 C 11.333199,17.375996 7.8664463,15.712269 7.3328613,14.155417 6.9886071,13.150979 7.0755042,12.02287 8.0121131,11.398401 8.5208481,11.075462 9.262541,10.756604 10.435957,10.719161 11.50787,10.014209 10.986316,10.094395 10.934754,9.8809633 10.601772,9.7899101 10.010697,9.6640788 9.1945924,9.0217731 8.471759,8.452875 8.1360328,8.2371575 6.0295507,8.217481 5.6315969,7.451197 5.7308276,9.3633093 5.6918215,8.4534465 Z" />
      <path
         style="opacity:0.1"
         d="M 5.8427413,4.8290669 C 3.6036379,6.5606203 2.1337144,9.2157505 2.0116791,12.213847 c 0.128044,4.594643 4.3222687,8.286149 9.4882999,8.286149 5.246715,0 9.500019,-3.805587 9.500019,-8.500017 0,-1.265173 -0.311188,-2.4649924 -0.865237,-3.543952 0.06743,0.3996318 0.106446,0.8087201 0.106446,1.2275419 0,4.0518081 -3.285119,7.3369281 -7.336928,7.3369281 C 10.301827,17.146819 8.3441037,15.70918 7.8105187,14.152328 7.4662645,13.147889 7.5789892,12.724058 8.5155981,12.099589 9.0243331,11.77665 9.740624,11.55793 10.91404,11.520486 11.985953,10.815535 12.068143,10.544463 12.016581,10.331031 11.683599,10.239977 10.765299,9.8873968 9.9491949,9.245091 9.226361,8.6761929 8.3125052,7.5296472 6.206023,7.5099706 5.8080693,6.7436866 5.8817474,5.7389296 5.8427413,4.8290669 Z"
         id="path1091-7" />
      <path
         style="fill:#ff7f1f"
         d="m 5.9423591,3.929 c -2.2391034,1.7315534 -3.8086447,4.7867495 -3.93068,7.784846 0.128044,4.594643 4.3222687,8.286149 9.4882999,8.286149 5.246715,0 9.500019,-3.805587 9.500019,-8.500017 0,-1.265173 -0.311188,-2.4649924 -0.865237,-3.543952 0.06743,0.3996318 0.106446,0.8087201 0.106446,1.2275419 0,4.0518081 -3.285119,7.3369281 -7.336928,7.3369281 C 10.301827,16.646818 8.3441037,15.209179 7.8105187,13.652327 7.4662645,12.647888 7.5789892,12.224057 8.5155981,11.599588 9.0243331,11.276649 9.740624,11.057929 10.91404,11.020486 11.985953,10.315534 12.068143,10.044462 12.016581,9.8310297 11.683599,9.7399765 10.765299,9.3873958 9.9491949,8.74509 9.226361,8.1761919 8.4121231,7.0296462 6.3056408,7.0099696 5.9076871,6.2436856 5.9813652,4.8388628 5.9423591,3.929 Z"
         id="path1093-6" />
      <path
         style="fill:#ffba36"
         d="M 6.4678191,10.002417 C 5.7872997,9.987652 5.0713563,10.221029 4.6162748,10.531587 4.5347618,10.613097 5.40862,11.989005 6.9295415,12.005 6.7887242,14.458409 8.750155,15.584191 9.9831699,15.939197 l 3.74e-4,-0.0011 c -3.27e-4,-1.68e-4 -6.5e-4,-3.79e-4 -0.001,-5.5e-4 -0.09936,-0.04926 -0.1960058,-0.101061 -0.289957,-0.155247 -0.00878,-0.0051 -0.01746,-0.01023 -0.026195,-0.01533 -0.052518,-0.03071 -0.1041317,-0.06213 -0.1548808,-0.09428 -0.00994,-0.0063 -0.019885,-0.01255 -0.029755,-0.01889 -0.050797,-0.03268 -0.1006352,-0.06607 -0.1495873,-0.100121 -0.00768,-0.0053 -0.015455,-0.0106 -0.02309,-0.01597 -0.0281,-0.01979 -0.055948,-0.03974 -0.083419,-0.05996 -0.053874,-0.03966 -0.1063862,-0.08022 -0.1578013,-0.121477 -0.0122,-0.0098 -0.024265,-0.01961 -0.036325,-0.02948 -0.036415,-0.02982 -0.072209,-0.05996 -0.1073307,-0.09054 -0.0171,-0.01487 -0.03405,-0.02985 -0.050836,-0.0449 -0.024375,-0.02187 -0.048475,-0.04386 -0.072192,-0.06608 -0.02292,-0.02146 -0.04561,-0.04303 -0.067903,-0.0648 -0.018395,-0.01799 -0.03661,-0.03603 -0.054578,-0.05421 -0.026115,-0.02642 -0.051831,-0.05302 -0.07703,-0.07986 -4.86e-4,-5e-4 -9.5e-4,-10e-4 -0.00145,-0.0015 -0.01558,-0.01662 -0.030775,-0.03342 -0.046,-0.0502 -0.021455,-0.02362 -0.042595,-0.04737 -0.063339,-0.07128 -0.016335,-0.01885 -0.03248,-0.03775 -0.04837,-0.05677 -0.02115,-0.0253 -0.0418,-0.0508 -0.062153,-0.07639 -0.01148,-0.01445 -0.023095,-0.02882 -0.034315,-0.04335 -0.025525,-0.03303 -0.050192,-0.06638 -0.074383,-0.09985 -0.00963,-0.01334 -0.019235,-0.02666 -0.02866,-0.04007 -0.025145,-0.03575 -0.049595,-0.07169 -0.073197,-0.107878 -0.00644,-0.0099 -0.012655,-0.01983 -0.018985,-0.02975 -0.02346,-0.03674 -0.046325,-0.07357 -0.068177,-0.110708 -0.00465,-0.0079 -0.00914,-0.01576 -0.01369,-0.02364 -0.02202,-0.0381 -0.043035,-0.07645 -0.06334,-0.114906 -0.00375,-0.0071 -0.0077,-0.01422 -0.01141,-0.02135 -0.02121,-0.04089 -0.041265,-0.08199 -0.060511,-0.123211 -0.00405,-0.0086 -0.00802,-0.01727 -0.011955,-0.02592 -0.01884,-0.04131 -0.036835,-0.08273 -0.053665,-0.124307 -0.00265,-0.0066 -0.00514,-0.01321 -0.00776,-0.0198 -0.017555,-0.04425 -0.034315,-0.08859 -0.04956,-0.133068 -0.3442542,-1.004438 -0.232206,-1.42832 0.7044029,-2.052789 0.508735,-0.322939 1.2252764,-0.541192 2.3986923,-0.578636 1.071913,-0.704952 1.153982,-0.976879 1.10242,-1.1903113 C 10.208411,11.263713 8.5196846,10.54169 6.929647,10.054344 6.7800207,10.022404 6.6248764,10.005818 6.4678336,10.002412 Z"
         id="path1095-5" />
      <path
         style="opacity:0.2;fill:#ffffff"
         d="M 5.9414062,3.9296875 C 3.7023029,5.6612409 2.133754,8.7147941 2.0117188,11.712891 c 0.00257,0.09223 0.017615,0.181955 0.023437,0.273437 0.189667,-2.9244119 1.7236349,-5.8687709 3.90625,-7.5566405 0.039006,0.9098628 -0.034672,2.3137941 0.3632813,3.0800781 2.1064823,0.019677 2.9216974,1.1654769 3.6445313,1.734375 0.7410916,0.583268 1.5153456,0.8968794 1.9101566,1.0234374 0.165693,-0.194931 0.183052,-0.3265577 0.15625,-0.4374999 C 11.682643,9.7390249 10.765323,9.3864464 9.9492188,8.7441406 9.2263849,8.1752425 8.4111698,7.0294422 6.3046875,7.0097656 5.9067338,6.2434816 5.9804124,4.8395503 5.9414062,3.9296875 Z M 20.134766,7.9550781 c 0.03785,0.2243295 0.06396,0.4532558 0.08203,0.6835938 C 20.68088,9.6003986 20.9514,10.653257 20.986328,11.759766 20.989274,11.672731 21,11.587673 21,11.5 21,10.234827 20.688815,9.0340377 20.134766,7.9550781 Z m 0.09375,1.4648438 c -0.12589,3.9414501 -3.352207,7.0996091 -7.324219,7.0996091 -2.602452,0.126322 -4.5601651,-1.310335 -5.0937501,-2.867187 -0.075584,-0.220535 -0.1188421,-0.403347 -0.1464844,-0.576172 -0.065371,0.289135 -0.0093,0.621644 0.1464844,1.076172 0.533585,1.556852 2.4912981,2.993509 5.0937501,2.867187 4.051809,0 7.335937,-3.284129 7.335937,-7.3359372 0,-0.088903 -0.0083,-0.1756439 -0.01172,-0.2636719 z"
         id="path1097-6" />
    </g>
    <g
       id="g1064"
       transform="matrix(1.5545834,0,0,1.5545834,22.90104,5.5462254)">
      <path
         style="opacity:0.2"
         d="M 12.500053,1.500525 C 6.7034985,1.500525 2.0042,6.1992985 2,11.994802 v 8.875695 C 2,21.773134 2.7268661,22.5 3.6295031,22.5 H 12.505723 C 18.302802,22.5 23,17.797604 23,11.999947 23,6.2007685 18.298916,1.499895 12.499947,1.499895 Z"
         id="path1038" />
      <path
         style="fill:#324e89"
         d="M 12.500053,1.000525 C 6.7034985,1.000525 2.0042,5.6992985 2,11.494802 v 8.875695 C 2,21.273134 2.7268661,22 3.6295031,22 H 12.505723 C 18.302802,22 23,17.297604 23,11.499947 23,5.7007685 18.298916,0.999895 12.499947,0.999895 Z"
         id="path1040" />
      <g
         transform="translate(0.5,-0.5)"
         id="g1046">
        <path
           style="opacity:0.2;fill:#ffffff"
           d="m 15,4.5 c -2.485281,0 -4.5,2.0147185 -4.5,4.5 v 2.5 H 8 c -2.4852815,0 -4.5,2.014719 -4.5,4.5 0,2.485281 2.0147185,4.5 4.5,4.5 2.485281,0 4.5,-2.014719 4.5,-4.5 V 13.5 H 15 c 2.485281,0 4.5,-2.014719 4.5,-4.5 0,-2.4852815 -2.014719,-4.5 -4.5,-4.5 z m 0,2 c 1.380711,0 2.5,1.1192885 2.5,2.5 0,1.380712 -1.119289,2.5 -2.5,2.5 H 13.009766 C 12.778218,11.5 12.5,11.500351 12.5,10.951172 V 9 c 0,-1.3807115 1.119288,-2.5 2.5,-2.5 z m -7,7 H 9.9902345 C 10.221782,13.5 10.5,13.49965 10.5,14.048828 V 16 c 0,1.380711 -1.119288,2.5 -2.5,2.5 -1.3807115,0 -2.5,-1.119289 -2.5,-2.5 0,-1.380712 1.1192885,-2.5 2.5,-2.5 z"
           id="path1042" />
        <path
           style="fill:#ffffff"
           d="m 15,4.5 c -2.485281,0 -4.5,2.0147185 -4.5,4.5 v 2.5 H 8 a 1,1 0 0 0 -0.099609,0.0049 c -6.5e-4,1.4e-5 -0.0013,-1.5e-5 -0.00195,0 A 1,1 0 0 0 7,12.5 a 1,1 0 0 0 1,1 H 9.9902345 C 10.221782,13.5 10.5,13.49965 10.5,14.048828 V 16 C 10.5,17.380711 9.380712,18.5 8,18.5 7.615968,18.5 7.256765,18.40667 6.9316405,18.251953 6.7966635,18.187257 6.649971,18.150303 6.5,18.15039 c -0.5522845,0 -1,0.447716 -1,1 5e-4,0.377878 0.2139685,0.723198 0.551758,0.892579 2.85e-5,0.0031 -3.1e-5,0.0057 0,0.0088 C 6.6419455,20.33614 7.3010145,20.5 8,20.5 c 2.485281,0 4.5,-2.014719 4.5,-4.5 v -2.5 h 2 a 1,1 0 0 0 1,-1 1,1 0 0 0 -1,-1 H 13.009766 C 12.778218,11.5 12.5,11.500351 12.5,10.951172 V 9 c 0,-1.3807115 1.119288,-2.5 2.5,-2.5 0.252093,0 0.490286,0.04876 0.719727,0.118164 -2.82e-4,-0.00285 -7e-4,-0.00598 -0.001,-0.00879 0.09132,0.026995 0.186025,0.040805 0.28125,0.041015 0.552284,0 1,-0.4477155 1,-1 -3.8e-5,-0.093495 -0.01318,-0.1865235 -0.03907,-0.276367 5.5e-4,-0.01534 0.0039,-0.029365 0.0039,-0.04492 -0.0082,-0.013085 -0.02406,-0.026795 -0.0332,-0.04004 v -0.001 C 16.807022,4.9679358 16.526781,4.7341267 16.189453,4.6689453 c -0.0071,-0.00376 -0.0144,-0.00703 -0.02148,-0.010742 C 15.794918,4.5580394 15.404669,4.5 15,4.5 Z"
           id="path1044" />
      </g>
      <path
         style="opacity:0.1;fill:#ffffff"
         d="M 12.5,1 C 6.7034455,1 2.0042,5.6986371 2,11.494141 v 0.5 C 2.0042,6.1986371 6.7034455,1.5 12.5,1.5 18.214604,1.5 22.852285,6.0674327 22.986328,11.75 22.988305,11.666129 23,11.584346 23,11.5 23,5.7008215 18.298969,1 12.5,1 Z"
         id="path1048" />
    </g>
  </g>
</svg>
