<?xml version="1.0" encoding="UTF-8" standalone="no"?>
<svg
   xmlns:dc="http://purl.org/dc/elements/1.1/"
   xmlns:cc="http://creativecommons.org/ns#"
   xmlns:rdf="http://www.w3.org/1999/02/22-rdf-syntax-ns#"
   xmlns:svg="http://www.w3.org/2000/svg"
   xmlns="http://www.w3.org/2000/svg"
   xmlns:xlink="http://www.w3.org/1999/xlink"
   xmlns:sodipodi="http://sodipodi.sourceforge.net/DTD/sodipodi-0.dtd"
   xmlns:inkscape="http://www.inkscape.org/namespaces/inkscape"
   width="320"
   height="180"
   viewBox="0 0 84.666663 47.625001"
   version="1.1"
   id="svg8"
   inkscape:version="1.0.1 (3bc2e813f5, 2020-09-07)"
   sodipodi:docname="manjaro-logo.svg"
   inkscape:export-filename="/home/kunruh/src/mate-layouts/data/layout-previews/manjaro-logo.png"
   inkscape:export-xdpi="96"
   inkscape:export-ydpi="96">
  <defs
     id="defs2">
    <linearGradient
       inkscape:collect="always"
       id="linearGradient1397">
      <stop
         style="stop-color:#3d3846;stop-opacity:1;"
         offset="0"
         id="stop1393" />
      <stop
         style="stop-color:#3d3846;stop-opacity:0;"
         offset="1"
         id="stop1395" />
    </linearGradient>
    <style
       id="current-color-scheme"
       type="text/css">
   .ColorScheme-Text { color:#dfdfdf; } .ColorScheme-Highlight { color:#4285f4; }
  </style>
    <style
       id="current-color-scheme-0"
       type="text/css">
   .ColorScheme-Text { color:#dfdfdf; } .ColorScheme-Highlight { color:#4285f4; }
  </style>
    <style
       id="current-color-scheme-7"
       type="text/css">
   .ColorScheme-Text { color:#dfdfdf; } .ColorScheme-Highlight { color:#4285f4; }
  </style>
    <style
       id="current-color-scheme-8"
       type="text/css">
   .ColorScheme-Text { color:#dfdfdf; } .ColorScheme-Highlight { color:#4285f4; }
  </style>
    <style
       id="current-color-scheme-2"
       type="text/css">
   .ColorScheme-Text { color:#dfdfdf; } .ColorScheme-Highlight { color:#4285f4; }
  </style>
    <filter
       style="color-interpolation-filters:sRGB"
       inkscape:label="Greyscale"
       id="filter939">
      <feColorMatrix
         values="0.21 0.72 0.072 1.5 0 0.21 0.72 0.072 1.5 0 0.21 0.72 0.072 1.5 0 0 0 0 1 0 "
         id="feColorMatrix937" />
    </filter>
    <filter
       style="color-interpolation-filters:sRGB"
       inkscape:label="Lightness-Contrast"
       id="filter2112">
      <feColorMatrix
         values="1 0 0 0.15 -0 0 1 0 0.15 -0 0 0 1 0.15 -0 0 0 0 1 0"
         id="feColorMatrix2110" />
    </filter>
    <filter
       style="color-interpolation-filters:sRGB"
       inkscape:label="Lightness-Contrast"
       id="filter2116">
      <feColorMatrix
         values="1 0 0 0.15 -0 0 1 0 0.15 -0 0 0 1 0.15 -0 0 0 0 1 0"
         id="feColorMatrix2114" />
    </filter>
    <filter
       style="color-interpolation-filters:sRGB"
       inkscape:label="Lightness-Contrast"
       id="filter2120">
      <feColorMatrix
         values="1 0 0 0.15 -0 0 1 0 0.15 -0 0 0 1 0.15 -0 0 0 0 1 0"
         id="feColorMatrix2118" />
    </filter>
    <filter
       style="color-interpolation-filters:sRGB"
       inkscape:label="Lightness-Contrast"
       id="filter2124">
      <feColorMatrix
         values="1 0 0 0.15 -0 0 1 0 0.15 -0 0 0 1 0.15 -0 0 0 0 1 0"
         id="feColorMatrix2122" />
    </filter>
    <filter
       style="color-interpolation-filters:sRGB"
       inkscape:label="Lightness-Contrast"
       id="filter2128">
      <feColorMatrix
         values="1 0 0 0.15 -0 0 1 0 0.15 -0 0 0 1 0.15 -0 0 0 0 1 0"
         id="feColorMatrix2126" />
    </filter>
    <filter
       style="color-interpolation-filters:sRGB"
       inkscape:label="Lightness-Contrast"
       id="filter2132">
      <feColorMatrix
         values="1 0 0 0.15 -0 0 1 0 0.15 -0 0 0 1 0.15 -0 0 0 0 1 0"
         id="feColorMatrix2130" />
    </filter>
    <filter
       style="color-interpolation-filters:sRGB"
       inkscape:label="Lightness-Contrast"
       id="filter2136">
      <feColorMatrix
         values="1 0 0 0.15 -0 0 1 0 0.15 -0 0 0 1 0.15 -0 0 0 0 1 0"
         id="feColorMatrix2134" />
    </filter>
    <linearGradient
       inkscape:collect="always"
       xlink:href="#linearGradient1397"
       id="linearGradient1399"
       x1="16.012852"
       y1="20.195482"
       x2="16.012852"
       y2="36.881702"
       gradientUnits="userSpaceOnUse"
       gradientTransform="matrix(0.93347912,0,0,0.44097222,-0.12801301,-24.277426)" />
    <linearGradient
       inkscape:collect="always"
       xlink:href="#linearGradient1397"
       id="linearGradient1399-2"
       x1="16.012852"
       y1="20.195482"
       x2="16.012852"
       y2="36.881702"
       gradientUnits="userSpaceOnUse"
       gradientTransform="matrix(1.0995055,0,0,0.4409723,-44.541234,14.805526)" />
    <linearGradient
       inkscape:collect="always"
       xlink:href="#linearGradient1397"
       id="linearGradient1433-6-1"
       x1="20.799313"
       y1="24.846085"
       x2="32.623955"
       y2="36.670727"
       gradientUnits="userSpaceOnUse"
       gradientTransform="matrix(0.4409723,0,0,-0.44097222,15.704952,24.261905)" />
    <style
       id="current-color-scheme-5"
       type="text/css">
   .ColorScheme-Text { color:#444444; } .ColorScheme-Highlight { color:#4285f4; }
  </style>
    <style
       id="current-color-scheme-25"
       type="text/css">
   .ColorScheme-Text { color:#444444; } .ColorScheme-Highlight { color:#4285f4; }
  </style>
  </defs>
  <sodipodi:namedview
     id="base"
     pagecolor="#ffffff"
     bordercolor="#666666"
     borderopacity="1.0"
     inkscape:pageopacity="0.0"
     inkscape:pageshadow="2"
     inkscape:zoom="1.4142136"
     inkscape:cx="17.525268"
     inkscape:cy="137.36726"
     inkscape:document-units="px"
     inkscape:current-layer="layer1"
     inkscape:document-rotation="0"
     showgrid="false"
     inkscape:snap-bbox="false"
     inkscape:snap-page="true"
     inkscape:window-width="1920"
     inkscape:window-height="1032"
     inkscape:window-x="1366"
     inkscape:window-y="0"
     inkscape:window-maximized="1"
     units="px" />
  <metadata
     id="metadata5">
    <rdf:RDF>
      <cc:Work
         rdf:about="">
        <dc:format>image/svg+xml</dc:format>
        <dc:type
           rdf:resource="http://purl.org/dc/dcmitype/StillImage" />
        <dc:title />
      </cc:Work>
    </rdf:RDF>
  </metadata>
  <g
     inkscape:label="Layer 1"
     inkscape:groupmode="layer"
     id="layer1">
    <rect
       style="fill:#deddda;fill-opacity:1;stroke:none;stroke-width:0.030263;stroke-miterlimit:4;stroke-dasharray:none;stroke-opacity:1"
       id="rect1593"
       width="84.666672"
       height="44.295589"
       x="-8.5063912e-06"
       y="0.091699176" />
    <rect
       style="fill:#222222;fill-opacity:1;stroke-width:0.111193"
       id="rect32-6"
       width="84.666679"
       height="3.2377102"
       x="-1.5216404e-05"
       y="44.387291" />
    <text
       xml:space="preserve"
       style="font-style:normal;font-variant:normal;font-weight:normal;font-stretch:normal;font-size:1.55565px;line-height:1.25;font-family:'Fira Code';-inkscape-font-specification:'Fira Code, Normal';font-variant-ligatures:normal;font-variant-caps:normal;font-variant-numeric:normal;font-variant-east-asian:normal;letter-spacing:0px;fill:#ffffff;fill-opacity:1;stroke:#fffdff;stroke-width:0.0504256;stroke-opacity:1"
       x="14.253791"
       y="46.677689"
       id="text859-6"><tspan
         sodipodi:role="line"
         x="14.253791"
         y="46.677689"
         style="font-style:normal;font-variant:normal;font-weight:300;font-stretch:normal;font-size:1.24452px;font-family:'Fira Code';-inkscape-font-specification:'Fira Code, Light';font-variant-ligatures:normal;font-variant-caps:normal;font-variant-numeric:normal;font-variant-east-asian:normal;fill:#ffffff;fill-opacity:1;stroke:#fffdff;stroke-width:0.0504256;stroke-opacity:1"
         id="tspan1387">Pluma</tspan></text>
    <path
       style="fill:#ffffff;stroke:#97bb72;stroke-width:0.11721042;stroke-linecap:butt;stroke-linejoin:miter;stroke-opacity:1;stroke-miterlimit:4;stroke-dasharray:none"
       d="M 11.411029,47.197521 H 26.133151"
       id="path1301" />
    <text
       xml:space="preserve"
       style="font-style:normal;font-variant:normal;font-weight:normal;font-stretch:normal;font-size:1.55565px;line-height:1.25;font-family:'Fira Code';-inkscape-font-specification:'Fira Code, Normal';font-variant-ligatures:normal;font-variant-caps:normal;font-variant-numeric:normal;font-variant-east-asian:normal;letter-spacing:0px;fill:#ffffff;fill-opacity:1;stroke:#fffdff;stroke-width:0.0504256;stroke-opacity:1"
       x="29.548656"
       y="46.720718"
       id="text859-6-8"><tspan
         sodipodi:role="line"
         x="29.548656"
         y="46.720718"
         style="font-style:normal;font-variant:normal;font-weight:300;font-stretch:normal;font-size:1.24453px;font-family:'Fira Code';-inkscape-font-specification:'Fira Code, Light';font-variant-ligatures:normal;font-variant-caps:normal;font-variant-numeric:normal;font-variant-east-asian:normal;fill:#ffffff;fill-opacity:1;stroke:#fffdff;stroke-width:0.0504256;stroke-opacity:1"
         id="tspan1387-8">Calculator</tspan></text>
    <path
       style="fill:#ffffff;stroke:#97bb72;stroke-width:0.117141px;stroke-linecap:butt;stroke-linejoin:miter;stroke-opacity:1"
       d="M 26.89507,47.197521 H 41.617188"
       id="path1301-7" />
    <g
       id="g950"
       transform="matrix(0.09776722,0,0,0.0977672,27.001917,44.752066)">
      <path
         style="opacity:0.2"
         d="m 3,2.5 h 18 c 0.554,0 1,0.446 1,1 v 13.450693 l -1.386749,3.817412 c -0.189157,0.520707 -0.808633,1.022121 -1.346687,1.154083 L 16.910632,22.5 H 3 c -0.554,0 -1,-0.446 -1,-1 v -18 c 0,-0.554 0.446,-1 1,-1 z"
         id="path912" />
      <path
         style="fill:#666666"
         d="m 18.303544,21.152542 c 0.267998,-0.484864 2.342224,-0.05909 2.540832,-0.576271 L 22,17.567026 V 12 H 11 v 10 h 6.835131 z"
         id="path914" />
      <path
         style="fill:#8c8c8c"
         d="M 3,22 C 2.446,22 2,21.554 2,21 V 11 h 10 v 11 z"
         id="path916" />
      <path
         style="fill:#a6a6a6"
         d="M 2,12 V 3 C 2,2.446 2.446,2 3,2 h 10 v 10 z"
         id="path918" />
      <path
         style="fill:#595959"
         d="M 12,2 V 12 H 22 V 3 C 22,2.446 21.554,2 21,2 Z"
         id="path920" />
      <path
         style="opacity:0.2;fill:#ffffff"
         d="M 2,3.5 V 3 C 2,2.446 2.446,2 3,2 h 18 c 0.554,0 1,0.446 1,1 v 0.5 c 0,-0.554 -0.446,-1 -1,-1 H 3 c -0.554,0 -1,0.446 -1,1 z"
         id="path922" />
      <circle
         style="fill:#07ce8e"
         cx="17"
         cy="17"
         r="6"
         id="circle924" />
      <path
         style="fill:#ffffff"
         d="m 15,15 v 1 h 4 v -1 z m 0,2 v 1 h 4 v -1 z"
         id="path926" />
      <path
         style="opacity:0.2"
         d="M 7,6 V 7.5 H 5.5 v 1 H 7 V 10 H 8 V 8.5 h 1.5 v -1 H 8 V 6 Z m 8,1.5 v 1 h 4 v -1 z M 5.7070312,15.085938 5,15.792969 5.3535156,16.146484 6.5,17.292969 5.3535156,18.439453 5,18.792969 5.7070312,19.5 6.0605469,19.146484 7.2070312,18 8.3535156,19.146484 8.7070312,19.5 9.4140625,18.792969 9.0605469,18.439453 7.9140625,17.292969 9.0605469,16.146484 9.4140625,15.792969 8.7070312,15.085938 8.3535156,15.439453 7.2070312,16.585938 6.0605469,15.439453 Z"
         id="path928" />
      <path
         style="fill:#ffffff"
         d="M 7,5.5 V 7 H 5.5 V 8 H 7 V 9.5 H 8 V 8 H 9.5 V 7 H 8 V 5.5 Z M 15,7 v 1 h 4 V 7 Z M 5.7070312,14.585938 5,15.292969 5.3535156,15.646484 6.5,16.792969 5.3535156,17.939453 5,18.292969 5.7070312,19 6.0605469,18.646484 7.2070312,17.5 8.3535156,18.646484 8.7070312,19 9.4140625,18.292969 9.0605469,17.939453 7.9140625,16.792969 9.0605469,15.646484 9.4140625,15.292969 8.7070312,14.585938 8.3535156,14.939453 7.2070312,16.085938 6.0605469,14.939453 Z"
         id="path930" />
    </g>
    <g
       id="g983"
       transform="matrix(0.09658301,0,0,0.096583,11.389857,44.7945)">
      <path
         style="fill:#e4e4e4"
         d="M 20,21 V 3 C 20,2.446 19.554,2 19,2 H 5 C 4.446,2 4,2.446 4,3 v 18 c 0,0.554 0.446,1 1,1 h 14 c 0.554,0 1,-0.446 1,-1 z"
         id="path960" />
      <path
         style="opacity:0.2"
         d="m 4,21 v 0.5 c 0,0.554 0.446,1 1,1 h 14 c 0.554,0 1,-0.446 1,-1 V 21 c 0,0.554 -0.446,1 -1,1 H 5 C 4.446,22 4,21.554 4,21 Z"
         id="path962" />
      <circle
         style="fill:#f34235"
         cx="17.5"
         cy="17.5"
         r="5.5"
         id="circle964" />
      <path
         style="fill:#ffffff"
         d="m 19.005859,15 c -0.07585,0 -0.152037,0.02899 -0.210937,0.08789 l -0.582031,0.585937 1.113281,1.113281 0.585937,-0.582031 c 0.117796,-0.117796 0.117796,-0.302123 0,-0.419922 L 19.214844,15.087891 C 19.155946,15.028993 19.081712,15 19.005859,15 Z m -1.5,1.380859 L 15,18.886719 V 20 h 1.113281 l 2.50586,-2.505859 z"
         id="path966" />
      <path
         style="opacity:0.2;fill:#ffffff"
         d="M 5,2 C 4.446,2 4,2.446 4,3 v 0.5 c 0,-0.554 0.446,-1 1,-1 h 14 c 0.554,0 1,0.446 1,1 V 3 C 20,2.446 19.554,2 19,2 Z"
         id="path968" />
    </g>
    <g
       id="g1008"
       transform="matrix(0.11667392,0,0,0.1166739,81.601458,44.607853)">
      <rect
         style="opacity:0.2"
         width="20"
         height="18"
         x="2"
         y="3.5"
         rx="1"
         ry="1"
         id="rect985" />
      <path
         style="fill:#87b158"
         d="M 2,4.9 V 20 c 0,0.554 0.446,1 1,1 h 18 c 0.554,0 1,-0.446 1,-1 V 4.9 Z"
         id="path987" />
      <path
         style="fill:#2f3e1f"
         d="M 3,3 C 2.446,3 2,3.45 2,4 V 5 H 22 V 4 C 22,3.45 21.554,3 21,3 Z"
         id="path989" />
      <path
         style="fill:#2f3e1f"
         d="m 8,19 c -0.554,0 -1,0.45 -1,1 v 1 h 10 v -1 c 0,-0.55 -0.446,-1 -1,-1 z"
         id="path991" />
      <path
         style="opacity:0.1;fill:#ffffff"
         d="M 3,3 C 2.446,3 2,3.45 2,4 v 0.5 c 0,-0.55 0.446,-1 1,-1 h 18 c 0.554,0 1,0.45 1,1 V 4 C 22,3.45 21.554,3 21,3 Z"
         id="path993" />
    </g>
    <rect
       style="fill:#edebe9;fill-opacity:1;stroke:#3d3846;stroke-width:0.0731089;stroke-miterlimit:4;stroke-dasharray:none;stroke-opacity:1"
       id="rect1012"
       width="29.821457"
       height="35.13586"
       x="0.021542404"
       y="9.2298746" />
    <rect
       style="fill:url(#linearGradient1399-2);fill-opacity:1;stroke:none;stroke-width:0.0460582;stroke-miterlimit:4;stroke-dasharray:none;stroke-opacity:1"
       id="rect1383-2"
       width="35.199749"
       height="1.7440901"
       x="-44.394398"
       y="29.87291"
       transform="rotate(-90)" />
    <rect
       style="fill:#97bb72;fill-opacity:1;stroke-width:0.0427397"
       id="rect32-5-8"
       width="14.347788"
       height="2.8227298"
       x="0.41954279"
       y="14.826446"
       ry="0.1298651" />
    <text
       xml:space="preserve"
       style="font-style:normal;font-variant:normal;font-weight:normal;font-stretch:normal;font-size:1.55565px;line-height:1.25;font-family:'Fira Code';-inkscape-font-specification:'Fira Code, Normal';font-variant-ligatures:normal;font-variant-caps:normal;font-variant-numeric:normal;font-variant-east-asian:normal;letter-spacing:0px;fill:#ffffff;fill-opacity:1;stroke:#fffdff;stroke-width:0.0504256;stroke-opacity:1"
       x="3.8044622"
       y="14.305275"
       id="text859-8-2"><tspan
         sodipodi:role="line"
         id="tspan954-5"
         x="3.8044622"
         y="14.305275"
         style="font-style:normal;font-variant:normal;font-weight:500;font-stretch:normal;font-size:1.55565px;font-family:'Fira Code';-inkscape-font-specification:'Fira Code, Medium';font-variant-ligatures:normal;font-variant-caps:normal;font-variant-numeric:normal;font-variant-east-asian:normal;fill:#3d3846;stroke:#3d3846;stroke-width:0.0504256">Accessories</tspan></text>
    <text
       xml:space="preserve"
       style="font-style:normal;font-variant:normal;font-weight:normal;font-stretch:normal;font-size:1.55565px;line-height:1.25;font-family:'Fira Code';-inkscape-font-specification:'Fira Code, Normal';font-variant-ligatures:normal;font-variant-caps:normal;font-variant-numeric:normal;font-variant-east-asian:normal;letter-spacing:0px;fill:#ffffff;fill-opacity:1;stroke:#fffdff;stroke-width:0.0504256;stroke-opacity:1"
       x="3.8078589"
       y="16.903175"
       id="text859-8-2-9"><tspan
         sodipodi:role="line"
         id="tspan954-5-2"
         x="3.8078589"
         y="16.903175"
         style="font-style:normal;font-variant:normal;font-weight:500;font-stretch:normal;font-size:1.55565px;font-family:'Fira Code';-inkscape-font-specification:'Fira Code, Medium';font-variant-ligatures:normal;font-variant-caps:normal;font-variant-numeric:normal;font-variant-east-asian:normal;fill:#f6f5f4;fill-opacity:1;stroke:#f6f5f4;stroke-width:0.0504256;stroke-opacity:1">Games</tspan></text>
    <text
       xml:space="preserve"
       style="font-style:normal;font-variant:normal;font-weight:normal;font-stretch:normal;font-size:1.55565px;line-height:1.25;font-family:'Fira Code';-inkscape-font-specification:'Fira Code, Normal';font-variant-ligatures:normal;font-variant-caps:normal;font-variant-numeric:normal;font-variant-east-asian:normal;letter-spacing:0px;fill:#ffffff;fill-opacity:1;stroke:#fffdff;stroke-width:0.0504256;stroke-opacity:1"
       x="3.8020008"
       y="19.526604"
       id="text859-8-2-9-8"><tspan
         sodipodi:role="line"
         id="tspan954-5-2-9"
         x="3.8020008"
         y="19.526604"
         style="font-style:normal;font-variant:normal;font-weight:500;font-stretch:normal;font-size:1.55565px;font-family:'Fira Code';-inkscape-font-specification:'Fira Code, Medium';font-variant-ligatures:normal;font-variant-caps:normal;font-variant-numeric:normal;font-variant-east-asian:normal;fill:#3d3846;stroke:#3d3846;stroke-width:0.0504256">Graphics</tspan></text>
    <text
       xml:space="preserve"
       style="font-style:normal;font-variant:normal;font-weight:normal;font-stretch:normal;font-size:1.55565px;line-height:1.25;font-family:'Fira Code';-inkscape-font-specification:'Fira Code, Normal';font-variant-ligatures:normal;font-variant-caps:normal;font-variant-numeric:normal;font-variant-east-asian:normal;letter-spacing:0px;fill:#ffffff;fill-opacity:1;stroke:#fffdff;stroke-width:0.0504256;stroke-opacity:1"
       x="3.8283062"
       y="22.292751"
       id="text859-8-2-9-2"><tspan
         sodipodi:role="line"
         id="tspan954-5-2-6"
         x="3.8283062"
         y="22.292751"
         style="font-style:normal;font-variant:normal;font-weight:500;font-stretch:normal;font-size:1.55565px;font-family:'Fira Code';-inkscape-font-specification:'Fira Code, Medium';font-variant-ligatures:normal;font-variant-caps:normal;font-variant-numeric:normal;font-variant-east-asian:normal;fill:#3d3846;stroke:#3d3846;stroke-width:0.0504256">Internet</tspan></text>
    <g
       id="g1114"
       transform="matrix(0.11667392,0,0,0.1166739,0.94024304,12.582373)">
      <path
         style="fill:#009688"
         d="m 0,1.00007 v 13 c 0,1 1,1 1,1 H 16 Z M 3,7.6114 8.015625,12.00007 H 3 Z"
         id="path1091" />
      <path
         style="fill:#a2a2a2;fill-rule:evenodd"
         d="M 8.137109,4 C 8.487077,4.0127 8.804901,4.20756 8.975,4.51367 l 5,9 L 14.1,16 12.225,14.48633 8.1,7.06055 V 4.00391 c 0.01263,0 0.02442,-0.004 0.03711,-0.004 z"
         id="path1093" />
      <path
         style="fill:#e4e4e4"
         d="M 7.862891,4 C 7.512923,4.0127 7.195099,4.20756 7.025,4.51367 l -5,9 L 1.9,16 3.775,14.48633 4.478125,13.22266 C 5.547166,13.73182 6.715903,13.99732 7.9,14 12.318278,14 16,10.418278 16,6 H 14 C 14,9.3137085 11.213708,12 7.9,12 7.0558182,11.9964 6.2218955,11.814717 5.452734,11.4668 L 7.9,7.06055 V 4.00391 c -0.01263,0 -0.02442,-0.004 -0.03711,-0.004 z"
         id="path1095" />
      <path
         style="fill:#4f4f4f"
         d="M 7,0 V 2 H 6 C 5.446,2 5,2.446 5,3 v 1 1 2 l 2,1.7 c 0.531455,0.42952 1.506979,0.49966 2,0 L 11,7 V 5 4 3 C 11,2.446 10.554,2 10,2 H 9 V 0 Z"
         id="path1097" />
      <circle
         style="fill:#ffffff"
         cx="8"
         cy="5"
         r="1"
         id="circle1099" />
    </g>
    <g
       id="g1157"
       transform="matrix(0.11667392,0,0,0.1166739,0.38385018,14.891712)">
      <path
         opacity="0.2"
         d="m 7.026,4.5 v 0.00195 c -2.4885,0 -4.3601,2.0013 -4.4909,4.4807 l -0.4988,9.4603 c -0.315,1.85 1.4831,3.018 2.9946,0.995 C 5.9734,18.15895 8,15.49995 8,15.49995 l 8,0.04044 2.9887,4.0231 c 1.4989,2.012 3.187,0.35648 2.9965,-1.0053 l -0.496,-9.4746 c 7.84e-4,-0.034624 0.0098,-0.066882 0.0098,-0.1017 0,-2.4824 -2.0028,-4.4827 -4.4909,-4.4827 H 7.0248 Z"
         id="path1116" />
      <path
         fill="#4f4f4f"
         d="m 7.026,4 v 0.00195 c -2.4885,0 -4.3601,2.0013 -4.4909,4.4807 l -0.4988,9.4603 c -0.315,1.85 1.4831,3.018 2.9946,0.995 C 5.9734,17.65895 8,14.99995 8,14.99995 l 8,0.04044 2.9887,4.0231 c 1.4989,2.012 3.187,0.35648 2.9965,-1.0053 l -0.496,-9.4746 c 7.84e-4,-0.034624 0.0098,-0.066882 0.0098,-0.1017 0,-2.4824 -2.0028,-4.4827 -4.4909,-4.4827 H 7.0248 Z"
         id="path1118" />
      <path
         fill="#ffffff"
         opacity="0.1"
         d="m 7.0254,4 v 0.002 c -2.4885,0 -4.3595,2.001 -4.4902,4.4804 L 2.0371,17.943 C 1.9932,18.201 1.9976,18.44 2.0293,18.664 2.0352,18.589 2.0239,18.521 2.0371,18.443 L 2.5352,8.9824 C 2.6659,6.503 4.5369,4.502 7.0254,4.502 V 4.5 H 17.01 c 2.488,0 4.49,2 4.49,4.4824 0,0.0348 -0.009,0.067 -0.01,0.1016 l 0.487,9.322 C 21.986,18.29 22,18.173 21.984,18.059 L 21.49,8.584 C 21.491,8.5494 21.5,8.5172 21.5,8.4824 21.5,6 19.498,4 17.01,4 Z"
         id="path1120" />
      <path
         opacity="0.2"
         d="m 6,6.5 v 2 H 4 v 2 h 2 v 2 h 2 v -2 h 2 v -2 H 8 v -2 z"
         id="path1122" />
      <path
         fill="#e4e4e4"
         d="M 6,6 V 8 H 4 v 2 h 2 v 2 h 2 v -2 h 2 V 8 H 8 V 6 Z"
         id="path1124" />
      <path
         opacity="0.2"
         d="m 17,6.5 a 1,1 0 0 0 -1,1 1,1 0 0 0 1,1 1,1 0 0 0 1,-1 1,1 0 0 0 -1,-1 z m -2,2 a 1,1 0 0 0 -1,1 1,1 0 0 0 1,1 1,1 0 0 0 1,-1 1,1 0 0 0 -1,-1 z m 4,0 a 1,1 0 0 0 -1,1 1,1 0 0 0 1,1 1,1 0 0 0 1,-1 1,1 0 0 0 -1,-1 z m -2,2 a 1,1 0 0 0 -1,1 1,1 0 0 0 1,1 1,1 0 0 0 1,-1 1,1 0 0 0 -1,-1 z"
         id="path1126" />
      <g
         transform="translate(0,1)"
         id="g1136">
        <circle
           fill="#ee5353"
           cx="15"
           cy="8"
           r="1"
           id="circle1128" />
        <circle
           fill="#ffca58"
           cx="10"
           cy="-17"
           r="1"
           transform="rotate(90)"
           id="circle1130" />
        <circle
           fill="#ee5353"
           cx="17"
           cy="6"
           r="1"
           id="circle1132" />
        <circle
           fill="#ffca58"
           cx="8"
           cy="-19"
           r="1"
           transform="rotate(90)"
           id="circle1134" />
      </g>
    </g>
    <g
       id="g1193"
       transform="matrix(0.11667392,0,0,0.1166739,0.29898482,17.70728)">
      <path
         id="ellipse856"
         style="opacity:0.2"
         d="M 12.497899,2.5 A 4.6426286,5 0 0 0 8.2829852,5.4208985 5.126057,4.5284602 23.678628 0 0 3.5640401,7.5 a 5.126057,4.5284602 23.678628 0 0 0.5020779,5 4.5284602,5.126057 66.321372 0 0 -0.5020779,5 4.5284602,5.126057 66.321372 0 0 4.7189451,2.080078 A 4.6426286,5 0 0 0 12.497899,22.5 4.6426286,5 0 0 0 16.714767,19.579101 c 1.965557,0.255354 3.808444,-0.556825 4.717968,-2.079101 0.94412,-1.584732 0.669373,-3.553849 -0.524544,-5.034179 0.0083,0.01034 0.01813,0.01989 0.02638,0.03027 A 4.52846,5.126057 66.32137 0 0 21.432735,7.5 4.52846,5.126057 66.32137 0 0 17.572401,5.3720705 4.52846,5.126057 66.32137 0 0 16.714767,5.4208985 4.6426286,5 0 0 0 12.497899,2.5 Z m 2.146041,3.602539 a 4.52846,5.126057 66.32137 0 1 10e-4,0 4.52846,5.126057 66.32137 0 0 0,10e-4 4.52846,5.126057 66.32137 0 0 -0.386815,0.239258 4.52846,5.126057 66.32137 0 1 0.385838,-0.2402345 z M 14.09986,6.455078 A 4.52846,5.126057 66.32137 0 0 13.850774,6.6416015 4.52846,5.126057 66.32137 0 1 14.09986,6.455078 Z m -0.415142,0.3291015 a 4.52846,5.126057 66.32137 0 0 -0.204153,0.183594 4.52846,5.126057 66.32137 0 1 0.204153,-0.183594 z m -0.369233,0.353516 a 4.52846,5.126057 66.32137 0 0 -0.181686,0.196289 4.52846,5.126057 66.32137 0 1 0.181686,-0.196289 z M 12.987278,7.515625 A 4.52846,5.126057 66.32137 0 0 12.828059,7.7246095 4.52846,5.126057 66.32137 0 1 12.987278,7.515625 Z m -0.28718,0.402344 a 4.52846,5.126057 66.32137 0 0 -0.13773,0.2197265 4.52846,5.126057 66.32137 0 1 0.13773,-0.2197265 z m 7.054486,3.477539 c 0.02825,0.01957 0.05429,0.04057 0.08205,0.06055 -0.02775,-0.01994 -0.05381,-0.04101 -0.08205,-0.06055 z m 0.418073,0.319336 c 0.04608,0.03875 0.08837,0.0802 0.132845,0.120117 -0.04455,-0.03993 -0.08668,-0.08137 -0.132845,-0.120117 z m 0.384861,0.357421 c 0.03692,0.03758 0.07087,0.07683 0.106472,0.115235 -0.03559,-0.03836 -0.06955,-0.0777 -0.106472,-0.115235 z m -8.01957,0.429688 c 0.16947,0.0015 0.336427,0.01356 0.501101,0.03418 -0.0051,-6.5e-4 -0.0105,-3.53e-4 -0.01563,-10e-4 a 4.6426286,5 0 0 0 -0.485472,-0.03321 z m 0.645669,0.05859 c 0.07922,0.01267 0.159499,0.02215 0.237363,0.03907 0.04527,0.0098 0.08904,0.02391 0.133822,0.03515 -0.0067,-0.0017 -0.01378,-0.0023 -0.02051,-0.0039 a 4.6426286,5 0 0 0 -0.113309,-0.03125 4.6426286,5 0 0 0 -0.21392,-0.03418 c -0.0079,-0.0013 -0.01552,-0.0036 -0.02345,-0.0049 z m 0.54408,0.12207 c 0.115359,0.03408 0.228345,0.07298 0.339928,0.116211 -0.01343,-0.0052 -0.02754,-0.0086 -0.04102,-0.01367 a 4.6426286,5 0 0 0 -0.275459,-0.09473 c -0.0079,-0.0024 -0.01551,-0.0055 -0.02345,-0.0078 z m 0.494263,0.176758 c 0.12704,0.0548 0.250957,0.116383 0.372163,0.182617 -0.02156,-0.01179 -0.04467,-0.02079 -0.06642,-0.03223 a 4.6426286,5 0 0 0 -0.288157,-0.141602 c -0.006,-0.0026 -0.01156,-0.0062 -0.01758,-0.0088 z m 0.463983,0.230469 c 0.01277,0.0074 0.02539,0.01497 0.0381,0.02246 0.133809,0.0789 0.263375,0.164599 0.388768,0.256836 A 4.6426286,5 0 0 0 14.724043,13.1123 4.6426286,5 0 0 0 14.701573,13.10058 c -0.0055,-0.0032 -0.01016,-0.0076 -0.01563,-0.01074 z m 0.500124,0.33789 c 0.09864,0.07566 0.196432,0.1528 0.289134,0.236328 A 4.6426286,5 0 0 0 15.186067,13.42773 Z m 0.454214,0.399414 c 0.0541,0.05371 0.109496,0.105721 0.161173,0.16211 a 4.6426286,5 0 0 0 -0.147497,-0.147461 4.6426286,5 0 0 0 -0.01368,-0.01465 z m 0.356534,0.392578 c 0.03834,0.04739 0.0776,0.09365 0.114286,0.142578 a 4.6426286,5 0 0 0 -0.09573,-0.11621 c -0.0067,-0.0084 -0.01183,-0.01804 -0.01856,-0.02637 z m 0.21099,0.283203 c 0.01069,0.01533 0.0217,0.03043 0.03224,0.0459 -0.0046,-0.0068 -0.01002,-0.01281 -0.01465,-0.01953 a 4.6426286,5 0 0 0 -0.01758,-0.02637 z m 0.0801,0.120118 a 4.52846,5.126057 66.32137 0 0 0.0039,0 c 0.03095,0.04725 0.06237,0.09415 0.09182,0.142578 a 4.6426286,5 0 0 0 -0.09573,-0.142578 z m 0.173871,0.283203 c 0.05362,0.09481 0.106538,0.190244 0.154335,0.289062 A 4.6426286,5 0 0 0 16.461774,14.90625 Z m 0.214898,0.423828 c 0.04706,0.104883 0.09155,0.21053 0.131868,0.319336 a 4.6426286,5 0 0 0 -0.131868,-0.319336 z m 0.177778,0.453125 c 0.03697,0.108742 0.07255,0.217949 0.102564,0.330078 A 4.6426286,5 0 0 0 16.85445,15.783203 Z m 0.14066,0.493164 c 0.02429,0.10382 0.04729,0.208166 0.06545,0.314453 a 4.6426286,5 0 0 0 -0.06545,-0.314453 z m 0.09377,0.510742 c 0.01281,0.09639 0.0246,0.192938 0.03224,0.291016 a 4.6426286,5 0 0 0 -0.03224,-0.291016 z" />
      <ellipse
         style="fill:#278df2"
         cx="12.499"
         cy="12"
         rx="8.2519999"
         ry="8"
         id="ellipse1160" />
      <ellipse
         id="ellipse8"
         style="fill:#34e0c4"
         cx="16.583"
         cy="-9.7200003"
         rx="4.5359998"
         ry="5.118"
         transform="matrix(0.51165104,0.85919335,-0.87259818,0.48843876,0,0)" />
      <ellipse
         id="ellipse10"
         style="fill:#ffc107"
         cx="12.499"
         cy="17"
         rx="4.6409998"
         ry="5" />
      <ellipse
         id="ellipse14"
         style="fill:#fb8300"
         cx="16.583"
         cy="0.51700002"
         rx="4.5359998"
         ry="5.118"
         transform="matrix(0.51165104,0.85919335,-0.87259818,0.48843876,0,0)" />
      <ellipse
         id="ellipse18"
         style="fill:#fa3e30"
         cx="4.368"
         cy="11.767"
         rx="4.5359998"
         ry="5.118"
         transform="matrix(-0.51165104,0.85919335,0.87259818,0.48843876,0,0)" />
      <path
         style="fill:#a544c9"
         d="M 12.499411,2 A 4.6414757,5 0 0 0 7.8579347,7 4.6414757,5 0 0 0 12.499411,12 4.5282783,5.1249895 66.278874 0 1 14.644884,5.602539 4.5282783,5.1249895 66.278874 0 1 16.714813,4.9208985 4.6414757,5 0 0 0 12.499411,2 Z m 0,10 A 4.6414757,5 0 0 0 16.91123,8.541992 4.6414757,5 0 0 1 16.287733,9.876953 5.1249895,4.5282783 23.721126 0 0 12.499411,12 Z M 16.91123,8.541992 A 4.6414757,5 0 0 0 17.023037,8.100586 4.6414757,5 0 0 1 16.91123,8.541992 Z M 16.769206,5.053711 A 4.6414757,5 0 0 1 16.924324,5.5097655 4.6414757,5 0 0 0 16.769206,5.053711 Z m 0.162169,0.4765625 a 4.6414757,5 0 0 1 0.09468,0.3955075 4.6414757,5 0 0 0 -0.09468,-0.3955075 z m 0.120872,0.517578 a 4.6414757,5 0 0 1 0.04532,0.319336 4.6414757,5 0 0 0 -0.04532,-0.319336 z m 0.06749,0.5185545 A 4.6414757,5 0 0 1 17.140886,7 4.6414757,5 0 0 0 17.119737,6.566406 Z m 0.01107,0.654297 a 4.6414757,5 0 0 1 -0.02014,0.328125 4.6414757,5 0 0 0 0.02014,-0.328125 z m -0.03626,0.4433595 a 4.6414757,5 0 0 1 -0.06044,0.3876955 4.6414757,5 0 0 0 0.06044,-0.3876955 z"
         id="path1166" />
      <path
         style="fill:#009688"
         d="M 16.359249,9.8720705 C 14.70987,9.9173115 13.265533,10.713575 12.499411,12 c 2.563416,0 4.641475,2.238576 4.641475,5 -0.0018,0.717949 -0.147129,1.427057 -0.426073,2.079101 1.965069,0.255354 3.807722,-0.556825 4.717021,-2.079101 1.281974,-2.152367 0.321379,-5.016709 -2.145475,-6.397461 -0.90004,-0.503619 -1.920312,-0.758231 -2.92711,-0.7304685 z m 0.355564,9.2070305 z M 12.499411,12 Z"
         id="path1168" />
      <path
         id="ellipse980"
         style="fill:#03a9f4"
         d="m 17.5725,4.8720702 a 4.5282783,5.1249895 66.278874 0 0 -2.927364,0.7309573 4.5282783,5.1249895 66.278874 0 0 -2.145474,6.3967285 c 0.766167,-1.286254 2.210333,-2.082448 3.859587,-2.127686 1.006798,-0.02776 2.02707,0.22685 2.92711,0.730469 0.66311,0.371157 1.216253,0.850154 1.647383,1.393067 A 4.5282783,5.1249895 66.278874 0 0 21.432085,7 4.5282783,5.1249895 66.278874 0 0 17.5725,4.8720702 Z M 12.499662,12 a 4.5282783,5.1249895 66.278874 0 0 3.795122,2.123291 C 15.45471,12.839435 14.068597,12.00009 12.499662,12 Z" />
      <path
         style="fill:#ffc107"
         d="m 12.499662,11.999756 c -7.9997744,8.000162 -3.9998873,4.000082 0,0 z m 0,2.44e-4 c 0.814377,1.61694 2.214779,2.317036 3.795122,2.123291 C 15.45471,12.839435 14.068597,12.00009 12.499662,12 Z"
         id="path1171" />
      <path
         id="ellipse880"
         style="opacity:0.2;fill:#ffffff"
         d="M 12.499024,2 A 4.6414757,5 0 0 0 8.2851562,4.9208984 5.1249895,4.5282785 23.721124 0 0 3.567383,7 5.1249895,4.5282785 23.721124 0 0 3.0156252,9.3134765 5.1249895,4.5282785 23.721124 0 1 3.567383,7.5 5.1249895,4.5282785 23.721124 0 1 8.2851562,5.4208985 4.6414757,5 0 0 1 12.499024,2.5 4.6414757,5 0 0 1 16.714844,5.4208985 4.5282783,5.1249895 66.278874 0 1 17.572266,5.3720705 4.5282783,5.1249895 66.278874 0 1 21.431641,7.5 4.5282783,5.1249895 66.278874 0 1 21.986328,9.339844 4.5282783,5.1249895 66.278874 0 0 21.431641,7 4.5282783,5.1249895 66.278874 0 0 17.572266,4.8720703 4.5282783,5.1249895 66.278874 0 0 16.714844,4.9208984 4.6414757,5 0 0 0 12.499024,2 Z m 2.145507,4.102539 a 4.5282783,5.1249895 66.278874 0 0 -0.385742,0.2402345 4.5282783,5.1249895 66.278874 0 1 0.386719,-0.239258 4.5282783,5.1249895 66.278874 0 0 0,-0.001 4.5282783,5.1249895 66.278874 0 1 -10e-4,0 z M 3.8886721,12.251953 a 4.5282785,5.1249895 66.278876 0 0 -0.875,2.91211 A 4.5282785,5.1249895 66.278876 0 1 4.0693362,12.5 5.1249895,4.5282785 23.721124 0 1 3.8886721,12.251953 Z m 17.2197269,10e-4 a 4.5282783,5.1249895 66.278874 0 1 -0.174805,0.243165 c -0.0082,-0.01039 -0.01802,-0.01993 -0.02636,-0.03027 0.650168,0.806338 1.025587,1.757622 1.082032,2.71289 0.06069,-1.009871 -0.258169,-2.037518 -0.88086,-2.925781 z m -7.923828,0.307617 c 0.0079,0.0013 0.01553,0.0036 0.02343,0.0049 a 4.6414757,5 0 0 1 0.213867,0.03418 c -0.07784,-0.01692 -0.158102,-0.0264 -0.237305,-0.03907 z m 0.237304,0.03907 a 4.6414757,5 0 0 1 0.113281,0.03125 c 0.0067,0.0016 0.01379,0.0022 0.02051,0.0039 -0.04477,-0.01125 -0.08853,-0.02532 -0.133789,-0.03515 z m 1.264649,0.490234 c 0.0055,0.0031 0.01017,0.0075 0.01563,0.01074 a 4.6414757,5 0 0 1 0.02246,0.01172 c -0.0127,-0.0075 -0.02531,-0.0151 -0.03808,-0.02246 z m 1.310547,1.129882 c 0.0067,0.0083 0.01188,0.018 0.01856,0.02637 a 4.6414757,5 0 0 1 0.0957,0.116211 c -0.03668,-0.04894 -0.07593,-0.09519 -0.114258,-0.142578 z m 0.210937,0.283203 a 4.6414757,5 0 0 1 0.01758,0.02637 c 0.0047,0.0067 0.01005,0.01277 0.01465,0.01953 -0.01053,-0.01547 -0.02153,-0.03057 -0.03223,-0.0459 z m 0.08008,0.120118 a 4.6414757,5 0 0 1 0.0957,0.142578 c -0.02944,-0.04843 -0.06085,-0.09533 -0.0918,-0.142578 a 4.5282783,5.1249895 66.278874 0 1 -0.0039,0 z" />
    </g>
    <g
       transform="matrix(0.11667392,0,0,0.1166739,0.50711421,20.556347)"
       id="g1211">
      <g
         transform="matrix(0.5,0,0,0.5,-1.0001,-0.49948)"
         id="g1207">
        <rect
           fill="#6573c3"
           width="39.964001"
           height="39.964001"
           x="-42.98"
           y="-43.98"
           rx="19.982"
           ry="19.982"
           transform="matrix(0,-1,-1,0,0,0)"
           id="rect1195" />
        <path
           opacity="0.1"
           d="M 38.129,8.8707 9.871,37.1287 c 7.8276,7.8276 20.431,7.8276 28.259,0 7.8276,-7.8276 7.8276,-20.431 0,-28.259 z"
           id="path1197" />
        <path
           fill="#ffffff"
           opacity="0.2"
           d="m 24,3.0182 c -11.07,0 -19.982,8.9119 -19.982,19.982 0,0.16757 -0.004,0.33299 0,0.49955 0.2644,-10.837 9.08,-19.483 19.982,-19.483 10.902,0 19.718,8.6458 19.982,19.482 0.004,-0.16656 0,-0.33198 0,-0.49955 C 43.982,11.9302 35.07,3.0182 24,3.0182 Z"
           id="path1199" />
        <path
           fill="#f2f2f2"
           d="m 9.8707,37.129 12.363,-15.895 1.673,1.673 1.8593,1.8593 z"
           id="path1201" />
        <path
           fill="#f34235"
           d="m 38.129,8.8707 -15.895,12.363 3.532,3.532 z"
           id="path1203" />
        <path
           fill="#ffffff"
           opacity="0.2"
           d="M 38.129,8.8707 9.871,37.1287 c -7.8276,-7.8276 -7.8276,-20.431 0,-28.259 7.8276,-7.8276 20.431,-7.8276 28.259,0 z"
           id="path1205" />
      </g>
      <path
         opacity="0.2"
         d="m 1.0154,11.263 c -0.00195,0.082 -0.0068,0.1635 -0.0068,0.246 0,5.5349 4.4562,9.9909 9.9909,9.9909 5.5347,0 9.9909,-4.456 9.9909,-9.9909 0,-0.0825 -0.0045,-0.164 -0.0065,-0.246 -0.13,5.4204 -4.532,9.7459 -9.9844,9.7459 -5.4524,0 -9.8544,-4.3255 -9.9844,-9.7459 z"
         id="path1209" />
    </g>
    <rect
       style="fill:#f7f7f7;fill-opacity:1;stroke:#3d3846;stroke-width:0.0260607;stroke-miterlimit:4;stroke-dasharray:none;stroke-opacity:1"
       id="rect1012-7"
       width="14.088787"
       height="31.592783"
       x="15.483225"
       y="12.498096" />
    <g
       id="g1363"
       transform="matrix(0.11667392,0,0,0.1166739,15.966377,12.854788)">
      <path
         fill="#886c38"
         d="M 12,2 A 10,10 0 0 0 2,12 10,10 0 0 0 12,22 10,10 0 0 0 22,12 10,10 0 0 0 12,2 Z"
         id="path1340" />
      <path
         fill="#ffffff"
         opacity="0.2"
         d="M 12,2 A 10,10 0 0 0 2.0703,10.926 10,9.5 0 0 1 12,2.5 10,9.5 0 0 1 21.961,11.224 10,10 0 0 0 12,2 Z m 9.9609,9.2236 a 10,10 0 0 1 0.039,0.776 10,9.5 0 0 0 -0.039,-0.776 z M 2.0699,10.9256 A 10,9.5 0 0 0 2.045486,11.12189 10,10 0 0 1 2.0699,10.9256 Z m -0.024414,0.19629 a 10,10 0 0 0 -0.0459,0.878 10,9.5 0 0 1 0.0459,-0.878 z"
         id="path1342" />
      <path
         opacity="0.2"
         d="M 12,22.5 A 10,10 0 0 1 2.0703,13.574 10,9.5 0 0 0 12,22 10,9.5 0 0 0 21.961,13.276 10,10 0 0 1 12,22.5 Z m 9.9609,-9.2236 a 10,10 0 0 0 0.039,-0.776 10,9.5 0 0 1 -0.039,0.776 z m -19.891,0.298 A 10,9.5 0 0 1 2.045486,13.37815 10,10 0 0 0 2.0699,13.5744 Z m -0.0244,-0.196 a 10,10 0 0 1 -0.0459,-0.878 10,9.5 0 0 0 0.0459,0.878 z"
         id="path1344" />
      <path
         opacity="0.2"
         d="m 13,4.5701 v 6.9297 h 6.9268 a 8,8 0 0 0 -6.927,-6.9299 z m -2,0.00293 a 8,8 0 0 0 -6.9297,6.9268 H 11 Z m -6.9268,8.927 a 8,8 0 0 0 6.9268,6.93 v -6.9297 H 4.0732 Z m 8.9268,0 v 6.9268 a 8,8 0 0 0 6.9297,-6.9268 z"
         id="path1346" />
      <path
         fill="#ffffff"
         d="M 13,4.0703 V 11 h 6.927 A 8,8 0 0 0 13,4.0703 Z m -2,0.00293 a 8,8 0 0 0 -6.9297,6.9268 H 11 Z m -6.9268,8.9268 a 8,8 0 0 0 6.9268,6.93 v -6.93 z m 8.9268,0 v 6.927 a 8,8 0 0 0 6.93,-6.927 z"
         id="path1348" />
    </g>
    <text
       xml:space="preserve"
       style="font-style:normal;font-variant:normal;font-weight:normal;font-stretch:normal;font-size:1.55565px;line-height:1.25;font-family:'Fira Code';-inkscape-font-specification:'Fira Code, Normal';font-variant-ligatures:normal;font-variant-caps:normal;font-variant-numeric:normal;font-variant-east-asian:normal;letter-spacing:-0.116674px;fill:#ffffff;fill-opacity:1;stroke:#fffdff;stroke-width:0.0504256;stroke-opacity:1"
       x="19.562616"
       y="14.817758"
       id="text859-8-2-9-1"><tspan
         sodipodi:role="line"
         id="tspan954-5-2-7"
         x="19.562616"
         y="14.817758"
         style="font-style:normal;font-variant:normal;font-weight:300;font-stretch:normal;font-size:1.55565px;font-family:'Fira Code';-inkscape-font-specification:'Fira Code, Light';font-variant-ligatures:normal;font-variant-caps:normal;font-variant-numeric:normal;font-variant-east-asian:normal;fill:#3d3846;stroke:#3d3846;stroke-width:0.0504256">0 A.D.</tspan></text>
    <rect
       style="fill:url(#linearGradient1399);fill-opacity:1;stroke:none;stroke-width:0.0424385;stroke-miterlimit:4;stroke-dasharray:none;stroke-opacity:1"
       id="rect1383"
       width="29.884552"
       height="1.7440897"
       x="-0.0033510446"
       y="-9.21"
       transform="scale(1,-1)" />
    <path
       style="fill:url(#linearGradient1433-6-1);fill-opacity:1;stroke:none;stroke-width:0.116674px;stroke-linecap:butt;stroke-linejoin:miter;stroke-opacity:1"
       d="m 29.881201,9.1945035 1.72612,-0.0067 -1.72612,-1.737396 z"
       id="path1425-6-4"
       sodipodi:nodetypes="cccc" />
    <text
       xml:space="preserve"
       style="font-style:normal;font-variant:normal;font-weight:normal;font-stretch:normal;font-size:1.55565px;line-height:1.25;font-family:'Fira Code';-inkscape-font-specification:'Fira Code, Normal';font-variant-ligatures:normal;font-variant-caps:normal;font-variant-numeric:normal;font-variant-east-asian:normal;letter-spacing:-0.116674px;fill:#ffffff;fill-opacity:1;stroke:#fffdff;stroke-width:0.0504256;stroke-opacity:1"
       x="67.33847"
       y="46.552628"
       id="text859"><tspan
         sodipodi:role="line"
         id="tspan857"
         x="67.33847"
         y="46.552628"
         style="font-style:normal;font-variant:normal;font-weight:300;font-stretch:normal;font-size:1.55565px;font-family:'Fira Code';-inkscape-font-specification:'Fira Code, Light';font-variant-ligatures:normal;font-variant-caps:normal;font-variant-numeric:normal;font-variant-east-asian:normal;fill:#ffffff;fill-opacity:1;stroke:#fffdff;stroke-width:0.0504256;stroke-opacity:1">Fr 25 Dez, 16:04</tspan></text>
    <path
       style="fill:#ffffff;stroke-width:0.116674;fill-opacity:1"
       class="ColorScheme-Text"
       d="m 63.928958,45.364573 c 0,0 -0.116673,0 -0.116673,0.116674 v 1.050066 c 0,0.116674 0.116673,0.116674 0.116673,0.116674 h 0.233349 l 0.116672,0.116674 h 0.700044 l 0.116672,-0.116674 h 0.23335 c 0,0 0.116672,0.01517 0.116672,-0.116674 v -1.050066 c 0,-0.116674 -0.116672,-0.116674 -0.116672,-0.116674 z m 0.116672,0.233348 h 1.166742 v 0.816718 h -0.233349 l -0.116672,0.116674 H 64.395652 L 64.278979,46.414639 H 64.04563 Z"
       id="path864" />
    <path
       style="fill:#ffffff;stroke-width:0.116674;fill-opacity:1"
       class="ColorScheme-Text"
       d="m 62.065118,45.221721 -0.466699,0.466696 h -0.350022 v 0.700044 h 0.350022 l 0.466699,0.466696 z m 0.233345,0 v 0.175011 c 0.270686,0.08634 0.466698,0.341855 0.466698,0.641707 0,0.299852 -0.196012,0.555368 -0.466698,0.641707 v 0.175011 c 0.367524,-0.09101 0.641707,-0.420026 0.641707,-0.816718 0,-0.396691 -0.274183,-0.725712 -0.641707,-0.816718 z m 0,0.466696 v 0.700044 c 0.123675,-0.06767 0.208729,-0.198346 0.208729,-0.350022 0,-0.151676 -0.08389,-0.282351 -0.208729,-0.350022 z"
       id="path877" />
    <g
       id="g916"
       transform="matrix(0.11667392,0,0,0.1166739,58.551014,45.132005)"
       style="fill:#ffffff;fill-opacity:1">
      <path
         style="fill:#ffffff;fill-opacity:1"
         class="ColorScheme-Text"
         d="M 8,0 C 6.3379,0 5,1.3381 5,3 V 8.002 C 5,9.664 6.3379,11 8,11 9.662,11 11,9.664 11,8.002 V 3 C 11,1.3381 9.662,0 8,0 Z"
         id="path903" />
      <path
         style="fill:#ffffff;fill-opacity:1"
         class="ColorScheme-Text"
         d="M 2,7 V 7.999 C 2,10.965 4,14 7,14 v 2 h 2 v -2 c 3,0 5,-3.035 5,-6.001 V 7 H 12 V 7.999 C 12,10.233 10.233,12 8,12 5.7666,12 4,10.233 4,7.999 V 7 Z"
         id="path905" />
    </g>
    <text
       xml:space="preserve"
       style="font-style:normal;font-variant:normal;font-weight:normal;font-stretch:normal;font-size:1.55565px;line-height:1.25;font-family:'Fira Code';-inkscape-font-specification:'Fira Code, Normal';font-variant-ligatures:normal;font-variant-caps:normal;font-variant-numeric:normal;font-variant-east-asian:normal;letter-spacing:0px;fill:#ffffff;fill-opacity:1;stroke:#fffdff;stroke-width:0.0504256;stroke-opacity:1;"
       x="3.2965317"
       y="46.460297"
       id="text859-8"><tspan
         sodipodi:role="line"
         id="tspan954"
         x="3.2965317"
         y="46.460297"
         style="font-style:normal;font-variant:normal;font-weight:normal;font-stretch:normal;font-size:1.55565px;font-family:'Fira Code';-inkscape-font-specification:'Fira Code, Normal';font-variant-ligatures:normal;font-variant-caps:normal;font-variant-numeric:normal;font-variant-east-asian:normal;stroke-width:0.0504256">Menu</tspan></text>
    <g
       id="g993"
       transform="matrix(0.15384219,0,0,0.15384216,0.29661577,44.718553)"
       style="fill:#ffffff;fill-opacity:1">
      <rect
         style="fill:#ffffff;fill-opacity:1"
         class="ColorScheme-Text"
         width="2"
         height="2"
         x="3"
         y="3"
         rx="0.5"
         ry="0.5"
         id="rect959" />
      <rect
         style="fill:#ffffff;fill-opacity:1"
         class="ColorScheme-Text"
         width="2"
         height="2"
         x="7"
         y="3"
         rx="0.5"
         ry="0.5"
         id="rect961" />
      <rect
         style="fill:#ffffff;fill-opacity:1"
         class="ColorScheme-Text"
         width="2"
         height="2"
         x="11"
         y="3"
         rx="0.5"
         ry="0.5"
         id="rect963" />
      <rect
         style="fill:#ffffff;fill-opacity:1"
         class="ColorScheme-Text"
         width="2"
         height="2"
         x="3"
         y="7"
         rx="0.5"
         ry="0.5"
         id="rect965" />
      <rect
         style="fill:#ffffff;fill-opacity:1"
         class="ColorScheme-Text"
         width="2"
         height="2"
         x="7"
         y="7"
         rx="0.5"
         ry="0.5"
         id="rect967" />
      <rect
         style="fill:#ffffff;fill-opacity:1"
         class="ColorScheme-Text"
         width="2"
         height="2"
         x="11"
         y="7"
         rx="0.5"
         ry="0.5"
         id="rect969" />
      <rect
         style="fill:#ffffff;fill-opacity:1"
         class="ColorScheme-Text"
         width="2"
         height="2"
         x="3"
         y="11"
         rx="0.5"
         ry="0.5"
         id="rect971" />
      <rect
         style="fill:#ffffff;fill-opacity:1"
         class="ColorScheme-Text"
         width="2"
         height="2"
         x="7"
         y="11"
         rx="0.5"
         ry="0.5"
         id="rect973" />
      <rect
         style="fill:#ffffff;fill-opacity:1"
         class="ColorScheme-Text"
         width="2"
         height="2"
         x="11"
         y="11"
         rx="0.5"
         ry="0.5"
         id="rect975" />
    </g>
    <path
       style="fill:#ffffff;stroke:#97bb72;stroke-width:0.11721042;stroke-linecap:butt;stroke-linejoin:miter;stroke-opacity:1;stroke-miterlimit:4;stroke-dasharray:none"
       d="M 0.60951144,47.195053 H 7.4669045"
       id="path1301-5" />
    <rect
       style="fill:#f7f7f7;fill-opacity:1;stroke:#97bb72;stroke-width:0.05291667;stroke-miterlimit:4;stroke-dasharray:none;stroke-opacity:1"
       id="rect1012-7-4"
       width="28.614929"
       height="2.5519876"
       x="0.24792351"
       y="9.4591866"
       ry="0.17835243" />
    <path
       style="fill:currentColor;stroke-width:0.127513"
       class="ColorScheme-Text"
       d="M 1.3846045,9.8330543 A 0.70132414,0.70132414 0 0 0 0.68328002,10.534378 0.70132414,0.70132414 0 0 0 1.3846045,11.235703 0.70132414,0.70132414 0 0 0 1.7820894,11.112142 l 0.4669288,0.466955 a 0.12751348,0.12751348 0 0 0 0.091937,0.03915 0.12751348,0.12751348 0 0 0 0.1275133,-0.127514 0.12751348,0.12751348 0 0 0 -0.038637,-0.09143 L 1.9618572,10.931368 A 0.70132414,0.70132414 0 0 0 2.085928,10.53438 0.70132414,0.70132414 0 0 0 1.384604,9.8330557 Z m 0,0.2550267 A 0.44629719,0.44629719 0 0 1 1.8309014,10.534378 0.44629719,0.44629719 0 0 1 1.3846045,10.980676 0.44629719,0.44629719 0 0 1 0.93830715,10.534378 0.44629719,0.44629719 0 0 1 1.3846045,10.088081 Z"
       id="path1002" />
    <path
       style="fill:currentColor;stroke-width:0.143097"
       class="ColorScheme-Text"
       d="m 26.881049,9.8645736 -0.715488,0.8585854 0.715488,0.858586 h 1.574074 V 9.8645736 Z m 0.286195,0.4292924 h 0.143098 c 0.04007,0 0.07584,0.01574 0.101599,0.0415 l 0.184596,0.186026 0.184596,-0.186026 c 0.02576,-0.02576 0.06153,-0.0415 0.1016,-0.0415 h 0.143097 v 0.143097 c 0,0.04007 -0.01574,0.07584 -0.0415,0.1016 l -0.186027,0.184596 0.186027,0.184595 c 0.02576,0.02576 0.0415,0.06153 0.0415,0.1016 v 0.143098 h -0.143097 c -0.04007,0 -0.07584,-0.01574 -0.1016,-0.0415 l -0.184596,-0.186026 -0.184596,0.186028 c -0.02576,0.02576 -0.06153,0.0415 -0.101599,0.0415 h -0.143098 v -0.143097 c 0,-0.04007 0.01574,-0.07584 0.0415,-0.1016 l 0.186027,-0.184596 -0.186027,-0.184596 c -0.02576,-0.02576 -0.0415,-0.06153 -0.0415,-0.101599 z"
       id="path1015" />
    <g
       id="g1014"
       transform="matrix(2.2224609,0,0,2.2224609,-42.833687,-44.716892)">
      <g
         id="g992"
         transform="matrix(0.26458333,0,0,0.26458333,29.854376,22.235956)">
        <path
           style="opacity:0.2"
           d="M 6.8,5 C 5.2488,5 4,6.2488 4,7.8 V 58.2 C 4,59.7512 5.2488,61 6.8,61 H 21 V 22 H 40 V 5 Z M 43,5 V 61 H 57.2 C 58.7512,61 60,59.7512 60,58.2 V 7.8 C 60,6.2488 58.7512,5 57.2,5 Z M 24,25 V 61 H 40 V 25 Z"
           id="path975" />
        <path
           style="fill:#35bf5c;fill-opacity:1"
           d="M 6.8,4 C 5.2488,4 4,5.2488 4,6.8 V 57.2 C 4,58.7512 5.2488,60 6.8,60 H 21 V 21 H 40 V 4 Z M 43,4 V 60 H 57.2 C 58.7512,60 60,58.7512 60,57.2 V 6.8 C 60,5.2488 58.7512,4 57.2,4 Z M 24,24 V 60 H 40 V 24 Z"
           id="path977" />
        <path
           style="opacity:0.2;fill:#ffffff"
           d="M 6.8007812,4 C 5.2495813,4 4,5.2495813 4,6.8007812 v 1 C 4,6.2495812 5.2495813,5 6.8007812,5 H 40 V 4 Z M 43,4 V 5 H 57.199219 C 58.750419,5 60,6.2495813 60,7.8007812 v -1 C 60,5.2495813 58.750419,4 57.199219,4 Z M 24,24 v 1 h 16 v -1 z"
           id="path979" />
      </g>
    </g>
  </g>
</svg>
