<?xml version="1.0" encoding="UTF-8" standalone="no"?>
<svg
   xmlns:dc="http://purl.org/dc/elements/1.1/"
   xmlns:cc="http://creativecommons.org/ns#"
   xmlns:rdf="http://www.w3.org/1999/02/22-rdf-syntax-ns#"
   xmlns:svg="http://www.w3.org/2000/svg"
   xmlns="http://www.w3.org/2000/svg"
   xmlns:xlink="http://www.w3.org/1999/xlink"
   xmlns:sodipodi="http://sodipodi.sourceforge.net/DTD/sodipodi-0.dtd"
   xmlns:inkscape="http://www.inkscape.org/namespaces/inkscape"
   width="320"
   height="180"
   viewBox="0 0 84.666663 47.625001"
   version="1.1"
   id="svg8"
   inkscape:version="1.0.2 (e86c870879, 2021-01-15)"
   sodipodi:docname="mutiny-logo.svg"
   inkscape:export-filename="/home/kunruh/src/mate-layouts/data/layout-previews/default.png"
   inkscape:export-xdpi="96"
   inkscape:export-ydpi="96">
  <defs
     id="defs2">
    <rect
       x="89.470496"
       y="-5.0336012"
       width="23.327936"
       height="15.540526"
       id="rect1302" />
    <linearGradient
       inkscape:collect="always"
       id="linearGradient1186">
      <stop
         style="stop-color:#f8f9fa;stop-opacity:1;"
         offset="0"
         id="stop1182" />
      <stop
         style="stop-color:#f8f9fa;stop-opacity:0;"
         offset="1"
         id="stop1184" />
    </linearGradient>
    <style
       id="current-color-scheme"
       type="text/css">
   .ColorScheme-Text { color:#dfdfdf; } .ColorScheme-Highlight { color:#4285f4; }
  </style>
    <style
       id="current-color-scheme-0"
       type="text/css">
   .ColorScheme-Text { color:#dfdfdf; } .ColorScheme-Highlight { color:#4285f4; }
  </style>
    <style
       id="current-color-scheme-7"
       type="text/css">
   .ColorScheme-Text { color:#dfdfdf; } .ColorScheme-Highlight { color:#4285f4; }
  </style>
    <style
       id="current-color-scheme-8"
       type="text/css">
   .ColorScheme-Text { color:#dfdfdf; } .ColorScheme-Highlight { color:#4285f4; }
  </style>
    <style
       id="current-color-scheme-2"
       type="text/css">
   .ColorScheme-Text { color:#dfdfdf; } .ColorScheme-Highlight { color:#4285f4; }
  </style>
    <filter
       style="color-interpolation-filters:sRGB"
       inkscape:label="Greyscale"
       id="filter939">
      <feColorMatrix
         values="0.21 0.72 0.072 1.5 0 0.21 0.72 0.072 1.5 0 0.21 0.72 0.072 1.5 0 0 0 0 1 0 "
         id="feColorMatrix937" />
    </filter>
    <filter
       style="color-interpolation-filters:sRGB"
       inkscape:label="Lightness-Contrast"
       id="filter2112">
      <feColorMatrix
         values="1 0 0 0.15 -0 0 1 0 0.15 -0 0 0 1 0.15 -0 0 0 0 1 0"
         id="feColorMatrix2110" />
    </filter>
    <filter
       style="color-interpolation-filters:sRGB"
       inkscape:label="Lightness-Contrast"
       id="filter2116">
      <feColorMatrix
         values="1 0 0 0.15 -0 0 1 0 0.15 -0 0 0 1 0.15 -0 0 0 0 1 0"
         id="feColorMatrix2114" />
    </filter>
    <filter
       style="color-interpolation-filters:sRGB"
       inkscape:label="Lightness-Contrast"
       id="filter2120">
      <feColorMatrix
         values="1 0 0 0.15 -0 0 1 0 0.15 -0 0 0 1 0.15 -0 0 0 0 1 0"
         id="feColorMatrix2118" />
    </filter>
    <filter
       style="color-interpolation-filters:sRGB"
       inkscape:label="Lightness-Contrast"
       id="filter2124">
      <feColorMatrix
         values="1 0 0 0.15 -0 0 1 0 0.15 -0 0 0 1 0.15 -0 0 0 0 1 0"
         id="feColorMatrix2122" />
    </filter>
    <filter
       style="color-interpolation-filters:sRGB"
       inkscape:label="Lightness-Contrast"
       id="filter2128">
      <feColorMatrix
         values="1 0 0 0.15 -0 0 1 0 0.15 -0 0 0 1 0.15 -0 0 0 0 1 0"
         id="feColorMatrix2126" />
    </filter>
    <filter
       style="color-interpolation-filters:sRGB"
       inkscape:label="Lightness-Contrast"
       id="filter2132">
      <feColorMatrix
         values="1 0 0 0.15 -0 0 1 0 0.15 -0 0 0 1 0.15 -0 0 0 0 1 0"
         id="feColorMatrix2130" />
    </filter>
    <filter
       style="color-interpolation-filters:sRGB"
       inkscape:label="Lightness-Contrast"
       id="filter2136">
      <feColorMatrix
         values="1 0 0 0.15 -0 0 1 0 0.15 -0 0 0 1 0.15 -0 0 0 0 1 0"
         id="feColorMatrix2134" />
    </filter>
    <linearGradient
       inkscape:collect="always"
       xlink:href="#linearGradient1186"
       id="linearGradient1188"
       x1="-2.5883915"
       y1="12.192496"
       x2="6.5859065"
       y2="12.192496"
       gradientUnits="userSpaceOnUse"
       gradientTransform="matrix(1,0,0,0.93811577,0,0.55933957)" />
  </defs>
  <sodipodi:namedview
     id="base"
     pagecolor="#ffffff"
     bordercolor="#666666"
     borderopacity="1.0"
     inkscape:pageopacity="0.0"
     inkscape:pageshadow="2"
     inkscape:zoom="2"
     inkscape:cx="71.684492"
     inkscape:cy="29.499999"
     inkscape:document-units="px"
     inkscape:current-layer="layer1"
     inkscape:document-rotation="0"
     showgrid="false"
     inkscape:snap-bbox="false"
     inkscape:snap-page="true"
     inkscape:window-width="1920"
     inkscape:window-height="1006"
     inkscape:window-x="0"
     inkscape:window-y="26"
     inkscape:window-maximized="1"
     units="px"
     inkscape:snap-global="false" />
  <metadata
     id="metadata5">
    <rdf:RDF>
      <cc:Work
         rdf:about="">
        <dc:format>image/svg+xml</dc:format>
        <dc:type
           rdf:resource="http://purl.org/dc/dcmitype/StillImage" />
        <dc:title />
      </cc:Work>
    </rdf:RDF>
  </metadata>
  <g
     inkscape:label="Layer 1"
     inkscape:groupmode="layer"
     id="layer1">
    <rect
       style="fill:#deddda;fill-opacity:1;stroke:none;stroke-width:0.0302949;stroke-miterlimit:4;stroke-dasharray:none;stroke-opacity:1"
       id="rect1593"
       width="84.666672"
       height="44.389191"
       x="-8.5063912e-06"
       y="3.2377098" />
    <g
       id="g973"
       transform="matrix(0.72502501,0,0,0.72502501,21.778368,3.9533536)"
       style="opacity:0.5;fill:#000000;fill-opacity:1">
      <circle
         style="opacity:0.2;fill:#000000;fill-opacity:1"
         cx="32"
         cy="33"
         r="28"
         id="circle963" />
      <circle
         style="fill:#000000;fill-opacity:1"
         cx="32"
         cy="32"
         r="28"
         id="circle965" />
      <path
         style="opacity:0.2;fill:#000000;fill-opacity:1"
         d="m 20,35.8 c 0,0 0,11.2 9,11.2 H 44 V 19 H 38 V 40 H 30.5 C 26,40 26,34.4 26,34.4 V 19 h -6 z"
         id="path967" />
      <path
         style="fill:#000000;fill-opacity:1"
         d="m 20,34.8 c 0,0 0,11.2 9,11.2 H 44 V 18 H 38 V 39 H 30.5 C 26,39 26,33.4 26,33.4 V 18 h -6 z"
         id="path969" />
      <path
         style="opacity:0.1;fill:#000000;fill-opacity:1"
         d="M 32,4 A 28,28 0 0 0 4,32 28,28 0 0 0 4.0215,32.586 28,28 0 0 1 32,5 28,28 0 0 1 59.979,32.414 28,28 0 0 0 60,32 28,28 0 0 0 32,4 Z"
         id="path971" />
    </g>
    <rect
       style="fill:#222222;fill-opacity:1;stroke-width:0.111193"
       id="rect32"
       width="84.666679"
       height="3.23771"
       x="-8.5063912e-06"
       y="-1.3328261e-07" />
    <text
       xml:space="preserve"
       style="font-style:normal;font-variant:normal;font-weight:normal;font-stretch:normal;font-size:1.55565px;line-height:1.25;font-family:'Fira Code';-inkscape-font-specification:'Fira Code, Normal';font-variant-ligatures:normal;font-variant-caps:normal;font-variant-numeric:normal;font-variant-east-asian:normal;letter-spacing:0.132292px;fill:#ffffff;fill-opacity:1;stroke:#fffdff;stroke-width:0.0504256;stroke-opacity:1"
       x="68.624672"
       y="2.0904531"
       id="text859"><tspan
         sodipodi:role="line"
         id="tspan857"
         x="68.624672"
         y="2.0904531"
         style="font-style:normal;font-variant:normal;font-weight:300;font-stretch:normal;font-size:1.55565px;font-family:'Fira Code';-inkscape-font-specification:'Fira Code, Light';font-variant-ligatures:normal;font-variant-caps:normal;font-variant-numeric:normal;font-variant-east-asian:normal;fill:#ffffff;fill-opacity:1;stroke:#fffdff;stroke-width:0.0504256;stroke-opacity:1">Fr 25 Dez, 16:04</tspan></text>
    <path
       style="fill:currentColor;stroke-width:0.116674"
       class="ColorScheme-Text"
       d="m 65.516459,0.91455068 c 0,0 -0.116673,0 -0.116673,0.11667372 v 1.0500651 c 0,0.1166738 0.116673,0.1166738 0.116673,0.1166738 h 0.233349 l 0.116672,0.1166742 h 0.700044 l 0.116672,-0.1166742 h 0.23335 c 0,0 0.116672,0.015169 0.116672,-0.1166738 V 1.0312244 c 0,-0.11667372 -0.116672,-0.11667372 -0.116672,-0.11667372 z m 0.116672,0.23334752 h 1.166742 V 1.9646158 H 66.566524 L 66.449852,2.0812895 H 65.983153 L 65.86648,1.9646158 h -0.233349 z"
       id="path864" />
    <path
       style="fill:currentColor;stroke-width:0.116674"
       class="ColorScheme-Text"
       d="M 63.652619,0.77169878 63.18592,1.2383942 h -0.350022 v 0.7000434 h 0.350022 l 0.466699,0.4666959 z m 0.233345,0 v 0.17501076 c 0.270686,0.086339 0.466698,0.34185446 0.466698,0.64170636 0,0.2998518 -0.196012,0.5553679 -0.466698,0.6417067 v 0.1750109 c 0.367524,-0.091006 0.641707,-0.4200261 0.641707,-0.8167176 0,-0.3966911 -0.274183,-0.72571152 -0.641707,-0.81671712 z m 0,0.46669542 v 0.7000434 c 0.123675,-0.067671 0.208729,-0.1983454 0.208729,-0.3500217 0,-0.1516759 -0.08389,-0.2823506 -0.208729,-0.3500217 z"
       id="path877" />
    <g
       id="g916"
       transform="matrix(0.11667392,0,0,0.1166739,60.138515,0.68198222)">
      <path
         style="fill:currentColor"
         class="ColorScheme-Text"
         d="M 8,0 C 6.3379,0 5,1.3381 5,3 V 8.002 C 5,9.664 6.3379,11 8,11 9.662,11 11,9.664 11,8.002 V 3 C 11,1.3381 9.662,0 8,0 Z"
         id="path903" />
      <path
         style="fill:currentColor"
         class="ColorScheme-Text"
         d="M 2,7 V 7.999 C 2,10.965 4,14 7,14 v 2 h 2 v -2 c 3,0 5,-3.035 5,-6.001 V 7 H 12 V 7.999 C 12,10.233 10.233,12 8,12 5.7666,12 4,10.233 4,7.999 V 7 Z"
         id="path905" />
    </g>
    <text
       xml:space="preserve"
       style="font-style:normal;font-variant:normal;font-weight:normal;font-stretch:normal;font-size:1.55565px;line-height:1.25;font-family:'Fira Code';-inkscape-font-specification:'Fira Code, Normal';font-variant-ligatures:normal;font-variant-caps:normal;font-variant-numeric:normal;font-variant-east-asian:normal;letter-spacing:0px;fill:#ffffff;fill-opacity:1;stroke:#fffdff;stroke-width:0.0504256;stroke-opacity:1"
       x="7.6031723"
       y="2.1126115"
       id="text859-8"><tspan
         sodipodi:role="line"
         id="tspan954"
         x="7.6031723"
         y="2.1126115"
         style="font-style:normal;font-variant:normal;font-weight:300;font-stretch:normal;font-size:1.55565px;font-family:'Fira Code';-inkscape-font-specification:'Fira Code, Light';font-variant-ligatures:normal;font-variant-caps:normal;font-variant-numeric:normal;font-variant-east-asian:normal;stroke-width:0.0504256">Inkscape</tspan></text>
    <rect
       style="fill:#222222;fill-opacity:1;stroke-width:0.11783"
       id="rect32-6"
       width="47.625"
       height="6.4635506"
       x="-47.625"
       y="0"
       transform="rotate(-90)" />
    <rect
       style="opacity:1;fill:none;stroke:#3d3846;stroke-width:0.101382"
       id="rect1463"
       width="9.6236439"
       height="6.1737251"
       x="31.049526"
       y="-6.1834478"
       transform="rotate(90)" />
    <path
       style="fill:none;stroke:#3d3846;stroke-width:0.111852px;stroke-linecap:butt;stroke-linejoin:miter;stroke-opacity:1"
       d="M 6.1064533,34.193553 H 0.12776259"
       id="path1465" />
    <path
       style="fill:none;stroke:#3d3846;stroke-width:0.111852px;stroke-linecap:butt;stroke-linejoin:miter;stroke-opacity:1"
       d="M 6.0864048,37.570579 H 0.10771417"
       id="path1465-4" />
    <g
       id="g950"
       transform="matrix(0.17606301,0,0,0.18863894,1.0411574,20.306995)">
      <path
         style="opacity:0.2"
         d="m 3,2.5 h 18 c 0.554,0 1,0.446 1,1 v 13.450693 l -1.386749,3.817412 c -0.189157,0.520707 -0.808633,1.022121 -1.346687,1.154083 L 16.910632,22.5 H 3 c -0.554,0 -1,-0.446 -1,-1 v -18 c 0,-0.554 0.446,-1 1,-1 z"
         id="path912" />
      <path
         style="fill:#666666"
         d="m 18.303544,21.152542 c 0.267998,-0.484864 2.342224,-0.05909 2.540832,-0.576271 L 22,17.567026 V 12 H 11 v 10 h 6.835131 z"
         id="path914" />
      <path
         style="fill:#8c8c8c"
         d="M 3,22 C 2.446,22 2,21.554 2,21 V 11 h 10 v 11 z"
         id="path916" />
      <path
         style="fill:#a6a6a6"
         d="M 2,12 V 3 C 2,2.446 2.446,2 3,2 h 10 v 10 z"
         id="path918" />
      <path
         style="fill:#595959"
         d="M 12,2 V 12 H 22 V 3 C 22,2.446 21.554,2 21,2 Z"
         id="path920" />
      <path
         style="opacity:0.2;fill:#ffffff"
         d="M 2,3.5 V 3 C 2,2.446 2.446,2 3,2 h 18 c 0.554,0 1,0.446 1,1 v 0.5 c 0,-0.554 -0.446,-1 -1,-1 H 3 c -0.554,0 -1,0.446 -1,1 z"
         id="path922" />
      <circle
         style="fill:#07ce8e"
         cx="17"
         cy="17"
         r="6"
         id="circle924" />
      <path
         style="fill:#ffffff"
         d="m 15,15 v 1 h 4 v -1 z m 0,2 v 1 h 4 v -1 z"
         id="path926" />
      <path
         style="opacity:0.2"
         d="M 7,6 V 7.5 H 5.5 v 1 H 7 V 10 H 8 V 8.5 h 1.5 v -1 H 8 V 6 Z m 8,1.5 v 1 h 4 v -1 z M 5.7070312,15.085938 5,15.792969 5.3535156,16.146484 6.5,17.292969 5.3535156,18.439453 5,18.792969 5.7070312,19.5 6.0605469,19.146484 7.2070312,18 8.3535156,19.146484 8.7070312,19.5 9.4140625,18.792969 9.0605469,18.439453 7.9140625,17.292969 9.0605469,16.146484 9.4140625,15.792969 8.7070312,15.085938 8.3535156,15.439453 7.2070312,16.585938 6.0605469,15.439453 Z"
         id="path928" />
      <path
         style="fill:#ffffff"
         d="M 7,5.5 V 7 H 5.5 V 8 H 7 V 9.5 H 8 V 8 H 9.5 V 7 H 8 V 5.5 Z M 15,7 v 1 h 4 V 7 Z M 5.7070312,14.585938 5,15.292969 5.3535156,15.646484 6.5,16.792969 5.3535156,17.939453 5,18.292969 5.7070312,19 6.0605469,18.646484 7.2070312,17.5 8.3535156,18.646484 8.7070312,19 9.4140625,18.292969 9.0605469,17.939453 7.9140625,16.792969 9.0605469,15.646484 9.4140625,15.292969 8.7070312,14.585938 8.3535156,14.939453 7.2070312,16.085938 6.0605469,14.939453 Z"
         id="path930" />
    </g>
    <g
       id="g983"
       transform="matrix(0.19459596,0,0,0.18863894,0.61489936,15.037331)">
      <path
         style="fill:#e4e4e4"
         d="M 20,21 V 3 C 20,2.446 19.554,2 19,2 H 5 C 4.446,2 4,2.446 4,3 v 18 c 0,0.554 0.446,1 1,1 h 14 c 0.554,0 1,-0.446 1,-1 z"
         id="path960" />
      <path
         style="opacity:0.2"
         d="m 4,21 v 0.5 c 0,0.554 0.446,1 1,1 h 14 c 0.554,0 1,-0.446 1,-1 V 21 c 0,0.554 -0.446,1 -1,1 H 5 C 4.446,22 4,21.554 4,21 Z"
         id="path962" />
      <circle
         style="fill:#f34235"
         cx="17.5"
         cy="17.5"
         r="5.5"
         id="circle964" />
      <path
         style="fill:#ffffff"
         d="m 19.005859,15 c -0.07585,0 -0.152037,0.02899 -0.210937,0.08789 l -0.582031,0.585937 1.113281,1.113281 0.585937,-0.582031 c 0.117796,-0.117796 0.117796,-0.302123 0,-0.419922 L 19.214844,15.087891 C 19.155946,15.028993 19.081712,15 19.005859,15 Z m -1.5,1.380859 L 15,18.886719 V 20 h 1.113281 l 2.50586,-2.505859 z"
         id="path966" />
      <path
         style="opacity:0.2;fill:#ffffff"
         d="M 5,2 C 4.446,2 4,2.446 4,3 v 0.5 c 0,-0.554 0.446,-1 1,-1 h 14 c 0.554,0 1,0.446 1,1 V 3 C 20,2.446 19.554,2 19,2 Z"
         id="path968" />
    </g>
    <rect
       style="fill:#adcb90;fill-opacity:1;stroke:none;stroke-width:0.106242"
       id="rect1010"
       width="3.1360955"
       height="6.0477514"
       x="31.057457"
       y="-6.1755176"
       transform="rotate(90)" />
    <g
       id="g993"
       transform="matrix(0.36973232,0,0,0.39614177,0.28408633,2.6065146)">
      <rect
         style="fill:currentColor"
         class="ColorScheme-Text"
         width="2"
         height="2"
         x="3"
         y="3"
         rx="0.5"
         ry="0.5"
         id="rect959" />
      <rect
         style="fill:currentColor"
         class="ColorScheme-Text"
         width="2"
         height="2"
         x="7"
         y="3"
         rx="0.5"
         ry="0.5"
         id="rect961" />
      <rect
         style="fill:currentColor"
         class="ColorScheme-Text"
         width="2"
         height="2"
         x="11"
         y="3"
         rx="0.5"
         ry="0.5"
         id="rect963" />
      <rect
         style="fill:currentColor"
         class="ColorScheme-Text"
         width="2"
         height="2"
         x="3"
         y="7"
         rx="0.5"
         ry="0.5"
         id="rect965" />
      <rect
         style="fill:currentColor"
         class="ColorScheme-Text"
         width="2"
         height="2"
         x="7"
         y="7"
         rx="0.5"
         ry="0.5"
         id="rect967" />
      <rect
         style="fill:currentColor"
         class="ColorScheme-Text"
         width="2"
         height="2"
         x="11"
         y="7"
         rx="0.5"
         ry="0.5"
         id="rect969" />
      <rect
         style="fill:currentColor"
         class="ColorScheme-Text"
         width="2"
         height="2"
         x="3"
         y="11"
         rx="0.5"
         ry="0.5"
         id="rect971" />
      <rect
         style="fill:currentColor"
         class="ColorScheme-Text"
         width="2"
         height="2"
         x="7"
         y="11"
         rx="0.5"
         ry="0.5"
         id="rect973" />
      <rect
         style="fill:currentColor"
         class="ColorScheme-Text"
         width="2"
         height="2"
         x="11"
         y="11"
         rx="0.5"
         ry="0.5"
         id="rect975" />
    </g>
    <g
       id="g1030"
       transform="matrix(0.1369379,0,0,0.13204726,0.98246936,42.655953)">
      <rect
         style="opacity:0.2"
         width="23"
         height="26"
         x="5"
         y="5"
         rx="1.534"
         ry="1.529"
         id="rect995" />
      <rect
         style="fill:#8e8e8e"
         width="23"
         height="26"
         x="5"
         y="4"
         rx="1.534"
         ry="1.529"
         id="rect997" />
      <rect
         style="fill:#9f9f9f"
         width="9"
         height="3"
         x="12"
         y="1"
         id="rect999" />
      <path
         style="opacity:0.3;fill:none;stroke:#000000;stroke-width:3;stroke-linecap:round"
         d="m 10.50015,12.5 c 0,0 -1.5e-4,3.25 -1.5e-4,6.25 0,3 1.5e-4,5.75 1.5e-4,5.75"
         id="path1001" />
      <rect
         style="opacity:0.2"
         width="27"
         height="6"
         x="3"
         y="3"
         rx="1.5"
         ry="1.5"
         id="rect1003" />
      <rect
         style="fill:#9f9f9f"
         width="27"
         height="6"
         x="3"
         y="2"
         rx="1.5"
         ry="1.5"
         id="rect1005" />
      <path
         style="opacity:0.3;fill:none;stroke:#000000;stroke-width:3;stroke-linecap:round"
         d="m 16.5,12.5 v 12"
         id="path1007" />
      <path
         style="opacity:0.3;fill:none;stroke:#000000;stroke-width:3;stroke-linecap:round"
         d="m 22.50015,12.5 c 0,0 -1.5e-4,3.25 -1.5e-4,6.25 0,3 1.5e-4,5.75 1.5e-4,5.75"
         id="path1009" />
      <path
         style="opacity:0.2;fill:#ffffff"
         d="M 4.5,2 C 3.669,2 3,2.669 3,3.5 v 1 C 3,3.669 3.669,3 4.5,3 h 24 C 29.331,3 30,3.669 30,4.5 v -1 C 30,2.669 29.331,2 28.5,2 Z"
         id="path1011" />
    </g>
    <g
       id="g1139"
       transform="matrix(0.13204726,0,0,0.13204726,1.1291884,25.965184)">
      <path
         style="opacity:0.2"
         d="M 7.1685502,12.034826 C 3.8936196,14.56741 2,12.735223 2,17.163552 2,24.805211 8.2680136,31 16,31 c 7.731986,0 14,-6.194789 14,-13.836448 0,-3.557712 -1.358669,-6.801823 -3.591104,-9.2531763 0.04976,-0.00189 -0.208769,-0.2006295 -0.342053,-0.1510295 0.933267,1.546912 1.47043,3.3596838 1.47043,5.2980428 0,5.672532 -3.15483,11.292157 -8.827363,11.292157 -3.643432,0.17685 -8.496885,-2.152368 -9.2439042,-4.331961 -0.4819559,-1.406213 -0.3602998,-2.985566 0.9509522,-3.859822 0.712229,-0.452115 1.750599,-0.898515 3.393382,-0.950936 1.500678,-0.986933 0.770502,-0.874672 0.698316,-1.173477 C 14.04248,13.905876 13.214975,13.729712 12.072429,12.830484 11.060463,12.034026 10.590446,11.732022 7.641371,11.704475 7.0842357,10.631677 7.2231587,13.308634 7.1685502,12.034826 Z"
         id="path1099" />
      <path
         style="fill:#ffde3f"
         d="m 20.402474,1 c 0.59057,1.5721706 2.726226,3.5997298 5.543129,7.2075006 2.385645,3.0554354 2.659053,6.4644184 3.540982,9.5294844 l -6.628858,5.705436 -7.487756,-7.686744 C 15.336351,10.645545 14.109805,5.2768345 20.402474,1 Z"
         id="path1101" />
      <path
         style="opacity:0.2;fill:#ffffff"
         d="M 20.402344,1 C 15.53636,4.307183 15.169591,8.2673168 15.267578,12.255859 15.275423,8.6095832 15.943703,5.0303308 20.402344,2 c 0.59057,1.5721706 2.726066,3.5992605 5.542968,7.2070312 2.177053,2.7882788 2.607296,5.8599468 3.333985,8.7070308 l 0.207031,-0.177734 C 28.604399,14.671262 28.330958,11.262467 25.945312,8.2070312 23.12841,4.5992605 20.992914,2.5721706 20.402344,1 Z"
         id="path1103" />
      <path
         style="fill:#ff750e"
         d="m 6.769,10.199763 c 0.9725357,-0.9650152 2.5605798,-3.2120889 4.455366,-3.8349985 -0.509057,2.713323 0.150891,3.5757204 0.479375,4.9629395 L 8.6583009,10.538145 Z"
         id="path1105" />
      <circle
         style="fill:#8357cd"
         cx="16"
         cy="16"
         r="7"
         id="circle1107" />
      <path
         style="fill:#ffba36"
         d="m 18.217615,11.064705 c -0.09957,9.8e-4 -0.199095,0.0045 -0.298481,0.0106 2.027346,0.95169 3.323024,2.988288 3.325971,5.227895 -0.0015,3.077098 -2.412109,5.68455 -5.485105,5.843392 0.768412,0.363591 1.607527,0.483041 2.457615,0.485408 3.194219,2.9e-5 5.783672,-2.589367 5.783714,-5.783586 2.9e-5,-3.194269 -2.589445,-5.783743 -5.783714,-5.783714 z"
         id="path1109" />
      <path
         id="ellipse841"
         style="fill:#f74e66"
         d="M 7.1685502,11.034826 C 3.8936196,13.56741 2,11.735223 2,16.163552 2,23.805211 8.2680136,30 16,30 23.731986,30 30,23.805211 30,16.163552 30,12.60584 28.641331,9.3617287 26.408896,6.9103757 c 0.04976,-0.00189 -0.208769,-0.2006295 -0.342053,-0.1510295 0.933267,1.546912 1.47043,3.3596838 1.47043,5.2980428 0,5.672532 -3.15483,11.292157 -8.827363,11.292157 -3.643432,0.17685 -8.496885,-2.152368 -9.2439042,-4.331961 -0.4819559,-1.406213 -0.3602998,-2.985566 0.9509522,-3.859822 0.712229,-0.452115 1.750599,-0.898515 3.393382,-0.950936 1.500678,-0.986933 0.770502,-0.874672 0.698316,-1.173477 C 14.04248,12.905876 13.214975,12.729712 12.072429,11.830484 11.060463,11.034026 10.590446,10.732022 7.641371,10.704475 7.0842357,9.6316772 7.2231587,12.308634 7.1685502,11.034826 Z" />
      <path
         style="opacity:0.1"
         d="M 6.9797028,6.2606938 C 3.8449581,8.6848684 2.1872001,12.402051 2.0163507,16.599386 2.1956124,23.031886 8.0675269,28 15.29997,28 c 7.345402,0 13.300027,-5.127827 13.300027,-11.700029 0,-1.771243 -0.435662,-3.45099 -1.211331,-4.961533 0.0944,0.559484 0.149024,1.132208 0.149024,1.718558 C 27.53769,18.729528 22.938523,23 17.26599,23 13.622558,23.176851 10.881745,21.492852 10.134726,19.313259 9.6527703,17.907045 9.8105849,17.313681 11.121837,16.439425 11.834066,15.98731 12.836874,15.681102 14.479656,15.628681 15.980334,14.641748 16.0954,14.262248 16.023214,13.963443 15.557038,13.835969 14.271419,13.342356 13.128873,12.443127 12.116905,11.64667 10.437372,10.041506 7.4882972,10.013959 6.9311619,8.9411613 7.0343113,7.5345016 6.9797028,6.2606938 Z"
         id="path1112" />
      <path
         style="fill:#ff7f1f"
         d="M 6.9797028,5.2606938 C 3.8449581,7.6848684 2.1872001,11.402051 2.0163507,15.599386 2.1956124,22.031886 8.0675269,27 15.29997,27 c 7.345402,0 13.300027,-5.127827 13.300027,-11.700029 0,-1.771243 -0.435662,-3.45099 -1.211331,-4.961533 0.0944,0.559484 0.149024,1.132208 0.149024,1.718558 C 27.53769,17.729528 22.938523,22 17.26599,22 13.622558,22.176851 10.881745,20.492852 10.134726,18.313259 9.6527703,16.907045 9.8105849,16.313681 11.121837,15.439425 11.834066,14.98731 12.836874,14.681102 14.479656,14.628681 15.980334,13.641748 16.0954,13.262248 16.023214,12.963443 15.557038,12.835969 14.271419,12.342356 13.128873,11.443127 12.116905,10.64667 10.437372,9.0415061 7.4882972,9.0139589 6.9311619,7.9411613 7.0343113,6.5345016 6.9797028,5.2606938 Z"
         id="path1114" />
      <path
         style="fill:#ffba36"
         d="m 8.2558594,12.003906 c -0.9527271,-0.02067 -1.755464,0.307406 -2.3925782,0.742188 -0.1141183,0.114119 0.9078193,2.17878 3.0371094,2.201172 C 8.7032464,18.382039 11.273779,20.893617 13,21.390625 l 0.757812,0.138672 C 11.923025,20.899858 10.614417,19.71199 10.134766,18.3125 9.6528099,16.906286 9.8098417,16.313709 11.121094,15.439453 c 0.712229,-0.452115 1.714639,-0.758126 3.357422,-0.810547 0.750339,-0.493466 1.155995,-0.835905 1.363281,-1.091797 0.103664,-0.127796 0.157556,-0.233153 0.181641,-0.326171 0.02407,-0.09313 0.01805,-0.173346 0,-0.248047 -2.022805,2.037106 -4.895042,-0.204433 -7.1210942,-0.886719 -0.2094769,-0.04472 -0.4266245,-0.06751 -0.6464844,-0.07227 z"
         id="path1116" />
      <path
         style="opacity:0.2;fill:#ffffff"
         d="M 6.9804688,5.2597656 C 3.845724,7.6839402 2.1864744,11.402274 2.015625,15.599609 c 0.00481,0.172589 0.030047,0.339354 0.042969,0.509766 0.2769572,-3.993798 1.911008,-7.5212325 4.921875,-9.8496094 0.054609,1.2738078 -0.049323,2.6811086 0.5078124,3.7539064 2.9490746,0.02755 4.6286566,1.63323 5.6406246,2.429687 0.870609,0.685204 1.818784,1.131637 2.429688,1.363282 0.435992,-0.404378 0.511599,-0.650212 0.464844,-0.84375 C 15.557262,12.835417 14.271452,12.342588 13.128906,11.443359 12.116938,10.646902 10.437356,9.0412191 7.4882812,9.0136719 6.931146,7.9408743 7.0350773,6.5335734 6.9804688,5.2597656 Z M 27.388672,10.337891 c 0.07117,0.421808 0.109316,0.85399 0.128906,1.291015 0.619832,1.295321 0.985865,2.707945 1.052734,4.191406 0.0084,-0.173805 0.0293,-0.343584 0.0293,-0.519531 0,-1.771243 -0.435268,-3.452347 -1.210937,-4.96289 z m 0.125,2.189453 C 27.26516,17.961687 22.778755,22 17.265625,22 c -3.643432,0.176851 -6.38384,-1.507907 -7.130859,-3.6875 -0.08063,-0.235243 -0.1372755,-0.439898 -0.1796879,-0.634766 -0.1431157,0.4334 -0.06129,0.931659 0.1796879,1.634766 0.747019,2.179593 3.487427,3.864351 7.130859,3.6875 5.672533,0 10.271484,-4.270827 10.271484,-9.943359 0,-0.178535 -0.01373,-0.353278 -0.02344,-0.529297 z"
         id="path1118" />
    </g>
    <rect
       style="fill:url(#linearGradient1188);fill-opacity:1;stroke-width:0.512532"
       id="rect1180"
       width="6.4801154"
       height="5.7136087"
       x="0"
       y="9.0384827" />
    <g
       id="g1055"
       transform="matrix(0.12324199,0,0,0.12778766,1.2700514,9.6092796)">
      <path
         style="opacity:0.2;fill-rule:evenodd"
         d="M 15.998047,2.000028 C 15.143135,2.0003767 14.311444,2.3203134 13.65625,2.9980749 L 1.9960938,15.041044 C 1.3536141,15.705715 1.0127854,16.581807 1,17.449247 c -1.9218e-4,0.01319 0,0.04613 0,0.06055 -1.2097e-4,2.580774 6.4213452,0.07316 7.0429688,3.228515 C 8.3793295,22.446011 5,21.664652 5,23.38284 c 0,2.015489 6.434997,0.372166 7.785156,2.291016 1.033512,1.46883 -2.476242,1.531315 -1.65625,2.9375 0.7034,1.206247 3.018014,0.433495 3.4375,2.054688 0.479149,1.851859 3.362638,1.646053 5.105469,0.177734 1.068368,-0.900089 -1.211054,-1.4645 -0.240234,-2.46875 0.970756,-1.00432 4.826744,-0.814347 4.568359,-2.994141 -0.171003,-1.442614 -1.843453,-1.602896 -1.871094,-3.232421 -0.09653,-1.380014 1.848681,-0.97623 6.820313,-2.34961 1.987938,-0.93399 2.058352,-1.430851 2.050781,-2.291016 -1.57e-4,-0.01705 0,-0.0404 0,-0.05859 -0.01132,-0.867369 -0.412272,-1.743553 -1.054688,-2.408203 L 18.341797,2.9980749 C 17.68646,2.3202423 16.854483,2.0003768 16,2.000028 Z m 12.833984,21.001953 c -0.212024,-0.0077 -0.42531,0.012 -0.576172,0.06055 -0.284365,0.09439 -1.632506,0.148666 -1.521484,1.328125 1.220485,0.589455 3.080943,1.058226 3.302734,-0.121094 0.166515,-0.884372 -0.568911,-1.240509 -1.205078,-1.267578 z M 6.4140625,26.03909 C 6.2951927,26.05537 6.2138311,26.112931 6.0976562,26.166044 5.1686561,26.590534 4.546136,27.484863 5.4140625,27.875028 6.2821171,28.2651 6.8640809,27.85094 7.625,27.367216 8.3860479,26.883254 8.3636375,26.796093 8.3085938,26.609403 8.2031003,26.634743 7.5117892,26.11604 6.7832031,26.03909 c -0.1214103,-0.01221 -0.2503032,-0.01628 -0.3691406,0 z"
         id="path1032" />
      <path
         style="fill:#4f4f4f;fill-rule:evenodd"
         d="M 15.998047,1 C 15.143135,1.0003487 14.311444,1.3202854 13.65625,1.9980469 L 1.9960938,14.041016 C 1.3536141,14.705687 1.0127854,15.581779 1,16.449219 c -1.9218e-4,0.01319 0,0.04613 0,0.06055 -1.2097e-4,2.580774 6.4213452,0.07316 7.0429688,3.228515 C 8.3793295,21.445983 5,20.664624 5,22.382812 c 0,2.015489 6.434997,0.372166 7.785156,2.291016 1.033512,1.46883 -2.476242,1.531315 -1.65625,2.9375 0.7034,1.206247 3.018014,0.433495 3.4375,2.054688 0.479149,1.851859 3.362638,1.646053 5.105469,0.177734 1.068368,-0.900089 -1.211054,-1.4645 -0.240234,-2.46875 0.970756,-1.00432 4.826744,-0.814347 4.568359,-2.994141 -0.171003,-1.442614 -1.843453,-1.602896 -1.871094,-3.232421 -0.09653,-1.380014 1.848681,-0.97623 6.820313,-2.34961 1.987938,-0.93399 2.058352,-1.430851 2.050781,-2.291016 -1.57e-4,-0.01705 0,-0.0404 0,-0.05859 -0.01132,-0.867369 -0.412272,-1.743553 -1.054688,-2.408203 L 18.341797,1.9980469 C 17.68646,1.3202143 16.854483,1.0003488 16,1 Z m 12.833984,21.001953 c -0.212024,-0.0077 -0.42531,0.012 -0.576172,0.06055 -0.284365,0.09439 -1.632506,0.148666 -1.521484,1.328125 1.220485,0.589455 3.080943,1.058226 3.302734,-0.121094 0.166515,-0.884372 -0.568911,-1.240509 -1.205078,-1.267578 z M 6.4140625,25.039062 C 6.2951927,25.055342 6.2138311,25.112903 6.0976562,25.166016 5.1686561,25.590506 4.546136,26.484835 5.4140625,26.875 6.2821171,27.265072 6.8640809,26.850912 7.625,26.367188 8.3860479,25.883226 8.3636375,25.796065 8.3085938,25.609375 8.2031003,25.634715 7.5117892,25.116012 6.7832031,25.039062 c -0.1214103,-0.01221 -0.2503032,-0.01628 -0.3691406,0 z"
         id="path1034" />
      <path
         style="opacity:0.2;fill-rule:evenodd"
         d="m 16.053655,5.0713855 c 0.879785,0.00748 3.2905,2.9907858 5.441357,5.2250005 0.605,0.811785 -0.234015,1.643785 -0.234015,1.643785 l -4.505,-2.465714 -1.989285,2.700714 -1.755,-2.6414282 L 11.95814,13.643028 8.8574261,11.764457 9.6767118,10.707314 14.532426,5.7175283 C 14.90489,5.3378426 15.190112,5.0650212 16.05364,5.0717426 Z"
         id="path1036" />
      <path
         style="fill:#ffffff;fill-rule:evenodd"
         d="m 16.053655,4.0713575 c 0.879785,0.00748 3.2905,2.9907858 5.441357,5.2250001 0.605,0.8117854 -0.234015,1.6437854 -0.234015,1.6437854 l -4.505,-2.465714 -1.989285,2.700714 -1.755,-2.6414282 L 11.95814,12.643 8.8574261,10.764429 9.6767118,9.707286 14.532426,4.7175003 C 14.90489,4.3378146 15.190112,4.0649932 16.05364,4.0717146 Z"
         id="path1038" />
      <path
         style="opacity:0.1;fill:#ffffff;fill-rule:evenodd"
         d="M 15.998047,1 C 15.143135,1.0003487 14.311444,1.3202854 13.65625,1.9980469 L 1.9960938,14.041016 C 1.3536141,14.705687 1.0127854,15.581779 1,16.449219 c -1.9218e-4,0.01319 0,0.04613 0,0.06055 -6.49e-6,0.138495 0.027409,0.256338 0.0625,0.367187 0.1217862,-0.670664 0.4328778,-1.317927 0.9335938,-1.835937 L 13.65625,2.9980469 C 14.311444,2.3202854 15.143135,2.0003487 15.998047,2 H 16 c 0.854483,3.488e-4 1.68646,0.3202143 2.341797,0.9980469 L 29.945312,15.041016 c 0.55875,0.578087 0.917741,1.317161 1.013672,2.070312 0.03929,-0.186229 0.04296,-0.383025 0.04102,-0.603516 -1.57e-4,-0.01705 0,-0.0404 0,-0.05859 -0.01132,-0.867369 -0.412272,-1.743553 -1.054688,-2.408203 L 18.341797,1.9980469 C 17.68646,1.3202143 16.854483,1.0003488 16,1 Z M 7.9277344,20.402344 C 7.3409863,21.250414 5,20.950574 5,22.382812 c 0,0.178475 0.065283,0.319204 0.1582031,0.445313 0.6613649,-1.001182 3.177277,-0.604767 2.8847657,-2.089844 -0.024739,-0.125575 -0.072894,-0.227623 -0.1152344,-0.335937 z m 14.2812496,1.27539 c -0.06482,0.130619 -0.0932,0.283099 -0.08008,0.470704 0.02552,1.504275 1.437246,1.768831 1.791016,2.933593 0.07945,-0.202853 0.111818,-0.433407 0.08008,-0.701172 -0.150311,-1.26805 -1.45732,-1.547912 -1.791016,-2.703125 z m 6.623047,0.324219 c -0.212024,-0.0077 -0.42531,0.012 -0.576172,0.06055 -0.284365,0.09439 -1.632506,0.148666 -1.521484,1.328125 0.09773,0.0472 0.215546,0.08208 0.320313,0.126953 0.391185,-0.34417 1.016977,-0.393938 1.201171,-0.455078 0.150862,-0.04855 0.364148,-0.06825 0.576172,-0.06055 0.41642,0.01772 0.871121,0.179587 1.091797,0.535156 0.04562,-0.08119 0.09309,-0.160237 0.113281,-0.267578 0.166515,-0.884372 -0.568911,-1.240509 -1.205078,-1.267578 z M 6.4140625,25.039062 c -0.1188698,0.01628 -0.2002314,0.07384 -0.3164063,0.126954 -0.85969,0.39282 -1.4413584,1.18372 -0.8378906,1.609375 0.1998591,-0.233941 0.4972895,-0.453744 0.8378906,-0.609375 0.1161749,-0.05311 0.1975365,-0.110674 0.3164063,-0.126954 0.1188374,-0.01628 0.2477303,-0.01221 0.3691406,0 0.3283625,0.03468 0.6412911,0.161263 0.9042969,0.285157 0.680269,-0.439651 0.6741574,-0.53487 0.6210938,-0.714844 -0.1054936,0.02534 -0.7968046,-0.493362 -1.5253907,-0.570313 -0.1214103,-0.01221 -0.2503032,-0.01628 -0.3691406,0 z m 6.3398435,0.603516 c -0.59485,0.638928 -2.212286,0.961627 -1.625,1.96875 0.02718,0.04661 0.06196,0.08405 0.09375,0.125 0.618974,-0.658083 2.325591,-0.977994 1.5625,-2.0625 -0.0084,-0.01188 -0.02251,-0.01964 -0.03125,-0.03125 z m 6.648438,2.767578 c -0.497266,0.55353 -0.02093,0.974061 0.308594,1.394532 0.570284,-0.523583 0.02654,-0.937372 -0.308594,-1.394532 z"
         id="path1040" />
    </g>
    <circle
       style="fill:#f8f9fa;stroke-width:0.227948"
       id="path1190"
       cx="0.33542997"
       cy="11.845507"
       r="0.22589834" />
    <circle
       style="fill:#f8f9fa;stroke-width:0.227948"
       id="path1190-3"
       cx="0.33542997"
       cy="17.519842"
       r="0.22589834" />
    <circle
       style="fill:#f8f9fa;stroke-width:0.227948"
       id="path1190-7"
       cx="0.33542997"
       cy="22.783096"
       r="0.22589834" />
    <circle
       style="fill:#f8f9fa;stroke-width:0.227948"
       id="path1190-5"
       cx="0.33542997"
       cy="28.192852"
       r="0.22589834" />
    <path
       style="fill:none;stroke:#e5e5e5;stroke-width:0.0264583;stroke-linecap:butt;stroke-linejoin:miter;stroke-miterlimit:4;stroke-dasharray:none;stroke-opacity:1"
       d="M 6.821967,2.4656499 V 0.80849304"
       id="path1257" />
    <path
       style="fill:none;stroke:#e5e5e5;stroke-width:0.0264583;stroke-linecap:butt;stroke-linejoin:miter;stroke-miterlimit:4;stroke-dasharray:none;stroke-opacity:1"
       d="M 6.9652647,2.4656499 V 0.80849304"
       id="path1270" />
    <g
       id="g1298"
       transform="matrix(0.08192038,0,0,0.08494193,1.9312043,31.251402)">
      <path
         style="opacity:0.2;fill-rule:evenodd"
         d="M 15.998047,2.000028 C 15.143135,2.0003767 14.311444,2.3203134 13.65625,2.9980749 L 1.9960938,15.041044 C 1.3536141,15.705715 1.0127854,16.581807 1,17.449247 c -1.9218e-4,0.01319 0,0.04613 0,0.06055 -1.2097e-4,2.580774 6.4213452,0.07316 7.0429688,3.228515 C 8.3793295,22.446011 5,21.664652 5,23.38284 c 0,2.015489 6.434997,0.372166 7.785156,2.291016 1.033512,1.46883 -2.476242,1.531315 -1.65625,2.9375 0.7034,1.206247 3.018014,0.433495 3.4375,2.054688 0.479149,1.851859 3.362638,1.646053 5.105469,0.177734 1.068368,-0.900089 -1.211054,-1.4645 -0.240234,-2.46875 0.970756,-1.00432 4.826744,-0.814347 4.568359,-2.994141 -0.171003,-1.442614 -1.843453,-1.602896 -1.871094,-3.232421 -0.09653,-1.380014 1.848681,-0.97623 6.820313,-2.34961 1.987938,-0.93399 2.058352,-1.430851 2.050781,-2.291016 -1.57e-4,-0.01705 0,-0.0404 0,-0.05859 -0.01132,-0.867369 -0.412272,-1.743553 -1.054688,-2.408203 L 18.341797,2.9980749 C 17.68646,2.3202423 16.854483,2.0003768 16,2.000028 Z m 12.833984,21.001953 c -0.212024,-0.0077 -0.42531,0.012 -0.576172,0.06055 -0.284365,0.09439 -1.632506,0.148666 -1.521484,1.328125 1.220485,0.589455 3.080943,1.058226 3.302734,-0.121094 0.166515,-0.884372 -0.568911,-1.240509 -1.205078,-1.267578 z M 6.4140625,26.03909 C 6.2951927,26.05537 6.2138311,26.112931 6.0976562,26.166044 5.1686561,26.590534 4.546136,27.484863 5.4140625,27.875028 6.2821171,28.2651 6.8640809,27.85094 7.625,27.367216 8.3860479,26.883254 8.3636375,26.796093 8.3085938,26.609403 8.2031003,26.634743 7.5117892,26.11604 6.7832031,26.03909 c -0.1214103,-0.01221 -0.2503032,-0.01628 -0.3691406,0 z"
         id="path1288" />
      <path
         style="fill:#4f4f4f;fill-rule:evenodd"
         d="M 15.998047,1 C 15.143135,1.0003487 14.311444,1.3202854 13.65625,1.9980469 L 1.9960938,14.041016 C 1.3536141,14.705687 1.0127854,15.581779 1,16.449219 c -1.9218e-4,0.01319 0,0.04613 0,0.06055 -1.2097e-4,2.580774 6.4213452,0.07316 7.0429688,3.228515 C 8.3793295,21.445983 5,20.664624 5,22.382812 c 0,2.015489 6.434997,0.372166 7.785156,2.291016 1.033512,1.46883 -2.476242,1.531315 -1.65625,2.9375 0.7034,1.206247 3.018014,0.433495 3.4375,2.054688 0.479149,1.851859 3.362638,1.646053 5.105469,0.177734 1.068368,-0.900089 -1.211054,-1.4645 -0.240234,-2.46875 0.970756,-1.00432 4.826744,-0.814347 4.568359,-2.994141 -0.171003,-1.442614 -1.843453,-1.602896 -1.871094,-3.232421 -0.09653,-1.380014 1.848681,-0.97623 6.820313,-2.34961 1.987938,-0.93399 2.058352,-1.430851 2.050781,-2.291016 -1.57e-4,-0.01705 0,-0.0404 0,-0.05859 -0.01132,-0.867369 -0.412272,-1.743553 -1.054688,-2.408203 L 18.341797,1.9980469 C 17.68646,1.3202143 16.854483,1.0003488 16,1 Z m 12.833984,21.001953 c -0.212024,-0.0077 -0.42531,0.012 -0.576172,0.06055 -0.284365,0.09439 -1.632506,0.148666 -1.521484,1.328125 1.220485,0.589455 3.080943,1.058226 3.302734,-0.121094 0.166515,-0.884372 -0.568911,-1.240509 -1.205078,-1.267578 z M 6.4140625,25.039062 C 6.2951927,25.055342 6.2138311,25.112903 6.0976562,25.166016 5.1686561,25.590506 4.546136,26.484835 5.4140625,26.875 6.2821171,27.265072 6.8640809,26.850912 7.625,26.367188 8.3860479,25.883226 8.3636375,25.796065 8.3085938,25.609375 8.2031003,25.634715 7.5117892,25.116012 6.7832031,25.039062 c -0.1214103,-0.01221 -0.2503032,-0.01628 -0.3691406,0 z"
         id="path1290" />
      <path
         style="opacity:0.2;fill-rule:evenodd"
         d="m 16.053655,5.0713855 c 0.879785,0.00748 3.2905,2.9907858 5.441357,5.2250005 0.605,0.811785 -0.234015,1.643785 -0.234015,1.643785 l -4.505,-2.465714 -1.989285,2.700714 -1.755,-2.6414282 L 11.95814,13.643028 8.8574261,11.764457 9.6767118,10.707314 14.532426,5.7175283 C 14.90489,5.3378426 15.190112,5.0650212 16.05364,5.0717426 Z"
         id="path1292" />
      <path
         style="fill:#ffffff;fill-rule:evenodd"
         d="m 16.053655,4.0713575 c 0.879785,0.00748 3.2905,2.9907858 5.441357,5.2250001 0.605,0.8117854 -0.234015,1.6437854 -0.234015,1.6437854 l -4.505,-2.465714 -1.989285,2.700714 -1.755,-2.6414282 L 11.95814,12.643 8.8574261,10.764429 9.6767118,9.707286 14.532426,4.7175003 C 14.90489,4.3378146 15.190112,4.0649932 16.05364,4.0717146 Z"
         id="path1294" />
      <path
         style="opacity:0.1;fill:#ffffff;fill-rule:evenodd"
         d="M 15.998047,1 C 15.143135,1.0003487 14.311444,1.3202854 13.65625,1.9980469 L 1.9960938,14.041016 C 1.3536141,14.705687 1.0127854,15.581779 1,16.449219 c -1.9218e-4,0.01319 0,0.04613 0,0.06055 -6.49e-6,0.138495 0.027409,0.256338 0.0625,0.367187 0.1217862,-0.670664 0.4328778,-1.317927 0.9335938,-1.835937 L 13.65625,2.9980469 C 14.311444,2.3202854 15.143135,2.0003487 15.998047,2 H 16 c 0.854483,3.488e-4 1.68646,0.3202143 2.341797,0.9980469 L 29.945312,15.041016 c 0.55875,0.578087 0.917741,1.317161 1.013672,2.070312 0.03929,-0.186229 0.04296,-0.383025 0.04102,-0.603516 -1.57e-4,-0.01705 0,-0.0404 0,-0.05859 -0.01132,-0.867369 -0.412272,-1.743553 -1.054688,-2.408203 L 18.341797,1.9980469 C 17.68646,1.3202143 16.854483,1.0003488 16,1 Z M 7.9277344,20.402344 C 7.3409863,21.250414 5,20.950574 5,22.382812 c 0,0.178475 0.065283,0.319204 0.1582031,0.445313 0.6613649,-1.001182 3.177277,-0.604767 2.8847657,-2.089844 -0.024739,-0.125575 -0.072894,-0.227623 -0.1152344,-0.335937 z m 14.2812496,1.27539 c -0.06482,0.130619 -0.0932,0.283099 -0.08008,0.470704 0.02552,1.504275 1.437246,1.768831 1.791016,2.933593 0.07945,-0.202853 0.111818,-0.433407 0.08008,-0.701172 -0.150311,-1.26805 -1.45732,-1.547912 -1.791016,-2.703125 z m 6.623047,0.324219 c -0.212024,-0.0077 -0.42531,0.012 -0.576172,0.06055 -0.284365,0.09439 -1.632506,0.148666 -1.521484,1.328125 0.09773,0.0472 0.215546,0.08208 0.320313,0.126953 0.391185,-0.34417 1.016977,-0.393938 1.201171,-0.455078 0.150862,-0.04855 0.364148,-0.06825 0.576172,-0.06055 0.41642,0.01772 0.871121,0.179587 1.091797,0.535156 0.04562,-0.08119 0.09309,-0.160237 0.113281,-0.267578 0.166515,-0.884372 -0.568911,-1.240509 -1.205078,-1.267578 z M 6.4140625,25.039062 c -0.1188698,0.01628 -0.2002314,0.07384 -0.3164063,0.126954 -0.85969,0.39282 -1.4413584,1.18372 -0.8378906,1.609375 0.1998591,-0.233941 0.4972895,-0.453744 0.8378906,-0.609375 0.1161749,-0.05311 0.1975365,-0.110674 0.3164063,-0.126954 0.1188374,-0.01628 0.2477303,-0.01221 0.3691406,0 0.3283625,0.03468 0.6412911,0.161263 0.9042969,0.285157 0.680269,-0.439651 0.6741574,-0.53487 0.6210938,-0.714844 -0.1054936,0.02534 -0.7968046,-0.493362 -1.5253907,-0.570313 -0.1214103,-0.01221 -0.2503032,-0.01628 -0.3691406,0 z m 6.3398435,0.603516 c -0.59485,0.638928 -2.212286,0.961627 -1.625,1.96875 0.02718,0.04661 0.06196,0.08405 0.09375,0.125 0.618974,-0.658083 2.325591,-0.977994 1.5625,-2.0625 -0.0084,-0.01188 -0.02251,-0.01964 -0.03125,-0.03125 z m 6.648438,2.767578 c -0.497266,0.55353 -0.02093,0.974061 0.308594,1.394532 0.570284,-0.523583 0.02654,-0.937372 -0.308594,-1.394532 z"
         id="path1296" />
    </g>
    <text
       xml:space="preserve"
       id="text1300"
       style="font-style:normal;font-weight:normal;font-size:10.5833px;line-height:1.25;font-family:sans-serif;white-space:pre;shape-inside:url(#rect1302);fill:#000000;fill-opacity:1;stroke:none;" />
    <g
       id="g964"
       transform="matrix(0.72502501,0,0,0.72502501,19.132533,1.3075201)"
       style="opacity:1">
      <circle
         style="opacity:0.2"
         cx="32"
         cy="33"
         r="28"
         id="circle941" />
      <circle
         style="fill:#a43b84"
         cx="32"
         cy="32"
         r="28"
         id="circle943" />
      <path
         style="opacity:0.2"
         d="m 20,35.8 c 0,0 0,11.2 9,11.2 H 44 V 19 H 38 V 40 H 30.5 C 26,40 26,34.4 26,34.4 V 19 h -6 z"
         id="path945" />
      <path
         style="fill:#ffffff"
         d="m 20,34.8 c 0,0 0,11.2 9,11.2 H 44 V 18 H 38 V 39 H 30.5 C 26,39 26,33.4 26,33.4 V 18 h -6 z"
         id="path947" />
      <path
         style="opacity:0.1;fill:#ffffff"
         d="M 32,4 A 28,28 0 0 0 4,32 28,28 0 0 0 4.0215,32.586 28,28 0 0 1 32,5 28,28 0 0 1 59.979,32.414 28,28 0 0 0 60,32 28,28 0 0 0 32,4 Z"
         id="path949" />
    </g>
  </g>
</svg>
