<?xml version="1.0" encoding="UTF-8" standalone="no"?>
<svg
   width="320"
   height="180"
   viewBox="0 0 84.666664 47.625001"
   version="1.1"
   id="svg8"
   sodipodi:docname="opensuse-symbolic.svg"
   inkscape:version="1.1 (c4e8f9ed74, 2021-05-24)"
   xmlns:inkscape="http://www.inkscape.org/namespaces/inkscape"
   xmlns:sodipodi="http://sodipodi.sourceforge.net/DTD/sodipodi-0.dtd"
   xmlns="http://www.w3.org/2000/svg"
   xmlns:svg="http://www.w3.org/2000/svg"
   xmlns:rdf="http://www.w3.org/1999/02/22-rdf-syntax-ns#"
   xmlns:cc="http://creativecommons.org/ns#"
   xmlns:dc="http://purl.org/dc/elements/1.1/">
  <sodipodi:namedview
     id="namedview42"
     pagecolor="#ffffff"
     bordercolor="#666666"
     borderopacity="1.0"
     inkscape:pageshadow="2"
     inkscape:pageopacity="0.0"
     inkscape:pagecheckerboard="0"
     showgrid="false"
     inkscape:zoom="5.6568542"
     inkscape:cx="131.9638"
     inkscape:cy="68.766135"
     inkscape:window-width="1920"
     inkscape:window-height="1032"
     inkscape:window-x="1366"
     inkscape:window-y="0"
     inkscape:window-maximized="1"
     inkscape:current-layer="svg8"
     width="320px" />
  <defs
     id="defs2" />
  <metadata
     id="metadata5">
    <rdf:RDF>
      <cc:Work
         rdf:about="">
        <dc:format>image/svg+xml</dc:format>
        <dc:type
           rdf:resource="http://purl.org/dc/dcmitype/StillImage" />
      </cc:Work>
    </rdf:RDF>
  </metadata>
  <rect
     style="fill:#ffffff;fill-opacity:1;stroke:none;stroke-width:2.75472;stroke-linejoin:miter;stroke-miterlimit:4;stroke-dasharray:none;stroke-opacity:1"
     id="rect1527"
     width="84.666008"
     height="47.624172"
     x="0.0011975408"
     y="0.00077672349" />
  <path
     id="path967"
     d="M 2.9866863,1.9948733 H 81.675795"
     style="fill:none;stroke:#97bb72;stroke-width:0.622109;stroke-linecap:butt;stroke-linejoin:miter;stroke-miterlimit:4;stroke-dasharray:none;stroke-opacity:1" />
  <path
     style="fill:none;stroke:#97bb72;stroke-width:0.622128;stroke-linecap:butt;stroke-linejoin:miter;stroke-miterlimit:4;stroke-dasharray:none;stroke-opacity:1"
     d="M 2.9866859,45.635772 H 81.680458"
     id="path969" />
  <path
     id="path971"
     d="M 3.2207896,1.6800533 V 45.937373"
     style="fill:none;stroke:#97bb72;stroke-width:0.466555;stroke-linecap:butt;stroke-linejoin:miter;stroke-miterlimit:4;stroke-dasharray:none;stroke-opacity:1" />
  <path
     style="fill:none;stroke:#97bb72;stroke-width:0.466201;stroke-linecap:butt;stroke-linejoin:miter;stroke-miterlimit:4;stroke-dasharray:none;stroke-opacity:1"
     d="M 81.448098,1.6800533 V 45.870399"
     id="path975" />
  <path
     id="path988"
     d="m 57.901197,43.967764 h 7.448504"
     style="opacity:1;fill:none;stroke:#97bb72;stroke-width:0.491834;stroke-linecap:butt;stroke-linejoin:miter;stroke-miterlimit:4;stroke-dasharray:none;stroke-opacity:1" />
  <rect
     y="43.295448"
     x="66.005913"
     height="1.4381572"
     width="1.4153292"
     id="rect1714"
     style="fill:#97bb72;fill-opacity:1;stroke:none;stroke-width:0.361575;stroke-linecap:round;stroke-linejoin:bevel;stroke-miterlimit:4;stroke-dasharray:none;stroke-dashoffset:10.63;stroke-opacity:1;paint-order:stroke fill markers" />
  <path
     id="path1726"
     d="M 2.9866859,42.256333 H 81.476406"
     style="fill:none;stroke:#97bb72;stroke-width:0.62132;stroke-linecap:butt;stroke-linejoin:miter;stroke-miterlimit:4;stroke-dasharray:none;stroke-opacity:1" />
  <rect
     y="23.453335"
     x="4.1140637"
     height="17.818661"
     width="22.569044"
     id="rect1728"
     style="opacity:1;fill:none;fill-opacity:1;stroke:#97bb72;stroke-width:0.616769;stroke-linecap:square;stroke-linejoin:miter;stroke-miterlimit:4;stroke-dasharray:none;stroke-dashoffset:10.63;stroke-opacity:1;paint-order:fill markers stroke" />
  <path
     id="path1730"
     d="M 7.3081971,27.307089 H 9.8522893"
     style="opacity:1;fill:none;stroke:#97bb72;stroke-width:0.491834;stroke-linecap:butt;stroke-linejoin:miter;stroke-miterlimit:4;stroke-dasharray:none;stroke-opacity:1" />
  <rect
     y="26.76573"
     x="5.7926221"
     height="1.0827239"
     width="1.0655378"
     id="rect1732"
     style="opacity:1;fill:#97bb72;fill-opacity:1;stroke:none;stroke-width:0.272213;stroke-linecap:round;stroke-linejoin:bevel;stroke-miterlimit:4;stroke-dasharray:none;stroke-dashoffset:10.63;stroke-opacity:1;paint-order:stroke fill markers" />
  <path
     style="opacity:1;fill:none;stroke:#97bb72;stroke-width:0.491834;stroke-linecap:butt;stroke-linejoin:miter;stroke-miterlimit:4;stroke-dasharray:none;stroke-opacity:1"
     d="M 7.3081971,29.274425 H 10.321199"
     id="path1736" />
  <rect
     style="opacity:1;fill:#97bb72;fill-opacity:1;stroke:none;stroke-width:0.272213;stroke-linecap:round;stroke-linejoin:bevel;stroke-miterlimit:4;stroke-dasharray:none;stroke-dashoffset:10.63;stroke-opacity:1;paint-order:stroke fill markers"
     id="rect1738"
     width="1.0655378"
     height="1.0827239"
     x="5.7926221"
     y="28.733067" />
  <path
     id="path1742"
     d="M 7.3081971,31.241761 H 10.067206"
     style="opacity:1;fill:none;stroke:#97bb72;stroke-width:0.491834;stroke-linecap:butt;stroke-linejoin:miter;stroke-miterlimit:4;stroke-dasharray:none;stroke-opacity:1" />
  <path
     id="path1742-3"
     d="m 11.195227,39.960616 h 2.346338"
     style="fill:none;stroke:#97bb72;stroke-width:0.453563;stroke-linecap:butt;stroke-linejoin:miter;stroke-miterlimit:4;stroke-dasharray:none;stroke-opacity:1" />
  <rect
     y="30.700403"
     x="5.7926221"
     height="1.0827239"
     width="1.0655378"
     id="rect1744"
     style="opacity:1;fill:#97bb72;fill-opacity:1;stroke:none;stroke-width:0.272213;stroke-linecap:round;stroke-linejoin:bevel;stroke-miterlimit:4;stroke-dasharray:none;stroke-dashoffset:10.63;stroke-opacity:1;paint-order:stroke fill markers" />
  <path
     id="path1754"
     d="M 6.2498637,35.176432 H 9.7122363"
     style="opacity:1;fill:none;stroke:#97bb72;stroke-width:0.491834;stroke-linecap:butt;stroke-linejoin:miter;stroke-miterlimit:4;stroke-dasharray:none;stroke-opacity:1" />
  <path
     style="opacity:1;fill:none;stroke:#97bb72;stroke-width:0.491834;stroke-linecap:butt;stroke-linejoin:miter;stroke-miterlimit:4;stroke-dasharray:none;stroke-opacity:1"
     d="M 6.2498637,36.614601 H 8.2468953"
     id="path1760" />
  <path
     id="path1766"
     d="M 6.2498637,38.05277 H 8.7353419"
     style="opacity:1;fill:none;stroke:#97bb72;stroke-width:0.491834;stroke-linecap:butt;stroke-linejoin:miter;stroke-miterlimit:4;stroke-dasharray:none;stroke-opacity:1" />
  <rect
     y="43.488792"
     x="6.3095937"
     height="1.0461693"
     width="4.4165044"
     id="rect1161"
     style="fill:#97bb72;fill-opacity:1;stroke:none;stroke-width:0.544762;stroke-linecap:round;stroke-linejoin:bevel;stroke-miterlimit:4;stroke-dasharray:none;stroke-dashoffset:10.63;stroke-opacity:1;paint-order:stroke fill markers" />
  <rect
     y="24.906239"
     x="4.9757857"
     height="1.0461693"
     width="4.4165044"
     id="rect1161-6"
     style="fill:#97bb72;fill-opacity:1;stroke:none;stroke-width:0.544762;stroke-linecap:round;stroke-linejoin:bevel;stroke-miterlimit:4;stroke-dasharray:none;stroke-dashoffset:10.63;stroke-opacity:1;paint-order:stroke fill markers" />
  <path
     id="path1172"
     d="m 15.567837,43.967764 h 7.448504"
     style="opacity:1;fill:none;stroke:#97bb72;stroke-width:0.491834;stroke-linecap:butt;stroke-linejoin:miter;stroke-miterlimit:4;stroke-dasharray:none;stroke-opacity:1" />
  <path
     id="path1183"
     d="m 24.034509,43.967764 h 7.448504"
     style="opacity:1;fill:none;stroke:#97bb72;stroke-width:0.491834;stroke-linecap:butt;stroke-linejoin:miter;stroke-miterlimit:4;stroke-dasharray:none;stroke-opacity:1" />
  <path
     id="path1194"
     d="m 32.501181,43.967764 h 7.448504"
     style="opacity:1;fill:none;stroke:#97bb72;stroke-width:0.491834;stroke-linecap:butt;stroke-linejoin:miter;stroke-miterlimit:4;stroke-dasharray:none;stroke-opacity:1" />
  <rect
     y="24.906239"
     x="11.854949"
     height="1.1606977"
     width="6.1814232"
     id="rect1493"
     style="fill:#97bb72;fill-opacity:1;stroke:none;stroke-width:0.678845;stroke-linecap:round;stroke-linejoin:bevel;stroke-miterlimit:4;stroke-dasharray:none;stroke-dashoffset:10.63;stroke-opacity:1;paint-order:stroke fill markers" />
  <rect
     y="32.843746"
     x="4.9757857"
     height="1.0461693"
     width="4.4165044"
     id="rect1745"
     style="fill:#97bb72;fill-opacity:1;stroke:none;stroke-width:0.544762;stroke-linecap:round;stroke-linejoin:bevel;stroke-miterlimit:4;stroke-dasharray:none;stroke-dashoffset:10.63;stroke-opacity:1;paint-order:stroke fill markers" />
  <path
     id="path2907"
     d="m 14.298881,27.797153 h 3.963261"
     style="opacity:1;fill:none;stroke:#97bb72;stroke-width:0.766193;stroke-linecap:butt;stroke-linejoin:miter;stroke-miterlimit:4;stroke-dasharray:none;stroke-opacity:1" />
  <rect
     y="26.95381"
     x="11.937864"
     height="1.6866976"
     width="1.6599247"
     id="rect2909"
     style="opacity:1;fill:#97bb72;fill-opacity:1;stroke:none;stroke-width:0.424061;stroke-linecap:round;stroke-linejoin:bevel;stroke-miterlimit:4;stroke-dasharray:none;stroke-dashoffset:10.63;stroke-opacity:1;paint-order:stroke fill markers" />
  <path
     style="opacity:1;fill:none;stroke:#97bb72;stroke-width:0.766193;stroke-linecap:butt;stroke-linejoin:miter;stroke-miterlimit:4;stroke-dasharray:none;stroke-opacity:1"
     d="m 14.298881,30.861924 h 4.693742"
     id="path2911" />
  <rect
     style="opacity:1;fill:#97bb72;fill-opacity:1;stroke:none;stroke-width:0.424061;stroke-linecap:round;stroke-linejoin:bevel;stroke-miterlimit:4;stroke-dasharray:none;stroke-dashoffset:10.63;stroke-opacity:1;paint-order:stroke fill markers"
     id="rect2913"
     width="1.6599247"
     height="1.6866976"
     x="11.937864"
     y="30.018581" />
  <path
     id="path2915"
     d="M 14.232735,34.985029 H 18.5308"
     style="opacity:1;fill:none;stroke:#97bb72;stroke-width:0.766193;stroke-linecap:butt;stroke-linejoin:miter;stroke-miterlimit:4;stroke-dasharray:none;stroke-opacity:1" />
  <rect
     y="34.141685"
     x="11.937864"
     height="1.6866976"
     width="1.6599247"
     id="rect2917"
     style="opacity:1;fill:#97bb72;fill-opacity:1;stroke:none;stroke-width:0.424061;stroke-linecap:round;stroke-linejoin:bevel;stroke-miterlimit:4;stroke-dasharray:none;stroke-dashoffset:10.63;stroke-opacity:1;paint-order:stroke fill markers" />
  <path
     id="path2929"
     d="m 21.541854,34.985029 h 4.298065"
     style="opacity:1;fill:none;stroke:#97bb72;stroke-width:0.766193;stroke-linecap:butt;stroke-linejoin:miter;stroke-miterlimit:4;stroke-dasharray:none;stroke-opacity:1" />
  <rect
     y="34.141685"
     x="19.28005"
     height="1.6866976"
     width="1.6599247"
     id="rect2931"
     style="opacity:1;fill:#97bb72;fill-opacity:1;stroke:none;stroke-width:0.424061;stroke-linecap:round;stroke-linejoin:bevel;stroke-miterlimit:4;stroke-dasharray:none;stroke-dashoffset:10.63;stroke-opacity:1;paint-order:stroke fill markers" />
  <path
     id="path2943"
     d="M 14.232735,37.630864 H 18.5308"
     style="opacity:1;fill:none;stroke:#97bb72;stroke-width:0.766193;stroke-linecap:butt;stroke-linejoin:miter;stroke-miterlimit:4;stroke-dasharray:none;stroke-opacity:1" />
  <rect
     y="36.787521"
     x="11.937864"
     height="1.6866976"
     width="1.6599247"
     id="rect2945"
     style="opacity:1;fill:#97bb72;fill-opacity:1;stroke:none;stroke-width:0.424061;stroke-linecap:round;stroke-linejoin:bevel;stroke-miterlimit:4;stroke-dasharray:none;stroke-dashoffset:10.63;stroke-opacity:1;paint-order:stroke fill markers" />
  <rect
     y="43.146797"
     x="3.9632125"
     height="1.6866976"
     width="1.6599247"
     id="rect2945-5"
     style="fill:#97bb72;fill-opacity:1;stroke:none;stroke-width:0.424061;stroke-linecap:round;stroke-linejoin:bevel;stroke-miterlimit:4;stroke-dasharray:none;stroke-dashoffset:10.63;stroke-opacity:1;paint-order:stroke fill markers" />
  <rect
     y="39.356865"
     x="14.0612"
     height="1.2140727"
     width="11.30871"
     id="rect2956"
     style="opacity:1;fill:none;fill-opacity:1;stroke:#97bb72;stroke-width:0.289841;stroke-linecap:square;stroke-linejoin:miter;stroke-miterlimit:4;stroke-dasharray:none;stroke-dashoffset:10.63;stroke-opacity:1;paint-order:fill markers stroke" />
  <path
     id="path3120"
     d="M 6.2498637,39.409768 H 9.7122363"
     style="opacity:1;fill:none;stroke:#97bb72;stroke-width:0.491834;stroke-linecap:butt;stroke-linejoin:miter;stroke-miterlimit:4;stroke-dasharray:none;stroke-opacity:1" />
  <path
     id="path968"
     d="m 40.967853,43.967764 h 7.448504"
     style="opacity:1;fill:none;stroke:#97bb72;stroke-width:0.491834;stroke-linecap:butt;stroke-linejoin:miter;stroke-miterlimit:4;stroke-dasharray:none;stroke-opacity:1" />
  <path
     id="path979"
     d="m 74.80636,43.967764 h 5.889184"
     style="opacity:1;fill:none;stroke:#97bb72;stroke-width:0.437332;stroke-linecap:butt;stroke-linejoin:miter;stroke-miterlimit:4;stroke-dasharray:none;stroke-opacity:1" />
  <rect
     y="43.295448"
     x="12.030869"
     height="1.4381572"
     width="1.4153292"
     id="rect1081"
     style="fill:#97bb72;fill-opacity:1;stroke:none;stroke-width:0.361575;stroke-linecap:round;stroke-linejoin:bevel;stroke-miterlimit:4;stroke-dasharray:none;stroke-dashoffset:10.63;stroke-opacity:1;paint-order:stroke fill markers" />
  <rect
     y="43.295448"
     x="68.122581"
     height="1.4381572"
     width="1.4153292"
     id="rect1092"
     style="fill:#97bb72;fill-opacity:1;stroke:none;stroke-width:0.361575;stroke-linecap:round;stroke-linejoin:bevel;stroke-miterlimit:4;stroke-dasharray:none;stroke-dashoffset:10.63;stroke-opacity:1;paint-order:stroke fill markers" />
  <rect
     y="43.295448"
     x="70.23925"
     height="1.4381572"
     width="1.4153292"
     id="rect1103"
     style="fill:#97bb72;fill-opacity:1;stroke:none;stroke-width:0.361575;stroke-linecap:round;stroke-linejoin:bevel;stroke-miterlimit:4;stroke-dasharray:none;stroke-dashoffset:10.63;stroke-opacity:1;paint-order:stroke fill markers" />
  <rect
     y="43.295448"
     x="72.355919"
     height="1.4381572"
     width="1.4153292"
     id="rect1114"
     style="fill:#97bb72;fill-opacity:1;stroke:none;stroke-width:0.361575;stroke-linecap:round;stroke-linejoin:bevel;stroke-miterlimit:4;stroke-dasharray:none;stroke-dashoffset:10.63;stroke-opacity:1;paint-order:stroke fill markers" />
  <g
     id="g1108"
     transform="matrix(0.50684526,0,0,0.50684526,26.114285,7.3400291)">
    <path
       style="fill:#97bb72;fill-opacity:1"
       d="M 31.99986,4.00028 C 16.536937,4.00028 4,16.535818 4,32.000142 4,47.464464 16.536937,60 31.99986,60 47.461382,60 59.99972,47.464464 59.99972,32.000142 59.99972,16.535818 47.461382,4.00028 31.99986,4.00028 Z"
       id="path1085" />
    <path
       style="opacity:0.2"
       d="m 32.174558,11.403102 c -8.590076,0 -13.499292,3.517064 -16.702196,7.480164 2.454691,0.673284 4.170019,1.233898 4.722736,1.41682 0.0066,-0.371166 0.06602,-3.714742 0.06602,-3.714742 l 0.04824,-0.10664 0.12442,-0.03808 c 0.755298,0.1092 16.860676,2.490868 23.643922,6.444168 0.8398,0.494002 1.252266,1.009536 1.77228,1.541224 1.874618,1.93832 4.364898,10.00687 4.628656,11.674822 l -0.10666,0.17268 c -0.09674,0.03578 -0.333564,0.20059 -0.642402,0.411346 -1.582496,1.106694 -5.283014,3.696822 -10.02675,3.275424 -4.266338,-0.380378 -9.83243,-2.827426 -16.547356,-7.249164 0.295622,0.697196 1.691358,4.01126 1.924626,4.567896 l 0.09648,0.11426 c 0.972406,0.502318 10.301428,5.258654 14.929804,5.162054 3.735182,-0.07422 7.722642,-1.89699 9.318354,-2.854026 l 0.507806,-0.09648 c 0.14182,0.11132 0.11986,0.327992 0.07618,0.528134 -0.09808,0.457266 -0.317294,1.296282 -0.469724,1.685956 l -0.1244,0.324994 c -0.18158,0.482466 -0.35893,0.948048 -0.69826,1.226394 -0.941076,0.85618 -2.447552,1.5333 -4.798896,2.56448 -3.636622,1.589132 -9.529472,2.588726 -15.005966,2.556862 C 26.953162,48.444038 25.054492,48.22844 23.3885,48.03804 19.912037,47.643242 17.087692,47.324044 15.40042,48.634438 19.503799,53.271214 25.49857,56.2 32.177936,56.2 c 12.370898,0 22.409968,-10.02815 22.409968,-22.399888 0,-12.370058 -10.03851,-22.399888 -22.409968,-22.399888 h -0.0026 z m 5.92113,11.85514 c -1.714598,0.02574 -3.328062,0.666734 -4.588056,1.848468 -1.349258,1.24983 -2.126254,2.959304 -2.191242,4.798896 -0.12322,3.79202 2.861586,6.992964 6.655008,7.134924 1.84771,0.05966 3.595742,-0.598134 4.941134,-1.858602 1.34139,-1.253862 2.116006,-2.951746 2.183626,-4.788816 0.12986,-3.797342 -2.854866,-6.998286 -6.655008,-7.134926 -0.11508,-0.0038 -0.231026,-0.0017 -0.345322,0 z m -0.1828,2.031278 c 0.15812,-0.0096 0.309342,-0.006 0.469726,0 2.64957,0.09282 4.732816,2.314104 4.644056,4.969136 -0.03978,1.277774 -0.583854,2.475356 -1.520924,3.354102 -0.939648,0.87214 -2.161086,1.322014 -3.448184,1.282254 -2.648254,-0.09814 -4.723856,-2.3283 -4.636496,-4.979214 0.04108,-1.282982 0.591664,-2.469196 1.523444,-3.344024 0.817596,-0.766608 1.861486,-1.214942 2.968266,-1.282254 z m 1.262794,2.404348 c -1.180924,0 -2.135382,0.639658 -2.135382,1.426986 0,0.782008 0.954402,1.426984 2.135382,1.426984 1.177058,0 2.125216,-0.643632 2.125216,-1.426984 0,-0.7873 -0.948214,-1.426986 -2.125216,-1.426986 z"
       id="path1087" />
    <path
       style="fill:#ffffff"
       d="m 32.174138,10.402258 c -8.590076,0 -13.499292,3.517062 -16.702196,7.480162 2.454691,0.673286 4.170019,1.233898 4.722736,1.416822 0.0066,-0.371166 0.06602,-3.714742 0.06602,-3.714742 l 0.04824,-0.10664 0.12442,-0.0381 c 0.755298,0.1092 16.860676,2.490868 23.643922,6.44417 0.8398,0.494002 1.252266,1.009534 1.77228,1.541224 1.874618,1.938318 4.364898,10.00687 4.628656,11.674822 l -0.10666,0.17268 c -0.09674,0.03578 -0.333564,0.200592 -0.642402,0.411346 -1.582496,1.106696 -5.283014,3.696822 -10.02675,3.275424 -4.266338,-0.380378 -9.83243,-2.827426 -16.547356,-7.249164 0.295622,0.697196 1.691358,4.01126 1.924626,4.567898 l 0.09648,0.11426 c 0.972406,0.502316 10.301428,5.258652 14.929804,5.162054 3.735182,-0.07422 7.722642,-1.896992 9.318354,-2.854026 l 0.507806,-0.09648 c 0.14182,0.11132 0.11986,0.32799 0.07618,0.528134 -0.09808,0.457266 -0.317294,1.29628 -0.469724,1.685954 l -0.1244,0.324996 c -0.18158,0.482464 -0.35893,0.948046 -0.69826,1.226394 -0.941076,0.856178 -2.447552,1.5333 -4.798896,2.564478 -3.636622,1.589132 -9.529472,2.588728 -15.005966,2.556864 -1.95831,-0.0476 -3.85698,-0.2632 -5.522972,-0.453598 C 19.911617,46.642402 17.087272,46.323204 15.4,47.633596 19.503379,52.271214 25.49815,55.2 32.178356,55.2 c 12.370898,0 22.409968,-10.02815 22.409968,-22.399888 0,-12.37006 -10.03851,-22.39989 -22.409968,-22.39989 h -0.0026 z m 5.92113,11.855142 c -1.714598,0.02574 -3.328062,0.666732 -4.588056,1.848466 -1.349258,1.24983 -2.126254,2.959306 -2.191242,4.798896 -0.12322,3.792022 2.861586,6.992966 6.655008,7.134924 1.84771,0.05966 3.595742,-0.598132 4.941134,-1.858602 1.34139,-1.253862 2.116006,-2.951746 2.183626,-4.788816 0.12986,-3.79734 -2.854866,-6.998284 -6.655008,-7.134924 -0.11508,-0.0038 -0.231026,-0.0017 -0.345322,0 z m -0.1828,2.031278 c 0.15812,-0.0096 0.309342,-0.006 0.469726,0 2.64957,0.09282 4.732816,2.314104 4.644056,4.969134 -0.03978,1.277774 -0.583854,2.475356 -1.520924,3.354104 -0.939648,0.87214 -2.161086,1.322014 -3.448184,1.282254 -2.648254,-0.09814 -4.723856,-2.3283 -4.636496,-4.979216 0.04108,-1.282982 0.591664,-2.469196 1.523444,-3.344022 0.817596,-0.76661 1.861486,-1.214942 2.968266,-1.282254 z m 1.262794,2.404348 c -1.180924,0 -2.135382,0.639656 -2.135382,1.426984 0,0.782008 0.954402,1.426986 2.135382,1.426986 1.177058,0 2.125216,-0.643634 2.125216,-1.426986 0,-0.7873 -0.948214,-1.426984 -2.125216,-1.426984 z"
       id="path1089" />
    <path
       style="opacity:0.2"
       d="M 4.0214844,32.421875 A 28,28 0 0 0 4,33 28,28 0 0 0 32,61 28,28 0 0 0 60,33 28,28 0 0 0 59.978516,32.59375 28,28 0 0 1 32,60 28,28 0 0 1 4.0214844,32.421875 Z"
       id="path1091" />
    <path
       style="opacity:0.2;fill:#ffffff"
       d="M 32,4 A 28.0005,28 0 0 0 4,32 28.0005,28 0 0 0 4.0214844,32.40625 28.0005,28 0 0 1 32,5 28.0005,28 0 0 1 59.978516,32.578125 28.0005,28 0 0 0 60,32 28.0005,28 0 0 0 32,4 Z"
       id="path1093" />
  </g>
</svg>
