<?xml version="1.0" encoding="UTF-8" standalone="no"?>
<svg
   width="320"
   height="180"
   viewBox="0 0 84.666664 47.625001"
   version="1.1"
   id="svg8"
   sodipodi:docname="redmond-no-indicators-logo-symbolic.svg"
   inkscape:version="1.1 (c4e8f9ed74, 2021-05-24)"
   xmlns:inkscape="http://www.inkscape.org/namespaces/inkscape"
   xmlns:sodipodi="http://sodipodi.sourceforge.net/DTD/sodipodi-0.dtd"
   xmlns="http://www.w3.org/2000/svg"
   xmlns:svg="http://www.w3.org/2000/svg"
   xmlns:rdf="http://www.w3.org/1999/02/22-rdf-syntax-ns#"
   xmlns:cc="http://creativecommons.org/ns#"
   xmlns:dc="http://purl.org/dc/elements/1.1/">
  <sodipodi:namedview
     id="namedview42"
     pagecolor="#ffffff"
     bordercolor="#666666"
     borderopacity="1.0"
     inkscape:pageshadow="2"
     inkscape:pageopacity="0.0"
     inkscape:pagecheckerboard="0"
     showgrid="false"
     inkscape:zoom="4"
     inkscape:cx="164.875"
     inkscape:cy="47"
     inkscape:window-width="1920"
     inkscape:window-height="1032"
     inkscape:window-x="1366"
     inkscape:window-y="0"
     inkscape:window-maximized="1"
     inkscape:current-layer="svg8"
     width="320px" />
  <defs
     id="defs2" />
  <metadata
     id="metadata5">
    <rdf:RDF>
      <cc:Work
         rdf:about="">
        <dc:format>image/svg+xml</dc:format>
        <dc:type
           rdf:resource="http://purl.org/dc/dcmitype/StillImage" />
      </cc:Work>
    </rdf:RDF>
  </metadata>
  <rect
     style="fill:#ffffff;fill-opacity:1;stroke:none;stroke-width:2.75472;stroke-linejoin:miter;stroke-miterlimit:4;stroke-dasharray:none;stroke-opacity:1"
     id="rect1527"
     width="84.666008"
     height="47.624172"
     x="0.0011975408"
     y="0.00077672349" />
  <path
     id="path967"
     d="M 2.9866863,1.9948733 H 81.675795"
     style="fill:none;stroke:#97bb72;stroke-width:0.622109;stroke-linecap:butt;stroke-linejoin:miter;stroke-miterlimit:4;stroke-dasharray:none;stroke-opacity:1" />
  <path
     style="fill:none;stroke:#97bb72;stroke-width:0.622128;stroke-linecap:butt;stroke-linejoin:miter;stroke-miterlimit:4;stroke-dasharray:none;stroke-opacity:1"
     d="M 2.9866859,45.635772 H 81.680458"
     id="path969" />
  <path
     id="path971"
     d="M 3.2207896,1.6800533 V 45.937373"
     style="fill:none;stroke:#97bb72;stroke-width:0.466555;stroke-linecap:butt;stroke-linejoin:miter;stroke-miterlimit:4;stroke-dasharray:none;stroke-opacity:1" />
  <path
     style="fill:none;stroke:#97bb72;stroke-width:0.466201;stroke-linecap:butt;stroke-linejoin:miter;stroke-miterlimit:4;stroke-dasharray:none;stroke-opacity:1"
     d="M 81.448098,1.6800533 V 45.870399"
     id="path975" />
  <path
     id="path988"
     d="m 72.717873,43.967764 h 7.448504"
     style="opacity:1;fill:none;stroke:#97bb72;stroke-width:0.491834;stroke-linecap:butt;stroke-linejoin:miter;stroke-miterlimit:4;stroke-dasharray:none;stroke-opacity:1" />
  <rect
     style="fill:#97bb72;fill-opacity:1;stroke:none;stroke-width:0.263023;stroke-linecap:round;stroke-linejoin:bevel;stroke-miterlimit:4;stroke-dasharray:none;stroke-dashoffset:10.63;stroke-opacity:1;paint-order:stroke fill markers"
     id="rect1002"
     width="1.0295633"
     height="1.0461693"
     x="14.720255"
     y="43.491444" />
  <rect
     y="43.491444"
     x="12.752917"
     height="1.0461693"
     width="1.0295633"
     id="rect1714"
     style="fill:#97bb72;fill-opacity:1;stroke:none;stroke-width:0.263023;stroke-linecap:round;stroke-linejoin:bevel;stroke-miterlimit:4;stroke-dasharray:none;stroke-dashoffset:10.63;stroke-opacity:1;paint-order:stroke fill markers" />
  <path
     id="path1726"
     d="M 2.9866859,42.256333 H 81.476406"
     style="fill:none;stroke:#97bb72;stroke-width:0.62132;stroke-linecap:butt;stroke-linejoin:miter;stroke-miterlimit:4;stroke-dasharray:none;stroke-opacity:1" />
  <rect
     y="23.453335"
     x="4.1140637"
     height="17.818661"
     width="22.569044"
     id="rect1728"
     style="opacity:1;fill:none;fill-opacity:1;stroke:#97bb72;stroke-width:0.616769;stroke-linecap:square;stroke-linejoin:miter;stroke-miterlimit:4;stroke-dasharray:none;stroke-dashoffset:10.63;stroke-opacity:1;paint-order:fill markers stroke" />
  <path
     id="path1730"
     d="M 7.3081971,27.307089 H 9.8522893"
     style="opacity:1;fill:none;stroke:#97bb72;stroke-width:0.491834;stroke-linecap:butt;stroke-linejoin:miter;stroke-miterlimit:4;stroke-dasharray:none;stroke-opacity:1" />
  <rect
     y="26.76573"
     x="5.7926221"
     height="1.0827239"
     width="1.0655378"
     id="rect1732"
     style="opacity:1;fill:#97bb72;fill-opacity:1;stroke:none;stroke-width:0.272213;stroke-linecap:round;stroke-linejoin:bevel;stroke-miterlimit:4;stroke-dasharray:none;stroke-dashoffset:10.63;stroke-opacity:1;paint-order:stroke fill markers" />
  <path
     style="opacity:1;fill:none;stroke:#97bb72;stroke-width:0.491834;stroke-linecap:butt;stroke-linejoin:miter;stroke-miterlimit:4;stroke-dasharray:none;stroke-opacity:1"
     d="M 7.3081971,29.274425 H 10.321199"
     id="path1736" />
  <rect
     style="opacity:1;fill:#97bb72;fill-opacity:1;stroke:none;stroke-width:0.272213;stroke-linecap:round;stroke-linejoin:bevel;stroke-miterlimit:4;stroke-dasharray:none;stroke-dashoffset:10.63;stroke-opacity:1;paint-order:stroke fill markers"
     id="rect1738"
     width="1.0655378"
     height="1.0827239"
     x="5.7926221"
     y="28.733067" />
  <path
     id="path1742"
     d="M 7.3081971,31.241761 H 10.067206"
     style="opacity:1;fill:none;stroke:#97bb72;stroke-width:0.491834;stroke-linecap:butt;stroke-linejoin:miter;stroke-miterlimit:4;stroke-dasharray:none;stroke-opacity:1" />
  <path
     id="path1742-3"
     d="m 11.195227,39.960616 h 2.346338"
     style="fill:none;stroke:#97bb72;stroke-width:0.453563;stroke-linecap:butt;stroke-linejoin:miter;stroke-miterlimit:4;stroke-dasharray:none;stroke-opacity:1" />
  <rect
     y="30.700403"
     x="5.7926221"
     height="1.0827239"
     width="1.0655378"
     id="rect1744"
     style="opacity:1;fill:#97bb72;fill-opacity:1;stroke:none;stroke-width:0.272213;stroke-linecap:round;stroke-linejoin:bevel;stroke-miterlimit:4;stroke-dasharray:none;stroke-dashoffset:10.63;stroke-opacity:1;paint-order:stroke fill markers" />
  <path
     id="path1754"
     d="M 6.2498637,35.176432 H 9.7122363"
     style="opacity:1;fill:none;stroke:#97bb72;stroke-width:0.491834;stroke-linecap:butt;stroke-linejoin:miter;stroke-miterlimit:4;stroke-dasharray:none;stroke-opacity:1" />
  <path
     style="opacity:1;fill:none;stroke:#97bb72;stroke-width:0.491834;stroke-linecap:butt;stroke-linejoin:miter;stroke-miterlimit:4;stroke-dasharray:none;stroke-opacity:1"
     d="M 6.2498637,36.614601 H 8.2468953"
     id="path1760" />
  <path
     id="path1766"
     d="M 6.2498637,38.05277 H 8.7353419"
     style="opacity:1;fill:none;stroke:#97bb72;stroke-width:0.491834;stroke-linecap:butt;stroke-linejoin:miter;stroke-miterlimit:4;stroke-dasharray:none;stroke-opacity:1" />
  <g
     transform="matrix(1.4212713,0,0,1.4212713,26.699349,7.8231974)"
     id="g1112">
    <rect
       x="1"
       y="1"
       width="20"
       height="20"
       rx="1"
       ry="1"
       style="fill:#4f4f4f"
       id="rect1078" />
    <path
       d="M 2,1 C 1.446,1 1,1.446 1,2 v 0.5 c 0,-0.554 0.446,-1 1,-1 h 18 c 0.554,0 1,0.446 1,1 V 2 C 21,1.446 20.554,1 20,1 Z"
       style="opacity:0.1;fill:#ffffff"
       id="path1080" />
    <path
       d="m 2,21.5 c -0.554,0 -1,-0.446 -1,-1 V 20 c 0,0.554 0.446,1 1,1 h 18 c 0.554,0 1,-0.446 1,-1 v 0.5 c 0,0.554 -0.446,1 -1,1 z"
       style="opacity:0.2"
       id="path1082" />
    <g
       transform="matrix(0.5,0,0,0.5,-1,-0.5)"
       style="opacity:0.2"
       id="g1096">
      <g
         id="g1088">
        <path
           d="m 9,8 h 12 c 0.554,0 1,0.446 1,1 v 12 c 0,0.554 -0.446,1 -1,1 H 9 C 8.446,22 8,21.554 8,21 V 9 C 8,8.446 8.446,8 9,8 Z"
           id="path1084" />
        <path
           d="m 27,8 h 12 c 0.554,0 1,0.446 1,1 v 12 c 0,0.554 -0.446,1 -1,1 H 27 c -0.554,0 -1,-0.446 -1,-1 V 9 c 0,-0.554 0.446,-1 1,-1 z"
           id="path1086" />
      </g>
      <g
         transform="translate(0,18)"
         id="g1094">
        <path
           d="m 9,8 h 12 c 0.554,0 1,0.446 1,1 v 12 c 0,0.554 -0.446,1 -1,1 H 9 C 8.446,22 8,21.554 8,21 V 9 C 8,8.446 8.446,8 9,8 Z"
           id="path1090" />
        <path
           d="m 27,8 h 12 c 0.554,0 1,0.446 1,1 v 12 c 0,0.554 -0.446,1 -1,1 H 27 c -0.554,0 -1,-0.446 -1,-1 V 9 c 0,-0.554 0.446,-1 1,-1 z"
           id="path1092" />
      </g>
    </g>
    <g
       transform="matrix(0.5,0,0,0.5,-1,-1)"
       style="fill:#48aeff"
       id="g1110">
      <g
         id="g1102">
        <path
           d="m 9,8 h 12 c 0.554,0 1,0.446 1,1 v 12 c 0,0.554 -0.446,1 -1,1 H 9 C 8.446,22 8,21.554 8,21 V 9 C 8,8.446 8.446,8 9,8 Z"
           style="fill:#e54333"
           id="path1098" />
        <path
           d="m 27,8 h 12 c 0.554,0 1,0.446 1,1 v 12 c 0,0.554 -0.446,1 -1,1 H 27 c -0.554,0 -1,-0.446 -1,-1 V 9 c 0,-0.554 0.446,-1 1,-1 z"
           style="fill:#0a9554"
           id="path1100" />
      </g>
      <g
         transform="translate(0,18)"
         id="g1108">
        <path
           d="m 9,8 h 12 c 0.554,0 1,0.446 1,1 v 12 c 0,0.554 -0.446,1 -1,1 H 9 C 8.446,22 8,21.554 8,21 V 9 C 8,8.446 8.446,8 9,8 Z"
           style="fill:#38739d"
           id="path1104" />
        <path
           d="m 27,8 h 12 c 0.554,0 1,0.446 1,1 v 12 c 0,0.554 -0.446,1 -1,1 H 27 c -0.554,0 -1,-0.446 -1,-1 V 9 c 0,-0.554 0.446,-1 1,-1 z"
           style="fill:#ff8f1e"
           id="path1106" />
      </g>
    </g>
  </g>
  <rect
     y="43.488792"
     x="6.3095937"
     height="1.0461693"
     width="4.4165044"
     id="rect1161"
     style="fill:#97bb72;fill-opacity:1;stroke:none;stroke-width:0.544762;stroke-linecap:round;stroke-linejoin:bevel;stroke-miterlimit:4;stroke-dasharray:none;stroke-dashoffset:10.63;stroke-opacity:1;paint-order:stroke fill markers" />
  <rect
     y="24.906239"
     x="4.9757857"
     height="1.0461693"
     width="4.4165044"
     id="rect1161-6"
     style="fill:#97bb72;fill-opacity:1;stroke:none;stroke-width:0.544762;stroke-linecap:round;stroke-linejoin:bevel;stroke-miterlimit:4;stroke-dasharray:none;stroke-dashoffset:10.63;stroke-opacity:1;paint-order:stroke fill markers" />
  <path
     id="path1172"
     d="m 17.155338,43.967764 h 7.448504"
     style="opacity:1;fill:none;stroke:#97bb72;stroke-width:0.491834;stroke-linecap:butt;stroke-linejoin:miter;stroke-miterlimit:4;stroke-dasharray:none;stroke-opacity:1" />
  <path
     id="path1183"
     d="m 25.62201,43.967764 h 7.448504"
     style="opacity:1;fill:none;stroke:#97bb72;stroke-width:0.491834;stroke-linecap:butt;stroke-linejoin:miter;stroke-miterlimit:4;stroke-dasharray:none;stroke-opacity:1" />
  <path
     id="path1194"
     d="m 34.088682,43.967764 h 7.448504"
     style="opacity:1;fill:none;stroke:#97bb72;stroke-width:0.491834;stroke-linecap:butt;stroke-linejoin:miter;stroke-miterlimit:4;stroke-dasharray:none;stroke-opacity:1" />
  <rect
     y="24.906239"
     x="11.854949"
     height="1.1606977"
     width="6.1814232"
     id="rect1493"
     style="fill:#97bb72;fill-opacity:1;stroke:none;stroke-width:0.678845;stroke-linecap:round;stroke-linejoin:bevel;stroke-miterlimit:4;stroke-dasharray:none;stroke-dashoffset:10.63;stroke-opacity:1;paint-order:stroke fill markers" />
  <rect
     y="32.843746"
     x="4.9757857"
     height="1.0461693"
     width="4.4165044"
     id="rect1745"
     style="fill:#97bb72;fill-opacity:1;stroke:none;stroke-width:0.544762;stroke-linecap:round;stroke-linejoin:bevel;stroke-miterlimit:4;stroke-dasharray:none;stroke-dashoffset:10.63;stroke-opacity:1;paint-order:stroke fill markers" />
  <path
     id="path2907"
     d="m 14.298881,27.797153 h 3.963261"
     style="opacity:1;fill:none;stroke:#97bb72;stroke-width:0.766193;stroke-linecap:butt;stroke-linejoin:miter;stroke-miterlimit:4;stroke-dasharray:none;stroke-opacity:1" />
  <rect
     y="26.95381"
     x="11.937864"
     height="1.6866976"
     width="1.6599247"
     id="rect2909"
     style="opacity:1;fill:#97bb72;fill-opacity:1;stroke:none;stroke-width:0.424061;stroke-linecap:round;stroke-linejoin:bevel;stroke-miterlimit:4;stroke-dasharray:none;stroke-dashoffset:10.63;stroke-opacity:1;paint-order:stroke fill markers" />
  <path
     style="opacity:1;fill:none;stroke:#97bb72;stroke-width:0.766193;stroke-linecap:butt;stroke-linejoin:miter;stroke-miterlimit:4;stroke-dasharray:none;stroke-opacity:1"
     d="m 14.298881,30.861924 h 4.693742"
     id="path2911" />
  <rect
     style="opacity:1;fill:#97bb72;fill-opacity:1;stroke:none;stroke-width:0.424061;stroke-linecap:round;stroke-linejoin:bevel;stroke-miterlimit:4;stroke-dasharray:none;stroke-dashoffset:10.63;stroke-opacity:1;paint-order:stroke fill markers"
     id="rect2913"
     width="1.6599247"
     height="1.6866976"
     x="11.937864"
     y="30.018581" />
  <path
     id="path2915"
     d="M 14.232735,34.985029 H 18.5308"
     style="opacity:1;fill:none;stroke:#97bb72;stroke-width:0.766193;stroke-linecap:butt;stroke-linejoin:miter;stroke-miterlimit:4;stroke-dasharray:none;stroke-opacity:1" />
  <rect
     y="34.141685"
     x="11.937864"
     height="1.6866976"
     width="1.6599247"
     id="rect2917"
     style="opacity:1;fill:#97bb72;fill-opacity:1;stroke:none;stroke-width:0.424061;stroke-linecap:round;stroke-linejoin:bevel;stroke-miterlimit:4;stroke-dasharray:none;stroke-dashoffset:10.63;stroke-opacity:1;paint-order:stroke fill markers" />
  <path
     id="path2929"
     d="m 21.541854,34.985029 h 4.298065"
     style="opacity:1;fill:none;stroke:#97bb72;stroke-width:0.766193;stroke-linecap:butt;stroke-linejoin:miter;stroke-miterlimit:4;stroke-dasharray:none;stroke-opacity:1" />
  <rect
     y="34.141685"
     x="19.28005"
     height="1.6866976"
     width="1.6599247"
     id="rect2931"
     style="opacity:1;fill:#97bb72;fill-opacity:1;stroke:none;stroke-width:0.424061;stroke-linecap:round;stroke-linejoin:bevel;stroke-miterlimit:4;stroke-dasharray:none;stroke-dashoffset:10.63;stroke-opacity:1;paint-order:stroke fill markers" />
  <path
     id="path2943"
     d="M 14.232735,37.630864 H 18.5308"
     style="opacity:1;fill:none;stroke:#97bb72;stroke-width:0.766193;stroke-linecap:butt;stroke-linejoin:miter;stroke-miterlimit:4;stroke-dasharray:none;stroke-opacity:1" />
  <rect
     y="36.787521"
     x="11.937864"
     height="1.6866976"
     width="1.6599247"
     id="rect2945"
     style="opacity:1;fill:#97bb72;fill-opacity:1;stroke:none;stroke-width:0.424061;stroke-linecap:round;stroke-linejoin:bevel;stroke-miterlimit:4;stroke-dasharray:none;stroke-dashoffset:10.63;stroke-opacity:1;paint-order:stroke fill markers" />
  <rect
     y="43.146797"
     x="3.9632125"
     height="1.6866976"
     width="1.6599247"
     id="rect2945-5"
     style="fill:#97bb72;fill-opacity:1;stroke:none;stroke-width:0.424061;stroke-linecap:round;stroke-linejoin:bevel;stroke-miterlimit:4;stroke-dasharray:none;stroke-dashoffset:10.63;stroke-opacity:1;paint-order:stroke fill markers" />
  <rect
     y="39.356865"
     x="14.0612"
     height="1.2140727"
     width="11.30871"
     id="rect2956"
     style="opacity:1;fill:none;fill-opacity:1;stroke:#97bb72;stroke-width:0.289841;stroke-linecap:square;stroke-linejoin:miter;stroke-miterlimit:4;stroke-dasharray:none;stroke-dashoffset:10.63;stroke-opacity:1;paint-order:fill markers stroke" />
  <path
     id="path3120"
     d="M 6.2498637,39.409768 H 9.7122363"
     style="opacity:1;fill:none;stroke:#97bb72;stroke-width:0.491834;stroke-linecap:butt;stroke-linejoin:miter;stroke-miterlimit:4;stroke-dasharray:none;stroke-opacity:1" />
</svg>
