<?xml version="1.0" encoding="UTF-8" standalone="no"?>
<svg
   xmlns:dc="http://purl.org/dc/elements/1.1/"
   xmlns:cc="http://creativecommons.org/ns#"
   xmlns:rdf="http://www.w3.org/1999/02/22-rdf-syntax-ns#"
   xmlns:svg="http://www.w3.org/2000/svg"
   xmlns="http://www.w3.org/2000/svg"
   xmlns:sodipodi="http://sodipodi.sourceforge.net/DTD/sodipodi-0.dtd"
   xmlns:inkscape="http://www.inkscape.org/namespaces/inkscape"
   width="48"
   height="48"
   viewBox="0 0 12.7 12.7"
   version="1.1"
   id="svg8"
   sodipodi:docname="org.github.FreaxMATE.mate-layouts.svg"
   inkscape:version="1.0.2 (e86c870879, 2021-01-15)"
   inkscape:export-filename="/home/kunruh/src/mate-layouts/data/org.github.FreaxMATE.mate-layouts.png"
   inkscape:export-xdpi="96"
   inkscape:export-ydpi="96">
  <defs
     id="defs2">
    <style
       id="current-color-scheme"
       type="text/css">
   .ColorScheme-Text { color:#444444; } .ColorScheme-Highlight { color:#4285f4; }
  </style>
    <style
       id="current-color-scheme-8"
       type="text/css">
   .ColorScheme-Text { color:#444444; } .ColorScheme-Highlight { color:#4285f4; }
  </style>
    <style
       id="current-color-scheme-9"
       type="text/css">
   .ColorScheme-Text { color:#444444; } .ColorScheme-Highlight { color:#4285f4; }
  </style>
    <linearGradient
       id="linearGradient5108">
      <stop
         id="stop5110"
         offset="0"
         style="stop-color:#ffffff;stop-opacity:1" />
      <stop
         id="stop5112"
         offset="1"
         style="stop-color:#7d7d7d;stop-opacity:1" />
    </linearGradient>
    <linearGradient
       id="linearGradient3944">
      <stop
         id="stop3946"
         offset="0"
         style="stop-color:#aeaeae;stop-opacity:1;" />
      <stop
         id="stop3948"
         offset="0.20022914"
         style="stop-color:#dedede;stop-opacity:1" />
      <stop
         id="stop3950"
         offset="0.35514116"
         style="stop-color:#c4c4c4;stop-opacity:1" />
      <stop
         id="stop3952"
         offset="0.52539963"
         style="stop-color:#ececec;stop-opacity:1" />
      <stop
         id="stop3954"
         offset="0.73511833"
         style="stop-color:#cdcdcd;stop-opacity:1" />
      <stop
         id="stop3956"
         offset="0.875"
         style="stop-color:#d8d8d8;stop-opacity:1" />
      <stop
         id="stop3958"
         offset="1"
         style="stop-color:#bebebe;stop-opacity:1" />
    </linearGradient>
    <style
       id="current-color-scheme-6"
       type="text/css">
   .ColorScheme-Text { color:#444444; } .ColorScheme-Highlight { color:#4285f4; }
  </style>
    <style
       id="current-color-scheme-4"
       type="text/css">
   .ColorScheme-Text { color:#444444; } .ColorScheme-Highlight { color:#4285f4; }
  </style>
    <style
       id="current-color-scheme-95"
       type="text/css">
   .ColorScheme-Text { color:#444444; } .ColorScheme-Highlight { color:#4285f4; }
  </style>
    <style
       id="current-color-scheme-1"
       type="text/css">
   .ColorScheme-Text { color:#444444; } .ColorScheme-Highlight { color:#4285f4; }
  </style>
    <clipPath
       clipPathUnits="userSpaceOnUse"
       id="clipPath5275">
      <path
         style="opacity:1;fill:#27bc45;fill-opacity:1;stroke:none;stroke-width:0.0143535;stroke-linejoin:miter;stroke-miterlimit:4;stroke-dasharray:none;stroke-dashoffset:0;stroke-opacity:1"
         id="path5277"
         sodipodi:type="arc"
         sodipodi:cx="-1.8161682"
         sodipodi:cy="-4.4544964"
         sodipodi:rx="2.2173774"
         sodipodi:ry="2.54444"
         sodipodi:start="0"
         sodipodi:end="3.1413794"
         sodipodi:arc-type="slice"
         d="m 0.40120924,-4.4544964 a 2.2173774,2.54444 0 0 1 -2.21714104,2.54444 2.2173774,2.54444 0 0 1 -2.2176138,-2.5438974 l 2.2173774,-5.426e-4 z"
         transform="matrix(0,-1,-0.99909034,0.04264382,0,0)" />
    </clipPath>
    <filter
       inkscape:collect="always"
       style="color-interpolation-filters:sRGB"
       id="filter5358"
       x="-0.015551562"
       width="1.0311031"
       y="-0.0097690169"
       height="1.019538">
      <feGaussianBlur
         inkscape:collect="always"
         stdDeviation="0.04328478"
         id="feGaussianBlur5360" />
    </filter>
    <filter
       inkscape:collect="always"
       style="color-interpolation-filters:sRGB"
       id="filter5362"
       x="-0.014870216"
       width="1.0297405"
       y="-0.010058526"
       height="1.020117">
      <feGaussianBlur
         inkscape:collect="always"
         stdDeviation="0.041388367"
         id="feGaussianBlur5364" />
    </filter>
    <filter
       inkscape:collect="always"
       style="color-interpolation-filters:sRGB"
       id="filter5366"
       x="-0.012045681"
       width="1.0240914"
       y="-0.011954665"
       height="1.0239093">
      <feGaussianBlur
         inkscape:collect="always"
         stdDeviation="0.018453437"
         id="feGaussianBlur5368" />
    </filter>
    <clipPath
       clipPathUnits="userSpaceOnUse"
       id="clipPath5542">
      <rect
         style="opacity:0.436297;fill:#2ec27e;fill-opacity:1;stroke:none;stroke-width:0.0264583;stroke-linejoin:miter;stroke-miterlimit:4;stroke-dasharray:none;stroke-dashoffset:0;stroke-opacity:1"
         id="rect5544"
         width="22.366146"
         height="10.068254"
         x="-22.880999"
         y="-0.87830555"
         ry="0.025012203" />
    </clipPath>
  </defs>
  <sodipodi:namedview
     id="base"
     pagecolor="#ffffff"
     bordercolor="#666666"
     borderopacity="1.0"
     inkscape:pageopacity="0.0"
     inkscape:pageshadow="2"
     inkscape:zoom="16"
     inkscape:cx="25.007348"
     inkscape:cy="21.356615"
     inkscape:document-units="px"
     inkscape:current-layer="layer1"
     inkscape:document-rotation="0"
     showgrid="false"
     units="px"
     inkscape:window-width="1856"
     inkscape:window-height="1028"
     inkscape:window-x="64"
     inkscape:window-y="28"
     inkscape:window-maximized="1" />
  <metadata
     id="metadata5">
    <rdf:RDF>
      <cc:Work
         rdf:about="">
        <dc:format>image/svg+xml</dc:format>
        <dc:type
           rdf:resource="http://purl.org/dc/dcmitype/StillImage" />
        <dc:title></dc:title>
      </cc:Work>
    </rdf:RDF>
  </metadata>
  <g
     inkscape:label="Layer 1"
     inkscape:groupmode="layer"
     id="layer1">
    <rect
       style="opacity:0.5;fill:#f6d32d;fill-opacity:1;stroke:none;stroke-width:0.0578247;stroke-linejoin:miter;stroke-miterlimit:4;stroke-dasharray:none"
       id="rect5615"
       width="15.963656"
       height="15.17108"
       x="-18.183678"
       y="1.6045939"
       ry="1.7894151"
       clip-path="url(#clipPath5542)"
       transform="matrix(0.77288202,0,0,-0.73473721,14.210735,13.640922)" />
    <rect
       style="opacity:0.5;fill:#c4a308;fill-opacity:1;stroke:none;stroke-width:0.0578247;stroke-linejoin:miter;stroke-miterlimit:4;stroke-dasharray:none"
       id="rect5602"
       width="15.963656"
       height="15.17108"
       x="-18.183678"
       y="1.6045939"
       ry="1.7894151"
       clip-path="url(#clipPath5542)"
       transform="matrix(0.77288202,0,0,0.73473721,14.210735,-0.96856659)" />
    <rect
       style="opacity:1;fill:#ceab08;fill-opacity:1;stroke:none;stroke-width:0.0578247;stroke-linejoin:miter;stroke-miterlimit:4;stroke-dasharray:none"
       id="rect5589"
       width="15.963656"
       height="15.17108"
       x="-18.183678"
       y="1.6045939"
       ry="1.7894151"
       clip-path="url(#clipPath5542)"
       transform="matrix(0.77288202,0,0,-0.78394045,14.210735,13.274946)" />
    <rect
       style="opacity:1;fill:#f6d32d;fill-opacity:1;stroke:none;stroke-width:0.0578247;stroke-linejoin:miter;stroke-miterlimit:4;stroke-dasharray:none"
       id="rect3780-6"
       width="15.963656"
       height="15.17108"
       x="-18.183678"
       y="1.6045939"
       ry="1.7894151"
       clip-path="url(#clipPath5542)"
       transform="matrix(0.77288202,0,0,0.73473721,14.210735,-0.62780763)" />
    <g
       id="g5300"
       transform="matrix(0.99596206,0,0,0.99596206,-1.6890542,-1.7097851)"
       style="opacity:0.436297;fill:#000000;fill-opacity:1;filter:url(#filter5366)">
      <path
         style="fill:#000000;fill-opacity:1;stroke:#000000;stroke-width:0.0264583;stroke-miterlimit:4;stroke-dasharray:none;stroke-dashoffset:0;stroke-opacity:1"
         class="ColorScheme-Text"
         d="M 8.0041617,6.6143251 7.9633377,7.1021505 A 1.4552083,1.4552083 0 0 0 7.5380403,7.3481303 L 7.0946565,7.1393575 6.6316361,7.9413757 7.0341951,8.2209452 a 1.4552083,1.4552083 0 0 0 -0.022221,0.2454631 1.4552083,1.4552083 0 0 0 0.021187,0.2464966 L 6.6316361,8.9914408 7.0946565,9.7934591 7.5370068,9.5852032 a 1.4552083,1.4552083 0 0 0 0.4263306,0.2444295 l 0.039791,0.4893753 H 8.9291699 L 8.9699943,9.8311828 A 1.4552083,1.4552083 0 0 0 9.3952912,9.5852032 L 9.8386751,9.7939758 10.301697,8.9919576 9.8991371,8.7123881 A 1.4552083,1.4552083 0 0 0 9.9213571,8.466925 1.4552083,1.4552083 0 0 0 9.9001671,8.2204285 L 10.301697,7.9418925 9.8386751,7.1398743 9.3963249,7.3481303 A 1.4552083,1.4552083 0 0 0 8.9699943,7.1037008 L 8.9302034,6.6143251 Z M 8.4671826,7.9372416 A 0.52916667,0.52916667 0 0 1 8.9963493,8.4664083 0.52916667,0.52916667 0 0 1 8.4671826,8.995575 0.52916667,0.52916667 0 0 1 7.9380159,8.4664083 0.52916667,0.52916667 0 0 1 8.4671826,7.9372416 Z"
         id="path5296" />
      <path
         style="fill:#000000;fill-opacity:1;stroke:#000000;stroke-width:0.0264583;stroke-miterlimit:4;stroke-dasharray:none;stroke-dashoffset:0;stroke-opacity:1"
         class="ColorScheme-Text"
         d="m 3.9841823,-0.15846854 -0.04082,0.4878255 a 1.4552083,1.4552083 0 0 0 -0.425298,0.2459798 l -0.443383,-0.2087728 -0.463021,0.80201824 0.402559,0.2795695 a 1.4552083,1.4552083 0 0 0 -0.02222,0.2454631 1.4552083,1.4552083 0 0 0 0.02119,0.2464966 l -0.401525,0.2785359 0.463021,0.8020183 0.44235,-0.2082559 a 1.4552083,1.4552083 0 0 0 0.426331,0.2444295 l 0.03979,0.4893757 h 0.926041 l 0.04082,-0.4878256 a 1.4552083,1.4552083 0 0 0 0.425297,-0.2459796 l 0.4433839,0.2087726 0.463022,-0.8020182 -0.40256,-0.2795695 a 1.4552083,1.4552083 0 0 0 0.02222,-0.2454631 1.4552083,1.4552083 0 0 0 -0.02119,-0.2464965 l 0.401527,-0.278536 -0.463022,-0.80201824 -0.4423499,0.208256 a 1.4552083,1.4552083 0 0 0 -0.426331,-0.2444295 l -0.03979,-0.4893758 z m 0.463021,1.32291664 a 0.52916667,0.52916667 0 0 1 0.529166,0.5291667 0.52916667,0.52916667 0 0 1 -0.529166,0.5291667 0.52916667,0.52916667 0 0 1 -0.529167,-0.5291667 0.52916667,0.52916667 0 0 1 0.529167,-0.5291667 z"
         id="path5298"
         clip-path="url(#clipPath5275)"
         transform="translate(4.0266071,6.7727936)" />
    </g>
    <path
       style="opacity:0.265671;fill:#000000;fill-opacity:1;stroke:#000000;stroke-width:0.034011;stroke-linecap:butt;stroke-linejoin:miter;stroke-miterlimit:4;stroke-dasharray:none;stroke-opacity:1;filter:url(#filter5362)"
       d="M 9.49745,9.1641442 10.314376,8.4366609 13.311947,4.6191648 15.14951,7.6023369 15.06758,8.3831432 13.172544,5.6366347 11.19759,9.1512339 13.172544,12.718545 16.040696,14.20091 16.177385,14.494577 12.54409,13.306643 10.314376,9.9185141 9.49745,9.1641449"
       id="path5234"
       sodipodi:nodetypes="ccccccccccccc"
       transform="matrix(0.77479179,0,0,0.77479179,-0.24001338,-0.2336628)" />
    <path
       style="opacity:0.279394;fill:#000000;fill-opacity:1;stroke:#000000;stroke-width:0.034011;stroke-linecap:butt;stroke-linejoin:miter;stroke-miterlimit:4;stroke-dasharray:none;stroke-opacity:1;filter:url(#filter5358)"
       d="M 8.1307059,9.1641442 7.3137803,8.4366609 5.0840672,5.0485356 1.4507678,3.8606024 1.587457,4.1542698 4.4556082,5.6366347 6.4305585,9.1512339 4.4556082,12.718545 1.587457,14.20091 1.4507678,14.494577 5.0840672,13.306643 7.3137803,9.9185141 8.1307059,9.1641449"
       id="path5171"
       transform="matrix(0.77479179,0,0,0.77479179,-0.24001338,-0.2336628)" />
    <path
       style="opacity:0.9;fill:#c01c28;stroke:#000000;stroke-width:0.0263515;stroke-linecap:butt;stroke-linejoin:miter;stroke-miterlimit:4;stroke-dasharray:none;stroke-opacity:1"
       d="M 5.7567991,6.3494446 5.1238519,5.7857966 3.3962884,3.1607049 0.58123788,2.2403039 0.68714356,2.467835 2.9093636,3.6163592 4.4395389,6.3394419 2.9093636,9.1033643 0.68714356,10.251887 0.58123788,10.479418 3.3962884,9.5590167 5.1238519,6.9339243 5.7567991,6.3494452"
       id="path4647" />
    <path
       style="opacity:0.9;fill:#613583;stroke:#000000;stroke-width:0.0263515;stroke-linecap:butt;stroke-linejoin:miter;stroke-miterlimit:4;stroke-dasharray:none;stroke-opacity:1"
       d="M 6.8157413,6.3494446 7.4486885,5.7857966 9.7711838,2.8280319 11.194912,5.1393692 11.131431,5.7443315 9.6631726,3.6163592 8.1329932,6.3394419 9.6631726,9.1033643 11.885393,10.251887 11.9913,10.479418 9.1762503,9.5590167 7.4486885,6.9339243 6.8157413,6.3494452"
       id="path4658"
       sodipodi:nodetypes="ccccccccccccc" />
    <g
       id="g5281"
       transform="matrix(0.99596206,0,0,0.99596206,-2.1462093,-2.0726181)"
       style="opacity:0.95">
      <path
         style="fill:#c01c28;fill-opacity:1;stroke:#000000;stroke-width:0.0264583;stroke-miterlimit:4;stroke-dasharray:none;stroke-dashoffset:0;stroke-opacity:1"
         class="ColorScheme-Text"
         d="M 8.0041617,6.6143251 7.9633377,7.1021505 A 1.4552083,1.4552083 0 0 0 7.5380403,7.3481303 L 7.0946565,7.1393575 6.6316361,7.9413757 7.0341951,8.2209452 a 1.4552083,1.4552083 0 0 0 -0.022221,0.2454631 1.4552083,1.4552083 0 0 0 0.021187,0.2464966 L 6.6316361,8.9914408 7.0946565,9.7934591 7.5370068,9.5852032 a 1.4552083,1.4552083 0 0 0 0.4263306,0.2444295 l 0.039791,0.4893753 H 8.9291699 L 8.9699943,9.8311828 A 1.4552083,1.4552083 0 0 0 9.3952912,9.5852032 L 9.8386751,9.7939758 10.301697,8.9919576 9.8991371,8.7123881 A 1.4552083,1.4552083 0 0 0 9.9213571,8.466925 1.4552083,1.4552083 0 0 0 9.9001671,8.2204285 L 10.301697,7.9418925 9.8386751,7.1398743 9.3963249,7.3481303 A 1.4552083,1.4552083 0 0 0 8.9699943,7.1037008 L 8.9302034,6.6143251 Z M 8.4671826,7.9372416 A 0.52916667,0.52916667 0 0 1 8.9963493,8.4664083 0.52916667,0.52916667 0 0 1 8.4671826,8.995575 0.52916667,0.52916667 0 0 1 7.9380159,8.4664083 0.52916667,0.52916667 0 0 1 8.4671826,7.9372416 Z"
         id="path5245" />
      <path
         style="fill:#613583;fill-opacity:1;stroke:#000000;stroke-width:0.0264583;stroke-miterlimit:4;stroke-dasharray:none;stroke-dashoffset:0;stroke-opacity:1"
         class="ColorScheme-Text"
         d="m 3.9841823,-0.15846854 -0.04082,0.4878255 a 1.4552083,1.4552083 0 0 0 -0.425298,0.2459798 l -0.443383,-0.2087728 -0.463021,0.80201824 0.402559,0.2795695 a 1.4552083,1.4552083 0 0 0 -0.02222,0.2454631 1.4552083,1.4552083 0 0 0 0.02119,0.2464966 l -0.401525,0.2785359 0.463021,0.8020183 0.44235,-0.2082559 a 1.4552083,1.4552083 0 0 0 0.426331,0.2444295 l 0.03979,0.4893757 h 0.926041 l 0.04082,-0.4878256 a 1.4552083,1.4552083 0 0 0 0.425297,-0.2459796 l 0.4433839,0.2087726 0.463022,-0.8020182 -0.40256,-0.2795695 a 1.4552083,1.4552083 0 0 0 0.02222,-0.2454631 1.4552083,1.4552083 0 0 0 -0.02119,-0.2464965 l 0.401527,-0.278536 -0.463022,-0.80201824 -0.4423499,0.208256 a 1.4552083,1.4552083 0 0 0 -0.426331,-0.2444295 l -0.03979,-0.4893758 z m 0.463021,1.32291664 a 0.52916667,0.52916667 0 0 1 0.529166,0.5291667 0.52916667,0.52916667 0 0 1 -0.529166,0.5291667 0.52916667,0.52916667 0 0 1 -0.529167,-0.5291667 0.52916667,0.52916667 0 0 1 0.529167,-0.5291667 z"
         id="path5152"
         clip-path="url(#clipPath5275)"
         transform="translate(4.0266071,6.7727936)" />
    </g>
  </g>
</svg>
